<?xml version="1.0" encoding="utf-8" standalone="no"?>
<!DOCTYPE svg PUBLIC "-//W3C//DTD SVG 1.1//EN"
  "http://www.w3.org/Graphics/SVG/1.1/DTD/svg11.dtd">
<svg xmlns:xlink="http://www.w3.org/1999/xlink" width="501.179812pt" height="486.372454pt" viewBox="0 0 501.179812 486.372454" xmlns="http://www.w3.org/2000/svg" version="1.1">
 <metadata>
  <rdf:RDF xmlns:dc="http://purl.org/dc/elements/1.1/" xmlns:cc="http://creativecommons.org/ns#" xmlns:rdf="http://www.w3.org/1999/02/22-rdf-syntax-ns#">
   <cc:Work>
    <dc:type rdf:resource="http://purl.org/dc/dcmitype/StillImage"/>
    <dc:date>2026-07-15T17:07:18.722886</dc:date>
    <dc:format>image/svg+xml</dc:format>
    <dc:creator>
     <cc:Agent>
      <dc:title>Matplotlib v3.11.0, https://matplotlib.org/</dc:title>
     </cc:Agent>
    </dc:creator>
   </cc:Work>
  </rdf:RDF>
 </metadata>
 <defs>
  <style type="text/css">*{stroke-linejoin: round; stroke-linecap: butt}</style>
 </defs>
 <g id="figure_1">
  <g id="patch_1">
   <path d="M 0 486.372454 
L 501.179812 486.372454 
L 501.179812 -0 
L 0 -0 
z
" style="fill: #ffffff"/>
  </g>
  <g id="axes_1">
   <g id="patch_2">
    <path d="M 449.66575 225.935766 
C 449.66575 200.454667 444.646529 175.221339 434.895334 151.679873 
C 425.14414 128.138407 410.850608 106.746625 392.83275 88.728767 
C 374.814892 70.710908 353.423109 56.417376 329.881643 46.666182 
C 306.340177 36.914987 281.106849 31.895766 255.62575 31.895766 
C 230.144651 31.895766 204.911323 36.914987 181.369857 46.666182 
C 157.828391 56.417376 136.436608 70.710908 118.41875 88.728767 
C 100.400892 106.746625 86.10736 128.138407 76.356166 151.679873 
C 66.604971 175.221339 61.58575 200.454667 61.58575 225.935766 
C 61.58575 251.416866 66.604971 276.650193 76.356166 300.19166 
C 86.10736 323.733126 100.400892 345.124908 118.41875 363.142766 
C 136.436608 381.160624 157.828391 395.454156 181.369857 405.205351 
C 204.911323 414.956545 230.144651 419.975766 255.62575 419.975766 
C 281.106849 419.975766 306.340177 414.956545 329.881643 405.205351 
C 353.423109 395.454156 374.814892 381.160624 392.83275 363.142766 
C 410.850608 345.124908 425.14414 323.733126 434.895334 300.19166 
C 444.646529 276.650193 449.66575 251.416866 449.66575 225.935766 
M 255.62575 225.935766 
C 255.62575 225.935766 255.62575 225.935766 255.62575 225.935766 
C 255.62575 225.935766 255.62575 225.935766 255.62575 225.935766 
C 255.62575 225.935766 255.62575 225.935766 255.62575 225.935766 
C 255.62575 225.935766 255.62575 225.935766 255.62575 225.935766 
C 255.62575 225.935766 255.62575 225.935766 255.62575 225.935766 
C 255.62575 225.935766 255.62575 225.935766 255.62575 225.935766 
C 255.62575 225.935766 255.62575 225.935766 255.62575 225.935766 
C 255.62575 225.935766 255.62575 225.935766 255.62575 225.935766 
C 255.62575 225.935766 255.62575 225.935766 255.62575 225.935766 
C 255.62575 225.935766 255.62575 225.935766 255.62575 225.935766 
C 255.62575 225.935766 255.62575 225.935766 255.62575 225.935766 
C 255.62575 225.935766 255.62575 225.935766 255.62575 225.935766 
C 255.62575 225.935766 255.62575 225.935766 255.62575 225.935766 
C 255.62575 225.935766 255.62575 225.935766 255.62575 225.935766 
C 255.62575 225.935766 255.62575 225.935766 255.62575 225.935766 
C 255.62575 225.935766 255.62575 225.935766 255.62575 225.935766 
z
" style="fill: #ffffff"/>
   </g>
   <g id="patch_3">
    <path d="M 303.144155 225.935766 
L 278.241974 156.330186 
L 112.915152 122.250448 
L 112.915152 329.621085 
L 307.872239 386.733927 
z
" clip-path="url(#pa0565a0eb5)" style="fill: #7f8c8d; opacity: 0.1; stroke: #7f8c8d; stroke-linejoin: miter"/>
   </g>
   <g id="patch_4">
    <path d="M 303.144155 225.935766 
L 278.241974 156.330186 
L 112.977615 122.295829 
L 112.915152 329.621085 
L 307.872239 386.733927 
z
" clip-path="url(#pa0565a0eb5)" style="fill: #95a5a6; opacity: 0.1; stroke: #95a5a6; stroke-linejoin: miter"/>
   </g>
   <g id="patch_5">
    <path d="M 371.16956 225.935766 
L 279.630375 152.057128 
L 115.797553 124.344635 
L 112.915152 329.621085 
L 293.028801 341.050521 
z
" clip-path="url(#pa0565a0eb5)" style="fill: #3498db; opacity: 0.1; stroke: #3498db; stroke-linejoin: miter"/>
   </g>
   <g id="patch_6">
    <path d="M 290.90575 225.935766 
L 272.093672 175.252714 
L 114.908018 123.698349 
L 112.915152 329.621085 
L 310.136348 393.702136 
z
" clip-path="url(#pa0565a0eb5)" style="fill: #f1c40f; opacity: 0.1; stroke: #f1c40f; stroke-linejoin: miter"/>
   </g>
   <g id="patch_7">
    <path d="M 432.02575 225.935766 
L 310.136348 58.169397 
L 123.981718 130.290779 
L 112.915152 329.621085 
L 266.52787 259.48904 
z
" clip-path="url(#pa0565a0eb5)" style="fill: #e74c3c; opacity: 0.1; stroke: #e74c3c; stroke-linejoin: miter"/>
   </g>
   <g id="patch_8">
    <path d="M 376.104204 225.935766 
L 266.52787 192.382493 
L 227.08363 205.198703 
L 112.915152 329.621085 
L 292.430706 339.209773 
z
" clip-path="url(#pa0565a0eb5)" style="fill: #2ecc71; opacity: 0.1; stroke: #2ecc71; stroke-linejoin: miter"/>
   </g>
   <g id="matplotlib.axis_1">
    <g id="xtick_1">
     <g id="line2d_1">
      <path d="M 255.62575 225.935766 
L 449.66575 225.935766 
" clip-path="url(#pa0565a0eb5)" style="fill: none; stroke-dasharray: 2.96,1.28; stroke-dashoffset: 0; stroke: #b0b0b0; stroke-opacity: 0.3; stroke-width: 0.8"/>
     </g>
     <g id="text_1">
      <!-- Travel Time -->
      <g transform="translate(433.351687 228.533813) scale(0.1 -0.1)">
       <defs>
        <path id="DejaVuSerif-37" d="M 1222 0 
L 1222 331 
L 1819 331 
L 1819 4294 
L 447 4294 
L 447 3566 
L 63 3566 
L 63 4666 
L 4206 4666 
L 4206 3566 
L 3822 3566 
L 3822 4294 
L 2450 4294 
L 2450 331 
L 3047 331 
L 3047 0 
L 1222 0 
z
" transform="scale(0.015625)"/>
        <path id="DejaVuSerif-55" d="M 3059 3328 
L 3059 2497 
L 2728 2497 
Q 2713 2744 2591 2866 
Q 2469 2988 2234 2988 
Q 1809 2988 1582 2694 
Q 1356 2400 1356 1850 
L 1356 331 
L 2022 331 
L 2022 0 
L 263 0 
L 263 331 
L 781 331 
L 781 2994 
L 231 2994 
L 231 3322 
L 1356 3322 
L 1356 2731 
Q 1525 3078 1790 3245 
Q 2056 3413 2438 3413 
Q 2578 3413 2733 3391 
Q 2888 3369 3059 3328 
z
" transform="scale(0.015625)"/>
        <path id="DejaVuSerif-44" d="M 2547 1044 
L 2547 1747 
L 1806 1747 
Q 1378 1747 1168 1562 
Q 959 1378 959 997 
Q 959 650 1171 447 
Q 1384 244 1747 244 
Q 2106 244 2326 466 
Q 2547 688 2547 1044 
z
M 3122 2075 
L 3122 331 
L 3634 331 
L 3634 0 
L 2547 0 
L 2547 359 
Q 2356 128 2106 18 
Q 1856 -91 1522 -91 
Q 969 -91 644 203 
Q 319 497 319 997 
Q 319 1513 691 1797 
Q 1063 2081 1741 2081 
L 2547 2081 
L 2547 2309 
Q 2547 2688 2317 2895 
Q 2088 3103 1672 3103 
Q 1328 3103 1125 2947 
Q 922 2791 872 2484 
L 575 2484 
L 575 3156 
Q 875 3284 1158 3348 
Q 1441 3413 1709 3413 
Q 2400 3413 2761 3070 
Q 3122 2728 3122 2075 
z
" transform="scale(0.015625)"/>
        <path id="DejaVuSerif-59" d="M 1581 0 
L 359 2988 
L -19 2988 
L -19 3322 
L 1509 3322 
L 1509 2988 
L 978 2988 
L 1913 703 
L 2847 2988 
L 2350 2988 
L 2350 3322 
L 3597 3322 
L 3597 2988 
L 3225 2988 
L 2003 0 
L 1581 0 
z
" transform="scale(0.015625)"/>
        <path id="DejaVuSerif-48" d="M 3469 1600 
L 991 1600 
L 991 1575 
Q 991 903 1244 561 
Q 1497 219 1991 219 
Q 2369 219 2611 417 
Q 2853 616 2950 1006 
L 3413 1006 
Q 3275 459 2904 184 
Q 2534 -91 1931 -91 
Q 1203 -91 761 389 
Q 319 869 319 1663 
Q 319 2450 753 2931 
Q 1188 3413 1894 3413 
Q 2647 3413 3050 2948 
Q 3453 2484 3469 1600 
z
M 2791 1931 
Q 2772 2513 2545 2808 
Q 2319 3103 1894 3103 
Q 1497 3103 1269 2806 
Q 1041 2509 991 1931 
L 2791 1931 
z
" transform="scale(0.015625)"/>
        <path id="DejaVuSerif-4f" d="M 1313 331 
L 1856 331 
L 1856 0 
L 184 0 
L 184 331 
L 738 331 
L 738 4531 
L 184 4531 
L 184 4863 
L 1313 4863 
L 1313 331 
z
" transform="scale(0.015625)"/>
        <path id="DejaVuSerif-3" transform="scale(0.015625)"/>
        <path id="DejaVuSerif-4c" d="M 622 4353 
Q 622 4497 726 4603 
Q 831 4709 978 4709 
Q 1122 4709 1226 4603 
Q 1331 4497 1331 4353 
Q 1331 4206 1228 4103 
Q 1125 4000 978 4000 
Q 831 4000 726 4103 
Q 622 4206 622 4353 
z
M 1356 331 
L 1900 331 
L 1900 0 
L 231 0 
L 231 331 
L 781 331 
L 781 2988 
L 231 2988 
L 231 3322 
L 1356 3322 
L 1356 331 
z
" transform="scale(0.015625)"/>
        <path id="DejaVuSerif-50" d="M 3316 2675 
Q 3481 3041 3739 3227 
Q 3997 3413 4341 3413 
Q 4863 3413 5119 3089 
Q 5375 2766 5375 2113 
L 5375 331 
L 5894 331 
L 5894 0 
L 4300 0 
L 4300 331 
L 4800 331 
L 4800 2047 
Q 4800 2556 4650 2772 
Q 4500 2988 4153 2988 
Q 3769 2988 3567 2697 
Q 3366 2406 3366 1850 
L 3366 331 
L 3866 331 
L 3866 0 
L 2291 0 
L 2291 331 
L 2791 331 
L 2791 2069 
Q 2791 2566 2641 2777 
Q 2491 2988 2144 2988 
Q 1759 2988 1557 2697 
Q 1356 2406 1356 1850 
L 1356 331 
L 1856 331 
L 1856 0 
L 263 0 
L 263 331 
L 781 331 
L 781 2994 
L 231 2994 
L 231 3322 
L 1356 3322 
L 1356 2731 
Q 1516 3063 1762 3238 
Q 2009 3413 2322 3413 
Q 2709 3413 2968 3220 
Q 3228 3028 3316 2675 
z
" transform="scale(0.015625)"/>
       </defs>
       <use xlink:href="#DejaVuSerif-37"/>
       <use xlink:href="#DejaVuSerif-55" transform="translate(66.703125 0)"/>
       <use xlink:href="#DejaVuSerif-44" transform="translate(114.5 0)"/>
       <use xlink:href="#DejaVuSerif-59" transform="translate(174.125 0)"/>
       <use xlink:href="#DejaVuSerif-48" transform="translate(230.625 0)"/>
       <use xlink:href="#DejaVuSerif-4f" transform="translate(289.8125 0)"/>
       <use xlink:href="#DejaVuSerif-3" transform="translate(321.796875 0)"/>
       <use xlink:href="#DejaVuSerif-37" transform="translate(353.578125 0)"/>
       <use xlink:href="#DejaVuSerif-4c" transform="translate(420.28125 0)"/>
       <use xlink:href="#DejaVuSerif-50" transform="translate(452.265625 0)"/>
       <use xlink:href="#DejaVuSerif-48" transform="translate(547.09375 0)"/>
      </g>
     </g>
    </g>
    <g id="xtick_2">
     <g id="line2d_2">
      <path d="M 255.62575 225.935766 
L 315.587408 41.39276 
" clip-path="url(#pa0565a0eb5)" style="fill: none; stroke-dasharray: 2.96,1.28; stroke-dashoffset: 0; stroke: #b0b0b0; stroke-opacity: 0.3; stroke-width: 0.8"/>
     </g>
     <g id="text_2">
      <!-- Energy -->
      <g transform="translate(301.668333 30.675625) scale(0.1 -0.1)">
       <defs>
        <path id="DejaVuSerif-28" d="M 353 0 
L 353 331 
L 947 331 
L 947 4331 
L 353 4331 
L 353 4666 
L 4109 4666 
L 4109 3628 
L 3725 3628 
L 3725 4281 
L 1581 4281 
L 1581 2719 
L 3109 2719 
L 3109 3303 
L 3494 3303 
L 3494 1753 
L 3109 1753 
L 3109 2338 
L 1581 2338 
L 1581 384 
L 3775 384 
L 3775 1038 
L 4159 1038 
L 4159 0 
L 353 0 
z
" transform="scale(0.015625)"/>
        <path id="DejaVuSerif-51" d="M 263 0 
L 263 331 
L 781 331 
L 781 2988 
L 231 2988 
L 231 3322 
L 1356 3322 
L 1356 2731 
Q 1516 3069 1770 3241 
Q 2025 3413 2363 3413 
Q 2913 3413 3172 3097 
Q 3431 2781 3431 2113 
L 3431 331 
L 3944 331 
L 3944 0 
L 2356 0 
L 2356 331 
L 2853 331 
L 2853 1931 
Q 2853 2541 2703 2767 
Q 2553 2994 2175 2994 
Q 1775 2994 1565 2701 
Q 1356 2409 1356 1850 
L 1356 331 
L 1856 331 
L 1856 0 
L 263 0 
z
" transform="scale(0.015625)"/>
        <path id="DejaVuSerif-4a" d="M 3359 2988 
L 3359 72 
Q 3359 -644 2965 -1033 
Q 2572 -1422 1844 -1422 
Q 1516 -1422 1216 -1362 
Q 916 -1303 641 -1184 
L 641 -488 
L 941 -488 
Q 997 -813 1206 -963 
Q 1416 -1113 1806 -1113 
Q 2313 -1113 2548 -827 
Q 2784 -541 2784 72 
L 2784 519 
Q 2616 206 2355 57 
Q 2094 -91 1709 -91 
Q 1097 -91 708 395 
Q 319 881 319 1663 
Q 319 2444 706 2928 
Q 1094 3413 1709 3413 
Q 2094 3413 2355 3264 
Q 2616 3116 2784 2803 
L 2784 3322 
L 3909 3322 
L 3909 2988 
L 3359 2988 
z
M 2784 1825 
Q 2784 2422 2554 2737 
Q 2325 3053 1888 3053 
Q 1444 3053 1217 2703 
Q 991 2353 991 1663 
Q 991 975 1217 622 
Q 1444 269 1888 269 
Q 2325 269 2554 583 
Q 2784 897 2784 1497 
L 2784 1825 
z
" transform="scale(0.015625)"/>
        <path id="DejaVuSerif-5c" d="M 1381 -609 
L 1600 -56 
L 359 2988 
L -19 2988 
L -19 3322 
L 1509 3322 
L 1509 2988 
L 978 2988 
L 1913 703 
L 2847 2988 
L 2350 2988 
L 2350 3322 
L 3597 3322 
L 3597 2988 
L 3225 2988 
L 1703 -750 
Q 1547 -1138 1356 -1280 
Q 1166 -1422 819 -1422 
Q 672 -1422 517 -1397 
Q 363 -1372 206 -1325 
L 206 -691 
L 500 -691 
Q 519 -903 608 -995 
Q 697 -1088 884 -1088 
Q 1056 -1088 1161 -992 
Q 1266 -897 1381 -609 
z
" transform="scale(0.015625)"/>
       </defs>
       <use xlink:href="#DejaVuSerif-28"/>
       <use xlink:href="#DejaVuSerif-51" transform="translate(73 0)"/>
       <use xlink:href="#DejaVuSerif-48" transform="translate(137.40625 0)"/>
       <use xlink:href="#DejaVuSerif-55" transform="translate(196.59375 0)"/>
       <use xlink:href="#DejaVuSerif-4a" transform="translate(244.390625 0)"/>
       <use xlink:href="#DejaVuSerif-5c" transform="translate(308.40625 0)"/>
      </g>
     </g>
    </g>
    <g id="xtick_3">
     <g id="line2d_3">
      <path d="M 255.62575 225.935766 
L 98.644092 111.881916 
" clip-path="url(#pa0565a0eb5)" style="fill: none; stroke-dasharray: 2.96,1.28; stroke-dashoffset: 0; stroke: #b0b0b0; stroke-opacity: 0.3; stroke-width: 0.8"/>
     </g>
     <g id="text_3">
      <!-- Execution Speed -->
      <g transform="translate(44.695198 106.250969) scale(0.1 -0.1)">
       <defs>
        <path id="DejaVuSerif-5b" d="M 1863 2028 
L 2559 2988 
L 2113 2988 
L 2113 3322 
L 3391 3322 
L 3391 2988 
L 2950 2988 
L 2059 1759 
L 3097 331 
L 3531 331 
L 3531 0 
L 1997 0 
L 1997 331 
L 2419 331 
L 1697 1325 
L 972 331 
L 1403 331 
L 1403 0 
L 141 0 
L 141 331 
L 581 331 
L 1497 1594 
L 488 2988 
L 78 2988 
L 78 3322 
L 1563 3322 
L 1563 2988 
L 1166 2988 
L 1863 2028 
z
" transform="scale(0.015625)"/>
        <path id="DejaVuSerif-46" d="M 3291 997 
Q 3169 466 2822 187 
Q 2475 -91 1925 -91 
Q 1200 -91 759 389 
Q 319 869 319 1663 
Q 319 2459 759 2936 
Q 1200 3413 1925 3413 
Q 2241 3413 2553 3339 
Q 2866 3266 3181 3116 
L 3181 2266 
L 2847 2266 
Q 2781 2703 2561 2903 
Q 2341 3103 1931 3103 
Q 1466 3103 1228 2742 
Q 991 2381 991 1663 
Q 991 944 1227 581 
Q 1463 219 1931 219 
Q 2303 219 2525 412 
Q 2747 606 2828 997 
L 3291 997 
z
" transform="scale(0.015625)"/>
        <path id="DejaVuSerif-58" d="M 2266 3322 
L 3341 3322 
L 3341 331 
L 3884 331 
L 3884 0 
L 2766 0 
L 2766 588 
Q 2606 256 2353 82 
Q 2100 -91 1766 -91 
Q 1213 -91 952 223 
Q 691 538 691 1209 
L 691 2988 
L 172 2988 
L 172 3322 
L 1269 3322 
L 1269 1388 
Q 1269 781 1417 556 
Q 1566 331 1947 331 
Q 2347 331 2556 625 
Q 2766 919 2766 1478 
L 2766 2988 
L 2266 2988 
L 2266 3322 
z
" transform="scale(0.015625)"/>
        <path id="DejaVuSerif-57" d="M 691 2988 
L 184 2988 
L 184 3322 
L 691 3322 
L 691 4353 
L 1269 4353 
L 1269 3322 
L 2350 3322 
L 2350 2988 
L 1269 2988 
L 1269 878 
Q 1269 456 1350 337 
Q 1431 219 1650 219 
Q 1875 219 1978 351 
Q 2081 484 2088 781 
L 2522 781 
Q 2497 328 2275 118 
Q 2053 -91 1600 -91 
Q 1103 -91 897 129 
Q 691 350 691 878 
L 691 2988 
z
" transform="scale(0.015625)"/>
        <path id="DejaVuSerif-52" d="M 1925 219 
Q 2388 219 2623 584 
Q 2859 950 2859 1663 
Q 2859 2375 2623 2739 
Q 2388 3103 1925 3103 
Q 1463 3103 1227 2739 
Q 991 2375 991 1663 
Q 991 950 1228 584 
Q 1466 219 1925 219 
z
M 1925 -91 
Q 1200 -91 759 389 
Q 319 869 319 1663 
Q 319 2456 758 2934 
Q 1197 3413 1925 3413 
Q 2653 3413 3092 2934 
Q 3531 2456 3531 1663 
Q 3531 869 3092 389 
Q 2653 -91 1925 -91 
z
" transform="scale(0.015625)"/>
        <path id="DejaVuSerif-36" d="M 594 225 
L 594 1288 
L 953 1284 
Q 969 753 1261 498 
Q 1553 244 2150 244 
Q 2706 244 2998 464 
Q 3291 684 3291 1106 
Q 3291 1444 3114 1625 
Q 2938 1806 2369 1978 
L 1753 2163 
Q 1084 2366 811 2669 
Q 538 2972 538 3500 
Q 538 4094 959 4422 
Q 1381 4750 2144 4750 
Q 2469 4750 2856 4679 
Q 3244 4609 3681 4475 
L 3681 3481 
L 3328 3481 
Q 3275 3975 2998 4195 
Q 2722 4416 2156 4416 
Q 1663 4416 1405 4214 
Q 1147 4013 1147 3628 
Q 1147 3294 1340 3103 
Q 1534 2913 2163 2725 
L 2741 2553 
Q 3375 2363 3645 2067 
Q 3916 1772 3916 1275 
Q 3916 597 3481 253 
Q 3047 -91 2188 -91 
Q 1803 -91 1404 -12 
Q 1006 66 594 225 
z
" transform="scale(0.015625)"/>
        <path id="DejaVuSerif-53" d="M 1313 1825 
L 1313 1497 
Q 1313 897 1542 583 
Q 1772 269 2209 269 
Q 2650 269 2876 622 
Q 3103 975 3103 1663 
Q 3103 2353 2876 2703 
Q 2650 3053 2209 3053 
Q 1772 3053 1542 2737 
Q 1313 2422 1313 1825 
z
M 738 2988 
L 184 2988 
L 184 3322 
L 1313 3322 
L 1313 2803 
Q 1481 3116 1742 3264 
Q 2003 3413 2388 3413 
Q 3000 3413 3387 2928 
Q 3775 2444 3775 1663 
Q 3775 881 3387 395 
Q 3000 -91 2388 -91 
Q 2003 -91 1742 57 
Q 1481 206 1313 519 
L 1313 -997 
L 1856 -997 
L 1856 -1331 
L 184 -1331 
L 184 -997 
L 738 -997 
L 738 2988 
z
" transform="scale(0.015625)"/>
        <path id="DejaVuSerif-47" d="M 3359 331 
L 3909 331 
L 3909 0 
L 2784 0 
L 2784 519 
Q 2616 206 2355 57 
Q 2094 -91 1709 -91 
Q 1097 -91 708 395 
Q 319 881 319 1663 
Q 319 2444 706 2928 
Q 1094 3413 1709 3413 
Q 2094 3413 2355 3264 
Q 2616 3116 2784 2803 
L 2784 4531 
L 2241 4531 
L 2241 4863 
L 3359 4863 
L 3359 331 
z
M 2784 1497 
L 2784 1825 
Q 2784 2422 2554 2737 
Q 2325 3053 1888 3053 
Q 1444 3053 1217 2703 
Q 991 2353 991 1663 
Q 991 975 1217 622 
Q 1444 269 1888 269 
Q 2325 269 2554 583 
Q 2784 897 2784 1497 
z
" transform="scale(0.015625)"/>
       </defs>
       <use xlink:href="#DejaVuSerif-28"/>
       <use xlink:href="#DejaVuSerif-5b" transform="translate(73 0)"/>
       <use xlink:href="#DejaVuSerif-48" transform="translate(129.390625 0)"/>
       <use xlink:href="#DejaVuSerif-46" transform="translate(188.578125 0)"/>
       <use xlink:href="#DejaVuSerif-58" transform="translate(244.578125 0)"/>
       <use xlink:href="#DejaVuSerif-57" transform="translate(308.984375 0)"/>
       <use xlink:href="#DejaVuSerif-4c" transform="translate(349.171875 0)"/>
       <use xlink:href="#DejaVuSerif-52" transform="translate(381.15625 0)"/>
       <use xlink:href="#DejaVuSerif-51" transform="translate(441.359375 0)"/>
       <use xlink:href="#DejaVuSerif-3" transform="translate(505.765625 0)"/>
       <use xlink:href="#DejaVuSerif-36" transform="translate(537.546875 0)"/>
       <use xlink:href="#DejaVuSerif-53" transform="translate(606.046875 0)"/>
       <use xlink:href="#DejaVuSerif-48" transform="translate(670.0625 0)"/>
       <use xlink:href="#DejaVuSerif-48" transform="translate(729.25 0)"/>
       <use xlink:href="#DejaVuSerif-47" transform="translate(788.4375 0)"/>
      </g>
     </g>
    </g>
    <g id="xtick_4">
     <g id="line2d_4">
      <path d="M 255.62575 225.935766 
L 98.644092 339.989617 
" clip-path="url(#pa0565a0eb5)" style="fill: none; stroke-dasharray: 2.96,1.28; stroke-dashoffset: 0; stroke: #b0b0b0; stroke-opacity: 0.3; stroke-width: 0.8"/>
     </g>
     <g id="text_4">
      <!-- Resilience -->
      <g transform="translate(61.291292 350.816657) scale(0.1 -0.1)">
       <defs>
        <path id="DejaVuSerif-35" d="M 3066 2316 
Q 3284 2256 3442 2114 
Q 3600 1972 3725 1716 
L 4403 331 
L 4972 331 
L 4972 0 
L 3872 0 
L 3144 1484 
Q 2934 1916 2759 2042 
Q 2584 2169 2278 2169 
L 1581 2169 
L 1581 331 
L 2241 331 
L 2241 0 
L 353 0 
L 353 331 
L 947 331 
L 947 4331 
L 353 4331 
L 353 4666 
L 2719 4666 
Q 3400 4666 3770 4341 
Q 4141 4016 4141 3419 
Q 4141 2938 3870 2661 
Q 3600 2384 3066 2316 
z
M 1581 2503 
L 2503 2503 
Q 2975 2503 3200 2726 
Q 3425 2950 3425 3419 
Q 3425 3888 3200 4109 
Q 2975 4331 2503 4331 
L 1581 4331 
L 1581 2503 
z
" transform="scale(0.015625)"/>
        <path id="DejaVuSerif-56" d="M 359 184 
L 359 959 
L 691 959 
Q 703 588 923 403 
Q 1144 219 1575 219 
Q 1963 219 2166 364 
Q 2369 509 2369 788 
Q 2369 1006 2220 1140 
Q 2072 1275 1594 1428 
L 1178 1569 
Q 750 1706 558 1912 
Q 366 2119 366 2438 
Q 366 2894 700 3153 
Q 1034 3413 1625 3413 
Q 1888 3413 2178 3344 
Q 2469 3275 2778 3144 
L 2778 2419 
L 2447 2419 
Q 2434 2741 2221 2922 
Q 2009 3103 1644 3103 
Q 1281 3103 1095 2975 
Q 909 2847 909 2591 
Q 909 2381 1050 2254 
Q 1191 2128 1613 1997 
L 2069 1856 
Q 2541 1709 2748 1489 
Q 2956 1269 2956 922 
Q 2956 450 2595 179 
Q 2234 -91 1600 -91 
Q 1278 -91 972 -22 
Q 666 47 359 184 
z
" transform="scale(0.015625)"/>
       </defs>
       <use xlink:href="#DejaVuSerif-35"/>
       <use xlink:href="#DejaVuSerif-48" transform="translate(75.296875 0)"/>
       <use xlink:href="#DejaVuSerif-56" transform="translate(134.484375 0)"/>
       <use xlink:href="#DejaVuSerif-4c" transform="translate(185.796875 0)"/>
       <use xlink:href="#DejaVuSerif-4f" transform="translate(217.78125 0)"/>
       <use xlink:href="#DejaVuSerif-4c" transform="translate(249.765625 0)"/>
       <use xlink:href="#DejaVuSerif-48" transform="translate(281.75 0)"/>
       <use xlink:href="#DejaVuSerif-51" transform="translate(340.9375 0)"/>
       <use xlink:href="#DejaVuSerif-46" transform="translate(405.34375 0)"/>
       <use xlink:href="#DejaVuSerif-48" transform="translate(461.34375 0)"/>
      </g>
     </g>
    </g>
    <g id="xtick_5">
     <g id="line2d_5">
      <path d="M 255.62575 225.935766 
L 315.587408 410.478773 
" clip-path="url(#pa0565a0eb5)" style="fill: none; stroke-dasharray: 2.96,1.28; stroke-dashoffset: 0; stroke: #b0b0b0; stroke-opacity: 0.3; stroke-width: 0.8"/>
     </g>
     <g id="text_5">
      <!-- Robustness -->
      <g transform="translate(290.831614 426.391611) scale(0.1 -0.1)">
       <defs>
        <path id="DejaVuSerif-45" d="M 738 331 
L 738 4531 
L 184 4531 
L 184 4863 
L 1313 4863 
L 1313 2803 
Q 1481 3116 1742 3264 
Q 2003 3413 2388 3413 
Q 3000 3413 3387 2928 
Q 3775 2444 3775 1663 
Q 3775 881 3387 395 
Q 3000 -91 2388 -91 
Q 2003 -91 1742 57 
Q 1481 206 1313 519 
L 1313 0 
L 184 0 
L 184 331 
L 738 331 
z
M 1313 1497 
Q 1313 897 1542 583 
Q 1772 269 2209 269 
Q 2650 269 2876 622 
Q 3103 975 3103 1663 
Q 3103 2353 2876 2703 
Q 2650 3053 2209 3053 
Q 1772 3053 1542 2737 
Q 1313 2422 1313 1825 
L 1313 1497 
z
" transform="scale(0.015625)"/>
       </defs>
       <use xlink:href="#DejaVuSerif-35"/>
       <use xlink:href="#DejaVuSerif-52" transform="translate(75.296875 0)"/>
       <use xlink:href="#DejaVuSerif-45" transform="translate(135.5 0)"/>
       <use xlink:href="#DejaVuSerif-58" transform="translate(199.515625 0)"/>
       <use xlink:href="#DejaVuSerif-56" transform="translate(263.921875 0)"/>
       <use xlink:href="#DejaVuSerif-57" transform="translate(315.234375 0)"/>
       <use xlink:href="#DejaVuSerif-51" transform="translate(355.421875 0)"/>
       <use xlink:href="#DejaVuSerif-48" transform="translate(419.828125 0)"/>
       <use xlink:href="#DejaVuSerif-56" transform="translate(479.015625 0)"/>
       <use xlink:href="#DejaVuSerif-56" transform="translate(530.328125 0)"/>
      </g>
     </g>
    </g>
   </g>
   <g id="matplotlib.axis_2">
    <g id="ytick_1">
     <g id="line2d_6">
      <path d="M 290.90575 225.935766 
C 290.90575 221.302839 289.993164 216.714961 288.22022 212.434695 
C 286.447275 208.154428 283.848451 204.265013 280.572477 200.989039 
C 277.296503 197.713065 273.407088 195.114241 269.126821 193.341296 
C 264.846555 191.568352 260.258677 190.655766 255.62575 190.655766 
C 250.992823 190.655766 246.404945 191.568352 242.124679 193.341296 
C 237.844412 195.114241 233.954997 197.713065 230.679023 200.989039 
C 227.403049 204.265013 224.804225 208.154428 223.03128 212.434695 
C 221.258336 216.714961 220.34575 221.302839 220.34575 225.935766 
C 220.34575 230.568694 221.258336 235.156571 223.03128 239.436838 
C 224.804225 243.717104 227.403049 247.606519 230.679023 250.882494 
C 233.954997 254.158468 237.844412 256.757292 242.124679 258.530236 
C 246.404945 260.303181 250.992823 261.215766 255.62575 261.215766 
C 260.258677 261.215766 264.846555 260.303181 269.126821 258.530236 
C 273.407088 256.757292 277.296503 254.158468 280.572477 250.882494 
C 283.848451 247.606519 286.447275 243.717104 288.22022 239.436838 
C 289.993164 235.156571 290.90575 230.568694 290.90575 225.935766 
" clip-path="url(#pa0565a0eb5)" style="fill: none; stroke-dasharray: 2.96,1.28; stroke-dashoffset: 0; stroke: #b0b0b0; stroke-opacity: 0.3; stroke-width: 0.8"/>
     </g>
     <g id="text_6">
      <!-- 0.2 -->
      <g style="fill: #808080" transform="translate(290.90575 224.013891) scale(0.08 -0.08)">
       <defs>
        <path id="DejaVuSerif-13" d="M 2034 219 
Q 2513 219 2750 744 
Q 2988 1269 2988 2328 
Q 2988 3391 2750 3916 
Q 2513 4441 2034 4441 
Q 1556 4441 1318 3916 
Q 1081 3391 1081 2328 
Q 1081 1269 1318 744 
Q 1556 219 2034 219 
z
M 2034 -91 
Q 1275 -91 848 546 
Q 422 1184 422 2328 
Q 422 3475 848 4112 
Q 1275 4750 2034 4750 
Q 2797 4750 3222 4112 
Q 3647 3475 3647 2328 
Q 3647 1184 3222 546 
Q 2797 -91 2034 -91 
z
" transform="scale(0.015625)"/>
        <path id="DejaVuSerif-11" d="M 603 325 
Q 603 500 722 622 
Q 841 744 1019 744 
Q 1191 744 1312 622 
Q 1434 500 1434 325 
Q 1434 153 1312 31 
Q 1191 -91 1019 -91 
Q 841 -91 722 29 
Q 603 150 603 325 
z
" transform="scale(0.015625)"/>
        <path id="DejaVuSerif-15" d="M 819 3553 
L 469 3553 
L 469 4384 
Q 803 4563 1142 4656 
Q 1481 4750 1806 4750 
Q 2534 4750 2956 4397 
Q 3378 4044 3378 3438 
Q 3378 2753 2422 1800 
Q 2347 1728 2309 1691 
L 1131 513 
L 3078 513 
L 3078 1088 
L 3444 1088 
L 3444 0 
L 434 0 
L 434 341 
L 1850 1753 
Q 2319 2222 2519 2614 
Q 2719 3006 2719 3438 
Q 2719 3909 2473 4175 
Q 2228 4441 1797 4441 
Q 1350 4441 1106 4219 
Q 863 3997 819 3553 
z
" transform="scale(0.015625)"/>
       </defs>
       <use xlink:href="#DejaVuSerif-13"/>
       <use xlink:href="#DejaVuSerif-11" transform="translate(63.625 0)"/>
       <use xlink:href="#DejaVuSerif-15" transform="translate(95.40625 0)"/>
      </g>
     </g>
    </g>
    <g id="ytick_2">
     <g id="line2d_7">
      <path d="M 326.18575 225.935766 
C 326.18575 216.669912 324.360579 207.494157 320.81469 198.933623 
C 317.268801 190.37309 312.071153 182.59426 305.519204 176.042312 
C 298.967256 169.490364 291.188426 164.292716 282.627893 160.746827 
C 274.06736 157.200938 264.891604 155.375766 255.62575 155.375766 
C 246.359896 155.375766 237.18414 157.200938 228.623607 160.746827 
C 220.063074 164.292716 212.284244 169.490364 205.732296 176.042312 
C 199.180347 182.59426 193.982699 190.37309 190.43681 198.933623 
C 186.890921 207.494157 185.06575 216.669912 185.06575 225.935766 
C 185.06575 235.201621 186.890921 244.377376 190.43681 252.937909 
C 193.982699 261.498443 199.180347 269.277272 205.732296 275.829221 
C 212.284244 282.381169 220.063074 287.578817 228.623607 291.124706 
C 237.18414 294.670595 246.359896 296.495766 255.62575 296.495766 
C 264.891604 296.495766 274.06736 294.670595 282.627893 291.124706 
C 291.188426 287.578817 298.967256 282.381169 305.519204 275.829221 
C 312.071153 269.277272 317.268801 261.498443 320.81469 252.937909 
C 324.360579 244.377376 326.18575 235.201621 326.18575 225.935766 
" clip-path="url(#pa0565a0eb5)" style="fill: none; stroke-dasharray: 2.96,1.28; stroke-dashoffset: 0; stroke: #b0b0b0; stroke-opacity: 0.3; stroke-width: 0.8"/>
     </g>
     <g id="text_7">
      <!-- 0.4 -->
      <g style="fill: #808080" transform="translate(326.18575 224.013891) scale(0.08 -0.08)">
       <defs>
        <path id="DejaVuSerif-17" d="M 2234 1581 
L 2234 4063 
L 641 1581 
L 2234 1581 
z
M 3609 0 
L 1484 0 
L 1484 331 
L 2234 331 
L 2234 1247 
L 197 1247 
L 197 1588 
L 2241 4750 
L 2859 4750 
L 2859 1581 
L 3750 1581 
L 3750 1247 
L 2859 1247 
L 2859 331 
L 3609 331 
L 3609 0 
z
" transform="scale(0.015625)"/>
       </defs>
       <use xlink:href="#DejaVuSerif-13"/>
       <use xlink:href="#DejaVuSerif-11" transform="translate(63.625 0)"/>
       <use xlink:href="#DejaVuSerif-17" transform="translate(95.40625 0)"/>
      </g>
     </g>
    </g>
    <g id="ytick_3">
     <g id="line2d_8">
      <path d="M 361.46575 225.935766 
C 361.46575 212.036985 358.727993 198.273352 353.40916 185.432552 
C 348.090326 172.591752 340.293854 160.923507 330.465932 151.095585 
C 320.638009 141.267662 308.969764 133.47119 296.128964 128.152357 
C 283.288165 122.833523 269.524531 120.095766 255.62575 120.095766 
C 241.726969 120.095766 227.963335 122.833523 215.122536 128.152357 
C 202.281736 133.47119 190.613491 141.267662 180.785568 151.095585 
C 170.957646 160.923507 163.161174 172.591752 157.84234 185.432552 
C 152.523507 198.273352 149.78575 212.036985 149.78575 225.935766 
C 149.78575 239.834548 152.523507 253.598181 157.84234 266.438981 
C 163.161174 279.279781 170.957646 290.948026 180.785568 300.775948 
C 190.613491 310.603871 202.281736 318.400343 215.122536 323.719176 
C 227.963335 329.03801 241.726969 331.775766 255.62575 331.775766 
C 269.524531 331.775766 283.288165 329.03801 296.128964 323.719176 
C 308.969764 318.400343 320.638009 310.603871 330.465932 300.775948 
C 340.293854 290.948026 348.090326 279.279781 353.40916 266.438981 
C 358.727993 253.598181 361.46575 239.834548 361.46575 225.935766 
" clip-path="url(#pa0565a0eb5)" style="fill: none; stroke-dasharray: 2.96,1.28; stroke-dashoffset: 0; stroke: #b0b0b0; stroke-opacity: 0.3; stroke-width: 0.8"/>
     </g>
     <g id="text_8">
      <!-- 0.6 -->
      <g style="fill: #808080" transform="translate(361.46575 224.013891) scale(0.08 -0.08)">
       <defs>
        <path id="DejaVuSerif-19" d="M 2094 219 
Q 2534 219 2771 542 
Q 3009 866 3009 1472 
Q 3009 2078 2771 2401 
Q 2534 2725 2094 2725 
Q 1647 2725 1412 2412 
Q 1178 2100 1178 1509 
Q 1178 888 1415 553 
Q 1653 219 2094 219 
z
M 1075 2569 
Q 1288 2803 1556 2918 
Q 1825 3034 2163 3034 
Q 2859 3034 3264 2615 
Q 3669 2197 3669 1472 
Q 3669 763 3233 336 
Q 2797 -91 2069 -91 
Q 1278 -91 853 498 
Q 428 1088 428 2181 
Q 428 3406 931 4078 
Q 1434 4750 2350 4750 
Q 2597 4750 2869 4703 
Q 3141 4656 3425 4563 
L 3425 3794 
L 3072 3794 
Q 3034 4109 2831 4275 
Q 2628 4441 2284 4441 
Q 1678 4441 1381 3981 
Q 1084 3522 1075 2569 
z
" transform="scale(0.015625)"/>
       </defs>
       <use xlink:href="#DejaVuSerif-13"/>
       <use xlink:href="#DejaVuSerif-11" transform="translate(63.625 0)"/>
       <use xlink:href="#DejaVuSerif-19" transform="translate(95.40625 0)"/>
      </g>
     </g>
    </g>
    <g id="ytick_4">
     <g id="line2d_9">
      <path d="M 396.74575 225.935766 
C 396.74575 207.404058 393.095407 189.052547 386.00363 171.93148 
C 378.911852 154.810414 368.516556 139.252754 355.412659 126.148857 
C 342.308762 113.044961 326.751102 102.649665 309.630036 95.557887 
C 292.50897 88.466109 274.157459 84.815766 255.62575 84.815766 
C 237.094041 84.815766 218.74253 88.466109 201.621464 95.557887 
C 184.500398 102.649665 168.942738 113.044961 155.838841 126.148857 
C 142.734944 139.252754 132.339648 154.810414 125.24787 171.93148 
C 118.156093 189.052547 114.50575 207.404058 114.50575 225.935766 
C 114.50575 244.467475 118.156093 262.818986 125.24787 279.940052 
C 132.339648 297.061119 142.734944 312.618779 155.838841 325.722675 
C 168.942738 338.826572 184.500398 349.221868 201.621464 356.313646 
C 218.74253 363.405424 237.094041 367.055766 255.62575 367.055766 
C 274.157459 367.055766 292.50897 363.405424 309.630036 356.313646 
C 326.751102 349.221868 342.308762 338.826572 355.412659 325.722675 
C 368.516556 312.618779 378.911852 297.061119 386.00363 279.940052 
C 393.095407 262.818986 396.74575 244.467475 396.74575 225.935766 
" clip-path="url(#pa0565a0eb5)" style="fill: none; stroke-dasharray: 2.96,1.28; stroke-dashoffset: 0; stroke: #b0b0b0; stroke-opacity: 0.3; stroke-width: 0.8"/>
     </g>
     <g id="text_9">
      <!-- 0.8 -->
      <g style="fill: #808080" transform="translate(396.74575 224.013891) scale(0.08 -0.08)">
       <defs>
        <path id="DejaVuSerif-1b" d="M 2981 1275 
Q 2981 1775 2732 2051 
Q 2484 2328 2034 2328 
Q 1584 2328 1336 2051 
Q 1088 1775 1088 1275 
Q 1088 772 1336 495 
Q 1584 219 2034 219 
Q 2484 219 2732 495 
Q 2981 772 2981 1275 
z
M 2853 3541 
Q 2853 3966 2637 4203 
Q 2422 4441 2034 4441 
Q 1650 4441 1433 4203 
Q 1216 3966 1216 3541 
Q 1216 3113 1433 2875 
Q 1650 2638 2034 2638 
Q 2422 2638 2637 2875 
Q 2853 3113 2853 3541 
z
M 2516 2484 
Q 3047 2413 3344 2092 
Q 3641 1772 3641 1275 
Q 3641 619 3225 264 
Q 2809 -91 2034 -91 
Q 1263 -91 845 264 
Q 428 619 428 1275 
Q 428 1772 725 2092 
Q 1022 2413 1556 2484 
Q 1084 2569 832 2842 
Q 581 3116 581 3541 
Q 581 4103 968 4426 
Q 1356 4750 2034 4750 
Q 2713 4750 3100 4426 
Q 3488 4103 3488 3541 
Q 3488 3116 3236 2842 
Q 2984 2569 2516 2484 
z
" transform="scale(0.015625)"/>
       </defs>
       <use xlink:href="#DejaVuSerif-13"/>
       <use xlink:href="#DejaVuSerif-11" transform="translate(63.625 0)"/>
       <use xlink:href="#DejaVuSerif-1b" transform="translate(95.40625 0)"/>
      </g>
     </g>
    </g>
    <g id="ytick_5">
     <g id="line2d_10">
      <path d="M 432.02575 225.935766 
C 432.02575 202.771131 427.462822 179.831742 418.5981 158.430409 
C 409.733377 137.029076 396.739257 117.582001 380.359386 101.20213 
C 363.979515 84.822259 344.53244 71.828139 323.131107 62.963417 
C 301.729775 54.098695 278.790386 49.535766 255.62575 49.535766 
C 232.461114 49.535766 209.521725 54.098695 188.120393 62.963417 
C 166.71906 71.828139 147.271985 84.822259 130.892114 101.20213 
C 114.512243 117.582001 101.518123 137.029076 92.6534 158.430409 
C 83.788678 179.831742 79.22575 202.771131 79.22575 225.935766 
C 79.22575 249.100402 83.788678 272.039791 92.6534 293.441124 
C 101.518123 314.842457 114.512243 334.289532 130.892114 350.669403 
C 147.271985 367.049274 166.71906 380.043394 188.120393 388.908116 
C 209.521725 397.772838 232.461114 402.335766 255.62575 402.335766 
C 278.790386 402.335766 301.729775 397.772838 323.131107 388.908116 
C 344.53244 380.043394 363.979515 367.049274 380.359386 350.669403 
C 396.739257 334.289532 409.733377 314.842457 418.5981 293.441124 
C 427.462822 272.039791 432.02575 249.100402 432.02575 225.935766 
" clip-path="url(#pa0565a0eb5)" style="fill: none; stroke-dasharray: 2.96,1.28; stroke-dashoffset: 0; stroke: #b0b0b0; stroke-opacity: 0.3; stroke-width: 0.8"/>
     </g>
     <g id="text_10">
      <!-- 1.0 -->
      <g style="fill: #808080" transform="translate(432.02575 224.013891) scale(0.08 -0.08)">
       <defs>
        <path id="DejaVuSerif-14" d="M 909 0 
L 909 331 
L 1722 331 
L 1722 4213 
L 781 3603 
L 781 4013 
L 1919 4750 
L 2350 4750 
L 2350 331 
L 3163 331 
L 3163 0 
L 909 0 
z
" transform="scale(0.015625)"/>
       </defs>
       <use xlink:href="#DejaVuSerif-14"/>
       <use xlink:href="#DejaVuSerif-11" transform="translate(63.625 0)"/>
       <use xlink:href="#DejaVuSerif-13" transform="translate(95.40625 0)"/>
      </g>
     </g>
    </g>
   </g>
   <g id="line2d_11">
    <path d="M 303.144155 225.935766 
L 278.241974 156.330186 
L 112.915152 122.250448 
L 112.915152 329.621085 
L 307.872239 386.733927 
L 303.144155 225.935766 
" clip-path="url(#pa0565a0eb5)" style="fill: none; stroke: #7f8c8d; stroke-width: 2; stroke-linecap: square"/>
   </g>
   <g id="line2d_12">
    <path d="M 303.144155 225.935766 
L 278.241974 156.330186 
L 112.977615 122.295829 
L 112.915152 329.621085 
L 307.872239 386.733927 
L 303.144155 225.935766 
" clip-path="url(#pa0565a0eb5)" style="fill: none; stroke: #95a5a6; stroke-width: 2; stroke-linecap: square"/>
   </g>
   <g id="line2d_13">
    <path d="M 371.16956 225.935766 
L 279.630375 152.057128 
L 115.797553 124.344635 
L 112.915152 329.621085 
L 293.028801 341.050521 
L 371.16956 225.935766 
" clip-path="url(#pa0565a0eb5)" style="fill: none; stroke: #3498db; stroke-width: 2; stroke-linecap: square"/>
   </g>
   <g id="line2d_14">
    <path d="M 290.90575 225.935766 
L 272.093672 175.252714 
L 114.908018 123.698349 
L 112.915152 329.621085 
L 310.136348 393.702136 
L 290.90575 225.935766 
" clip-path="url(#pa0565a0eb5)" style="fill: none; stroke: #f1c40f; stroke-width: 2; stroke-linecap: square"/>
   </g>
   <g id="line2d_15">
    <path d="M 432.02575 225.935766 
L 310.136348 58.169397 
L 123.981718 130.290779 
L 112.915152 329.621085 
L 266.52787 259.48904 
L 432.02575 225.935766 
" clip-path="url(#pa0565a0eb5)" style="fill: none; stroke: #e74c3c; stroke-width: 2; stroke-linecap: square"/>
   </g>
   <g id="line2d_16">
    <path d="M 376.104204 225.935766 
L 266.52787 192.382493 
L 227.08363 205.198703 
L 112.915152 329.621085 
L 292.430706 339.209773 
L 376.104204 225.935766 
" clip-path="url(#pa0565a0eb5)" style="fill: none; stroke: #2ecc71; stroke-width: 2; stroke-linecap: square"/>
   </g>
   <g id="patch_9">
    <path d="M 449.66575 225.935766 
C 449.66575 200.454667 444.646529 175.221339 434.895334 151.679873 
C 425.14414 128.138407 410.850608 106.746625 392.83275 88.728767 
C 374.814892 70.710908 353.423109 56.417376 329.881643 46.666182 
C 306.340177 36.914987 281.106849 31.895766 255.62575 31.895766 
C 230.144651 31.895766 204.911323 36.914987 181.369857 46.666182 
C 157.828391 56.417376 136.436608 70.710908 118.41875 88.728767 
C 100.400892 106.746625 86.10736 128.138407 76.356166 151.679873 
C 66.604971 175.221339 61.58575 200.454667 61.58575 225.935766 
C 61.58575 251.416866 66.604971 276.650193 76.356166 300.19166 
C 86.10736 323.733126 100.400892 345.124908 118.41875 363.142766 
C 136.436608 381.160624 157.828391 395.454156 181.369857 405.205351 
C 204.911323 414.956545 230.144651 419.975766 255.62575 419.975766 
C 281.106849 419.975766 306.340177 414.956545 329.881643 405.205351 
C 353.423109 395.454156 374.814892 381.160624 392.83275 363.142766 
C 410.850608 345.124908 425.14414 323.733126 434.895334 300.19166 
C 444.646529 276.650193 449.66575 251.416866 449.66575 225.935766 
" style="fill: none; stroke: #000000; stroke-width: 0.8; stroke-linejoin: miter; stroke-linecap: square"/>
   </g>
   <g id="text_11">
    <!-- Multi-Objective Performance Envelope (Normalized) -->
    <g transform="translate(82.380437 17.077969) scale(0.13 -0.13)">
     <defs>
      <path id="DejaVuSerif-30" d="M 353 0 
L 353 331 
L 947 331 
L 947 4331 
L 319 4331 
L 319 4666 
L 1678 4666 
L 3316 1344 
L 4953 4666 
L 6228 4666 
L 6228 4331 
L 5606 4331 
L 5606 331 
L 6203 331 
L 6203 0 
L 4378 0 
L 4378 331 
L 4972 331 
L 4972 3938 
L 3372 684 
L 2931 684 
L 1331 3938 
L 1331 331 
L 1925 331 
L 1925 0 
L 353 0 
z
" transform="scale(0.015625)"/>
      <path id="DejaVuSerif-10" d="M 281 1959 
L 1881 1959 
L 1881 1472 
L 281 1472 
L 281 1959 
z
" transform="scale(0.015625)"/>
      <path id="DejaVuSerif-32" d="M 2625 244 
Q 3391 244 3781 770 
Q 4172 1297 4172 2328 
Q 4172 3363 3781 3889 
Q 3391 4416 2625 4416 
Q 1856 4416 1465 3889 
Q 1075 3363 1075 2328 
Q 1075 1297 1465 770 
Q 1856 244 2625 244 
z
M 2625 -91 
Q 2150 -91 1751 65 
Q 1353 222 1050 525 
Q 700 875 529 1319 
Q 359 1763 359 2328 
Q 359 2894 529 3339 
Q 700 3784 1050 4134 
Q 1356 4441 1750 4595 
Q 2144 4750 2625 4750 
Q 3641 4750 4266 4084 
Q 4891 3419 4891 2328 
Q 4891 1769 4719 1320 
Q 4547 872 4197 525 
Q 3891 219 3497 64 
Q 3103 -91 2625 -91 
z
" transform="scale(0.015625)"/>
      <path id="DejaVuSerif-4d" d="M 641 4353 
Q 641 4497 745 4603 
Q 850 4709 997 4709 
Q 1141 4709 1245 4603 
Q 1350 4497 1350 4353 
Q 1350 4206 1248 4103 
Q 1147 4000 997 4000 
Q 850 4000 745 4103 
Q 641 4206 641 4353 
z
M 781 2988 
L 238 2988 
L 238 3322 
L 1356 3322 
L 1356 -325 
Q 1356 -838 1051 -1130 
Q 747 -1422 213 -1422 
Q -13 -1422 -217 -1370 
Q -422 -1319 -616 -1216 
L -616 -531 
L -319 -531 
Q -297 -831 -164 -972 
Q -31 -1113 225 -1113 
Q 509 -1113 645 -920 
Q 781 -728 781 -325 
L 781 2988 
z
" transform="scale(0.015625)"/>
      <path id="DejaVuSerif-33" d="M 1581 2375 
L 2406 2375 
Q 2872 2375 3115 2626 
Q 3359 2878 3359 3353 
Q 3359 3831 3115 4081 
Q 2872 4331 2406 4331 
L 1581 4331 
L 1581 2375 
z
M 353 0 
L 353 331 
L 947 331 
L 947 4331 
L 353 4331 
L 353 4666 
L 2559 4666 
Q 3259 4666 3668 4311 
Q 4078 3956 4078 3353 
Q 4078 2753 3668 2397 
Q 3259 2041 2559 2041 
L 1581 2041 
L 1581 331 
L 2303 331 
L 2303 0 
L 353 0 
z
" transform="scale(0.015625)"/>
      <path id="DejaVuSerif-49" d="M 2753 4078 
L 2450 4078 
Q 2447 4313 2317 4434 
Q 2188 4556 1941 4556 
Q 1619 4556 1487 4379 
Q 1356 4203 1356 3750 
L 1356 3322 
L 2284 3322 
L 2284 2988 
L 1356 2988 
L 1356 331 
L 2094 331 
L 2094 0 
L 231 0 
L 231 331 
L 781 331 
L 781 2988 
L 231 2988 
L 231 3322 
L 781 3322 
L 781 3738 
Q 781 4294 1070 4578 
Q 1359 4863 1919 4863 
Q 2128 4863 2337 4825 
Q 2547 4788 2753 4709 
L 2753 4078 
z
" transform="scale(0.015625)"/>
      <path id="DejaVuSerif-b" d="M 2041 -997 
Q 1281 -656 893 83 
Q 506 822 506 1931 
Q 506 3044 893 3783 
Q 1281 4522 2041 4863 
L 2041 4556 
Q 1559 4225 1350 3623 
Q 1141 3022 1141 1931 
Q 1141 844 1350 242 
Q 1559 -359 2041 -691 
L 2041 -997 
z
" transform="scale(0.015625)"/>
      <path id="DejaVuSerif-31" d="M 313 0 
L 313 331 
L 941 331 
L 941 4331 
L 313 4331 
L 313 4666 
L 1509 4666 
L 4306 984 
L 4306 4331 
L 3681 4331 
L 3681 4666 
L 5319 4666 
L 5319 4331 
L 4691 4331 
L 4691 -91 
L 4313 -91 
L 1325 3841 
L 1325 331 
L 1953 331 
L 1953 0 
L 313 0 
z
" transform="scale(0.015625)"/>
      <path id="DejaVuSerif-5d" d="M 256 0 
L 256 269 
L 2338 2988 
L 691 2988 
L 691 2413 
L 359 2413 
L 359 3322 
L 3078 3322 
L 3078 3053 
L 997 331 
L 2803 331 
L 2803 934 
L 3138 934 
L 3138 0 
L 256 0 
z
" transform="scale(0.015625)"/>
      <path id="DejaVuSerif-c" d="M 453 -997 
L 453 -691 
Q 934 -359 1145 242 
Q 1356 844 1356 1931 
Q 1356 3022 1145 3623 
Q 934 4225 453 4556 
L 453 4863 
Q 1216 4522 1603 3783 
Q 1991 3044 1991 1931 
Q 1991 822 1603 83 
Q 1216 -656 453 -997 
z
" transform="scale(0.015625)"/>
     </defs>
     <use xlink:href="#DejaVuSerif-30"/>
     <use xlink:href="#DejaVuSerif-58" transform="translate(102.390625 0)"/>
     <use xlink:href="#DejaVuSerif-4f" transform="translate(166.796875 0)"/>
     <use xlink:href="#DejaVuSerif-57" transform="translate(198.78125 0)"/>
     <use xlink:href="#DejaVuSerif-4c" transform="translate(238.96875 0)"/>
     <use xlink:href="#DejaVuSerif-10" transform="translate(270.953125 0)"/>
     <use xlink:href="#DejaVuSerif-32" transform="translate(304.75 0)"/>
     <use xlink:href="#DejaVuSerif-45" transform="translate(386.734375 0)"/>
     <use xlink:href="#DejaVuSerif-4d" transform="translate(450.75 0)"/>
     <use xlink:href="#DejaVuSerif-48" transform="translate(481.75 0)"/>
     <use xlink:href="#DejaVuSerif-46" transform="translate(540.9375 0)"/>
     <use xlink:href="#DejaVuSerif-57" transform="translate(596.9375 0)"/>
     <use xlink:href="#DejaVuSerif-4c" transform="translate(637.125 0)"/>
     <use xlink:href="#DejaVuSerif-59" transform="translate(669.109375 0)"/>
     <use xlink:href="#DejaVuSerif-48" transform="translate(725.609375 0)"/>
     <use xlink:href="#DejaVuSerif-3" transform="translate(784.796875 0)"/>
     <use xlink:href="#DejaVuSerif-33" transform="translate(816.578125 0)"/>
     <use xlink:href="#DejaVuSerif-48" transform="translate(879.375 0)"/>
     <use xlink:href="#DejaVuSerif-55" transform="translate(938.5625 0)"/>
     <use xlink:href="#DejaVuSerif-49" transform="translate(986.359375 0)"/>
     <use xlink:href="#DejaVuSerif-52" transform="translate(1023.375 0)"/>
     <use xlink:href="#DejaVuSerif-55" transform="translate(1083.578125 0)"/>
     <use xlink:href="#DejaVuSerif-50" transform="translate(1131.375 0)"/>
     <use xlink:href="#DejaVuSerif-44" transform="translate(1226.203125 0)"/>
     <use xlink:href="#DejaVuSerif-51" transform="translate(1285.828125 0)"/>
     <use xlink:href="#DejaVuSerif-46" transform="translate(1350.234375 0)"/>
     <use xlink:href="#DejaVuSerif-48" transform="translate(1406.234375 0)"/>
     <use xlink:href="#DejaVuSerif-3" transform="translate(1465.421875 0)"/>
     <use xlink:href="#DejaVuSerif-28" transform="translate(1497.203125 0)"/>
     <use xlink:href="#DejaVuSerif-51" transform="translate(1570.203125 0)"/>
     <use xlink:href="#DejaVuSerif-59" transform="translate(1634.609375 0)"/>
     <use xlink:href="#DejaVuSerif-48" transform="translate(1691.109375 0)"/>
     <use xlink:href="#DejaVuSerif-4f" transform="translate(1750.296875 0)"/>
     <use xlink:href="#DejaVuSerif-52" transform="translate(1782.28125 0)"/>
     <use xlink:href="#DejaVuSerif-53" transform="translate(1842.484375 0)"/>
     <use xlink:href="#DejaVuSerif-48" transform="translate(1906.5 0)"/>
     <use xlink:href="#DejaVuSerif-3" transform="translate(1965.6875 0)"/>
     <use xlink:href="#DejaVuSerif-b" transform="translate(1997.46875 0)"/>
     <use xlink:href="#DejaVuSerif-31" transform="translate(2036.484375 0)"/>
     <use xlink:href="#DejaVuSerif-52" transform="translate(2123.984375 0)"/>
     <use xlink:href="#DejaVuSerif-55" transform="translate(2184.1875 0)"/>
     <use xlink:href="#DejaVuSerif-50" transform="translate(2231.984375 0)"/>
     <use xlink:href="#DejaVuSerif-44" transform="translate(2326.8125 0)"/>
     <use xlink:href="#DejaVuSerif-4f" transform="translate(2386.4375 0)"/>
     <use xlink:href="#DejaVuSerif-4c" transform="translate(2418.421875 0)"/>
     <use xlink:href="#DejaVuSerif-5d" transform="translate(2450.40625 0)"/>
     <use xlink:href="#DejaVuSerif-48" transform="translate(2503.09375 0)"/>
     <use xlink:href="#DejaVuSerif-47" transform="translate(2562.28125 0)"/>
     <use xlink:href="#DejaVuSerif-c" transform="translate(2626.296875 0)"/>
    </g>
   </g>
   <g id="legend_1">
    <g id="patch_10">
     <path d="M 9.2 479.172454 
L 93.39375 479.172454 
Q 95.39375 479.172454 95.39375 477.172454 
L 95.39375 388.167766 
Q 95.39375 386.167766 93.39375 386.167766 
L 9.2 386.167766 
Q 7.2 386.167766 7.2 388.167766 
L 7.2 477.172454 
Q 7.2 479.172454 9.2 479.172454 
z
" style="fill: #ffffff; opacity: 0.8; stroke: #cccccc; stroke-linejoin: miter"/>
    </g>
    <g id="line2d_17">
     <path d="M 11.2 394.266204 
L 21.2 394.266204 
L 31.2 394.266204 
" style="fill: none; stroke: #7f8c8d; stroke-width: 2; stroke-linecap: square"/>
    </g>
    <g id="text_12">
     <!-- Dijkstra -->
     <g transform="translate(39.2 397.766204) scale(0.1 -0.1)">
      <defs>
       <path id="DejaVuSerif-27" d="M 1581 331 
L 2163 331 
Q 3072 331 3558 850 
Q 4044 1369 4044 2338 
Q 4044 3306 3559 3818 
Q 3075 4331 2163 4331 
L 1581 4331 
L 1581 331 
z
M 353 0 
L 353 331 
L 947 331 
L 947 4331 
L 353 4331 
L 353 4666 
L 2209 4666 
Q 3416 4666 4089 4050 
Q 4763 3434 4763 2338 
Q 4763 1238 4088 619 
Q 3413 0 2209 0 
L 353 0 
z
" transform="scale(0.015625)"/>
       <path id="DejaVuSerif-4e" d="M 1831 0 
L 219 0 
L 219 331 
L 738 331 
L 738 4531 
L 184 4531 
L 184 4863 
L 1313 4863 
L 1313 1697 
L 2713 2988 
L 2234 2988 
L 2234 3322 
L 3738 3322 
L 3738 2988 
L 3169 2988 
L 2181 2075 
L 3444 331 
L 3922 331 
L 3922 0 
L 2284 0 
L 2284 331 
L 2759 331 
L 1766 1697 
L 1313 1275 
L 1313 331 
L 1831 331 
L 1831 0 
z
" transform="scale(0.015625)"/>
      </defs>
      <use xlink:href="#DejaVuSerif-27"/>
      <use xlink:href="#DejaVuSerif-4c" transform="translate(80.171875 0)"/>
      <use xlink:href="#DejaVuSerif-4d" transform="translate(112.15625 0)"/>
      <use xlink:href="#DejaVuSerif-4e" transform="translate(143.15625 0)"/>
      <use xlink:href="#DejaVuSerif-56" transform="translate(203.75 0)"/>
      <use xlink:href="#DejaVuSerif-57" transform="translate(255.0625 0)"/>
      <use xlink:href="#DejaVuSerif-55" transform="translate(295.25 0)"/>
      <use xlink:href="#DejaVuSerif-44" transform="translate(343.046875 0)"/>
     </g>
    </g>
    <g id="line2d_18">
     <path d="M 11.2 409.266985 
L 21.2 409.266985 
L 31.2 409.266985 
" style="fill: none; stroke: #95a5a6; stroke-width: 2; stroke-linecap: square"/>
    </g>
    <g id="text_13">
     <!-- AStar -->
     <g transform="translate(39.2 412.766985) scale(0.1 -0.1)">
      <defs>
       <path id="DejaVuSerif-24" d="M 1281 1691 
L 2994 1691 
L 2138 3909 
L 1281 1691 
z
M -38 0 
L -38 331 
L 372 331 
L 2034 4666 
L 2559 4666 
L 4225 331 
L 4684 331 
L 4684 0 
L 2988 0 
L 2988 331 
L 3506 331 
L 3116 1356 
L 1153 1356 
L 763 331 
L 1275 331 
L 1275 0 
L -38 0 
z
" transform="scale(0.015625)"/>
      </defs>
      <use xlink:href="#DejaVuSerif-24"/>
      <use xlink:href="#DejaVuSerif-36" transform="translate(72.21875 0)"/>
      <use xlink:href="#DejaVuSerif-57" transform="translate(140.71875 0)"/>
      <use xlink:href="#DejaVuSerif-44" transform="translate(180.90625 0)"/>
      <use xlink:href="#DejaVuSerif-55" transform="translate(240.53125 0)"/>
     </g>
    </g>
    <g id="line2d_19">
     <path d="M 11.2 424.267766 
L 21.2 424.267766 
L 31.2 424.267766 
" style="fill: none; stroke: #3498db; stroke-width: 2; stroke-linecap: square"/>
    </g>
    <g id="text_14">
     <!-- ACO -->
     <g transform="translate(39.2 427.767766) scale(0.1 -0.1)">
      <defs>
       <path id="DejaVuSerif-26" d="M 4513 1234 
Q 4306 581 3820 245 
Q 3334 -91 2591 -91 
Q 2134 -91 1743 65 
Q 1353 222 1050 525 
Q 700 875 529 1320 
Q 359 1766 359 2328 
Q 359 3416 987 4083 
Q 1616 4750 2644 4750 
Q 3025 4750 3456 4650 
Q 3888 4550 4384 4347 
L 4384 3272 
L 4031 3272 
Q 3916 3859 3567 4137 
Q 3219 4416 2591 4416 
Q 1844 4416 1459 3886 
Q 1075 3356 1075 2328 
Q 1075 1303 1459 773 
Q 1844 244 2591 244 
Q 3113 244 3450 492 
Q 3788 741 3938 1234 
L 4513 1234 
z
" transform="scale(0.015625)"/>
      </defs>
      <use xlink:href="#DejaVuSerif-24"/>
      <use xlink:href="#DejaVuSerif-26" transform="translate(72.21875 0)"/>
      <use xlink:href="#DejaVuSerif-32" transform="translate(148.734375 0)"/>
     </g>
    </g>
    <g id="line2d_20">
     <path d="M 11.2 439.268548 
L 21.2 439.268548 
L 31.2 439.268548 
" style="fill: none; stroke: #f1c40f; stroke-width: 2; stroke-linecap: square"/>
    </g>
    <g id="text_15">
     <!-- BCO -->
     <g transform="translate(39.2 442.768548) scale(0.1 -0.1)">
      <defs>
       <path id="DejaVuSerif-25" d="M 1581 331 
L 2516 331 
Q 3078 331 3337 575 
Q 3597 819 3597 1350 
Q 3597 1878 3339 2120 
Q 3081 2363 2516 2363 
L 1581 2363 
L 1581 331 
z
M 1581 2694 
L 2375 2694 
Q 2888 2694 3123 2891 
Q 3359 3088 3359 3513 
Q 3359 3941 3123 4136 
Q 2888 4331 2375 4331 
L 1581 4331 
L 1581 2694 
z
M 353 0 
L 353 331 
L 947 331 
L 947 4331 
L 353 4331 
L 353 4666 
L 2656 4666 
Q 3363 4666 3720 4377 
Q 4078 4088 4078 3513 
Q 4078 3097 3829 2850 
Q 3581 2603 3103 2547 
Q 3697 2472 4005 2167 
Q 4313 1863 4313 1350 
Q 4313 656 3875 328 
Q 3438 0 2509 0 
L 353 0 
z
" transform="scale(0.015625)"/>
      </defs>
      <use xlink:href="#DejaVuSerif-25"/>
      <use xlink:href="#DejaVuSerif-26" transform="translate(75.34375 0)"/>
      <use xlink:href="#DejaVuSerif-32" transform="translate(151.859375 0)"/>
     </g>
    </g>
    <g id="line2d_21">
     <path d="M 11.2 454.269329 
L 21.2 454.269329 
L 31.2 454.269329 
" style="fill: none; stroke: #e74c3c; stroke-width: 2; stroke-linecap: square"/>
    </g>
    <g id="text_16">
     <!-- PSO -->
     <g transform="translate(39.2 457.769329) scale(0.1 -0.1)">
      <use xlink:href="#DejaVuSerif-33"/>
      <use xlink:href="#DejaVuSerif-36" transform="translate(67.28125 0)"/>
      <use xlink:href="#DejaVuSerif-32" transform="translate(135.78125 0)"/>
     </g>
    </g>
    <g id="line2d_22">
     <path d="M 11.2 469.27011 
L 21.2 469.27011 
L 31.2 469.27011 
" style="fill: none; stroke: #2ecc71; stroke-width: 2; stroke-linecap: square"/>
    </g>
    <g id="text_17">
     <!-- E3-Hybrid -->
     <g transform="translate(39.2 472.77011) scale(0.1 -0.1)">
      <defs>
       <path id="DejaVuSerif-16" d="M 622 4469 
Q 988 4606 1323 4678 
Q 1659 4750 1953 4750 
Q 2638 4750 3022 4454 
Q 3406 4159 3406 3634 
Q 3406 3213 3140 2930 
Q 2875 2647 2388 2547 
Q 2963 2466 3280 2130 
Q 3597 1794 3597 1259 
Q 3597 606 3158 257 
Q 2719 -91 1894 -91 
Q 1528 -91 1179 -12 
Q 831 66 488 225 
L 488 1131 
L 838 1131 
Q 869 681 1141 450 
Q 1413 219 1906 219 
Q 2384 219 2661 495 
Q 2938 772 2938 1253 
Q 2938 1803 2653 2086 
Q 2369 2369 1819 2369 
L 1522 2369 
L 1522 2688 
L 1678 2688 
Q 2225 2688 2498 2914 
Q 2772 3141 2772 3597 
Q 2772 4006 2547 4223 
Q 2322 4441 1900 4441 
Q 1478 4441 1245 4241 
Q 1013 4041 972 3647 
L 622 3647 
L 622 4469 
z
" transform="scale(0.015625)"/>
       <path id="DejaVuSerif-2b" d="M 353 0 
L 353 331 
L 947 331 
L 947 4331 
L 353 4331 
L 353 4666 
L 2175 4666 
L 2175 4331 
L 1581 4331 
L 1581 2719 
L 4000 2719 
L 4000 4331 
L 3406 4331 
L 3406 4666 
L 5228 4666 
L 5228 4331 
L 4634 4331 
L 4634 331 
L 5228 331 
L 5228 0 
L 3406 0 
L 3406 331 
L 4000 331 
L 4000 2338 
L 1581 2338 
L 1581 331 
L 2175 331 
L 2175 0 
L 353 0 
z
" transform="scale(0.015625)"/>
      </defs>
      <use xlink:href="#DejaVuSerif-28"/>
      <use xlink:href="#DejaVuSerif-16" transform="translate(73 0)"/>
      <use xlink:href="#DejaVuSerif-10" transform="translate(136.625 0)"/>
      <use xlink:href="#DejaVuSerif-2b" transform="translate(170.421875 0)"/>
      <use xlink:href="#DejaVuSerif-5c" transform="translate(257.625 0)"/>
      <use xlink:href="#DejaVuSerif-45" transform="translate(314.125 0)"/>
      <use xlink:href="#DejaVuSerif-55" transform="translate(378.140625 0)"/>
      <use xlink:href="#DejaVuSerif-4c" transform="translate(425.9375 0)"/>
      <use xlink:href="#DejaVuSerif-47" transform="translate(457.921875 0)"/>
     </g>
    </g>
   </g>
  </g>
 </g>
 <defs>
  <clipPath id="pa0565a0eb5">
   <path d="M 449.66575 225.935766 
C 449.66575 200.454667 444.646529 175.221339 434.895334 151.679873 
C 425.14414 128.138407 410.850608 106.746625 392.83275 88.728767 
C 374.814892 70.710908 353.423109 56.417376 329.881643 46.666182 
C 306.340177 36.914987 281.106849 31.895766 255.62575 31.895766 
C 230.144651 31.895766 204.911323 36.914987 181.369857 46.666182 
C 157.828391 56.417376 136.436608 70.710908 118.41875 88.728767 
C 100.400892 106.746625 86.10736 128.138407 76.356166 151.679873 
C 66.604971 175.221339 61.58575 200.454667 61.58575 225.935766 
C 61.58575 251.416866 66.604971 276.650193 76.356166 300.19166 
C 86.10736 323.733126 100.400892 345.124908 118.41875 363.142766 
C 136.436608 381.160624 157.828391 395.454156 181.369857 405.205351 
C 204.911323 414.956545 230.144651 419.975766 255.62575 419.975766 
C 281.106849 419.975766 306.340177 414.956545 329.881643 405.205351 
C 353.423109 395.454156 374.814892 381.160624 392.83275 363.142766 
C 410.850608 345.124908 425.14414 323.733126 434.895334 300.19166 
C 444.646529 276.650193 449.66575 251.416866 449.66575 225.935766 
M 255.62575 225.935766 
C 255.62575 225.935766 255.62575 225.935766 255.62575 225.935766 
C 255.62575 225.935766 255.62575 225.935766 255.62575 225.935766 
C 255.62575 225.935766 255.62575 225.935766 255.62575 225.935766 
C 255.62575 225.935766 255.62575 225.935766 255.62575 225.935766 
C 255.62575 225.935766 255.62575 225.935766 255.62575 225.935766 
C 255.62575 225.935766 255.62575 225.935766 255.62575 225.935766 
C 255.62575 225.935766 255.62575 225.935766 255.62575 225.935766 
C 255.62575 225.935766 255.62575 225.935766 255.62575 225.935766 
C 255.62575 225.935766 255.62575 225.935766 255.62575 225.935766 
C 255.62575 225.935766 255.62575 225.935766 255.62575 225.935766 
C 255.62575 225.935766 255.62575 225.935766 255.62575 225.935766 
C 255.62575 225.935766 255.62575 225.935766 255.62575 225.935766 
C 255.62575 225.935766 255.62575 225.935766 255.62575 225.935766 
C 255.62575 225.935766 255.62575 225.935766 255.62575 225.935766 
C 255.62575 225.935766 255.62575 225.935766 255.62575 225.935766 
C 255.62575 225.935766 255.62575 225.935766 255.62575 225.935766 
z
"/>
  </clipPath>
 </defs>
</svg>
