<?xml version="1.0" encoding="utf-8" standalone="no"?>
<!DOCTYPE svg PUBLIC "-//W3C//DTD SVG 1.1//EN"
  "http://www.w3.org/Graphics/SVG/1.1/DTD/svg11.dtd">
<svg xmlns:xlink="http://www.w3.org/1999/xlink" width="551.392313pt" height="471.371673pt" viewBox="0 0 551.392313 471.371673" xmlns="http://www.w3.org/2000/svg" version="1.1">
 <metadata>
  <rdf:RDF xmlns:dc="http://purl.org/dc/elements/1.1/" xmlns:cc="http://creativecommons.org/ns#" xmlns:rdf="http://www.w3.org/1999/02/22-rdf-syntax-ns#">
   <cc:Work>
    <dc:type rdf:resource="http://purl.org/dc/dcmitype/StillImage"/>
    <dc:date>2026-07-15T18:55:58.515663</dc:date>
    <dc:format>image/svg+xml</dc:format>
    <dc:creator>
     <cc:Agent>
      <dc:title>Matplotlib v3.11.0, https://matplotlib.org/</dc:title>
     </cc:Agent>
    </dc:creator>
   </cc:Work>
  </rdf:RDF>
 </metadata>
 <defs>
  <style type="text/css">*{stroke-linejoin: round; stroke-linecap: butt}</style>
 </defs>
 <g id="figure_1">
  <g id="patch_1">
   <path d="M 0 471.371673 
L 551.392313 471.371673 
L 551.392313 0 
L 0 0 
z
" style="fill: #ffffff"/>
  </g>
  <g id="axes_1">
   <g id="patch_2">
    <path d="M 499.87825 225.935766 
C 499.87825 200.454667 494.859029 175.221339 485.107834 151.679873 
C 475.35664 128.138407 461.063108 106.746625 443.04525 88.728767 
C 425.027392 70.710908 403.635609 56.417376 380.094143 46.666182 
C 356.552677 36.914987 331.319349 31.895766 305.83825 31.895766 
C 280.357151 31.895766 255.123823 36.914987 231.582357 46.666182 
C 208.040891 56.417376 186.649108 70.710908 168.63125 88.728767 
C 150.613392 106.746625 136.31986 128.138407 126.568666 151.679873 
C 116.817471 175.221339 111.79825 200.454667 111.79825 225.935766 
C 111.79825 251.416866 116.817471 276.650193 126.568666 300.19166 
C 136.31986 323.733126 150.613392 345.124908 168.63125 363.142766 
C 186.649108 381.160624 208.040891 395.454156 231.582357 405.205351 
C 255.123823 414.956545 280.357151 419.975766 305.83825 419.975766 
C 331.319349 419.975766 356.552677 414.956545 380.094143 405.205351 
C 403.635609 395.454156 425.027392 381.160624 443.04525 363.142766 
C 461.063108 345.124908 475.35664 323.733126 485.107834 300.19166 
C 494.859029 276.650193 499.87825 251.416866 499.87825 225.935766 
M 305.83825 225.935766 
C 305.83825 225.935766 305.83825 225.935766 305.83825 225.935766 
C 305.83825 225.935766 305.83825 225.935766 305.83825 225.935766 
C 305.83825 225.935766 305.83825 225.935766 305.83825 225.935766 
C 305.83825 225.935766 305.83825 225.935766 305.83825 225.935766 
C 305.83825 225.935766 305.83825 225.935766 305.83825 225.935766 
C 305.83825 225.935766 305.83825 225.935766 305.83825 225.935766 
C 305.83825 225.935766 305.83825 225.935766 305.83825 225.935766 
C 305.83825 225.935766 305.83825 225.935766 305.83825 225.935766 
C 305.83825 225.935766 305.83825 225.935766 305.83825 225.935766 
C 305.83825 225.935766 305.83825 225.935766 305.83825 225.935766 
C 305.83825 225.935766 305.83825 225.935766 305.83825 225.935766 
C 305.83825 225.935766 305.83825 225.935766 305.83825 225.935766 
C 305.83825 225.935766 305.83825 225.935766 305.83825 225.935766 
C 305.83825 225.935766 305.83825 225.935766 305.83825 225.935766 
C 305.83825 225.935766 305.83825 225.935766 305.83825 225.935766 
C 305.83825 225.935766 305.83825 225.935766 305.83825 225.935766 
z
" style="fill: #ffffff"/>
   </g>
   <g id="patch_3">
    <path d="M 469.063706 225.935766 
L 316.74037 192.382493 
L 276.177141 204.385709 
L 163.127652 329.621085 
L 316.74037 259.48904 
z
" clip-path="url(#pd4aa570add)" style="fill: #1f77b4; opacity: 0.1; stroke: #1f77b4; stroke-linejoin: miter"/>
   </g>
   <g id="patch_4">
    <path d="M 468.601627 225.935766 
L 343.02484 111.48721 
L 277.29613 205.198703 
L 163.127652 329.621085 
L 324.869044 284.506527 
z
" clip-path="url(#pd4aa570add)" style="fill: #ff7f0e; opacity: 0.1; stroke: #ff7f0e; stroke-linejoin: miter"/>
   </g>
   <g id="patch_5">
    <path d="M 341.11825 225.935766 
L 360.348848 58.169397 
L 163.127652 122.250448 
L 163.127652 329.621085 
L 360.348848 393.702136 
z
" clip-path="url(#pd4aa570add)" style="fill: #2ca02c; opacity: 0.1; stroke: #2ca02c; stroke-linejoin: miter"/>
   </g>
   <g id="patch_6">
    <path d="M 471.836458 225.935766 
L 316.892285 191.914944 
L 270.251759 200.080667 
L 163.127652 329.621085 
L 319.532895 268.08355 
z
" clip-path="url(#pd4aa570add)" style="fill: #d62728; opacity: 0.1; stroke: #d62728; stroke-linejoin: miter"/>
   </g>
   <g id="patch_7">
    <path d="M 482.23825 225.935766 
L 317.81947 189.061362 
L 272.93434 202.029676 
L 163.127652 329.621085 
L 320.182216 270.081954 
z
" clip-path="url(#pd4aa570add)" style="fill: #9467bd; opacity: 0.1; stroke: #9467bd; stroke-linejoin: miter"/>
   </g>
   <g id="matplotlib.axis_1">
    <g id="xtick_1">
     <g id="line2d_1">
      <path d="M 305.83825 225.935766 
L 499.87825 225.935766 
" clip-path="url(#pd4aa570add)" style="fill: none; stroke-dasharray: 2.96,1.28; stroke-dashoffset: 0; stroke: #b0b0b0; stroke-opacity: 0.3; stroke-width: 0.8"/>
     </g>
     <g id="text_1">
      <!-- Travel Time -->
      <g transform="translate(483.564187 228.533813) scale(0.1 -0.1)">
       <defs>
        <path id="DejaVuSerif-37" d="M 1222 0 
L 1222 331 
L 1819 331 
L 1819 4294 
L 447 4294 
L 447 3566 
L 63 3566 
L 63 4666 
L 4206 4666 
L 4206 3566 
L 3822 3566 
L 3822 4294 
L 2450 4294 
L 2450 331 
L 3047 331 
L 3047 0 
L 1222 0 
z
" transform="scale(0.015625)"/>
        <path id="DejaVuSerif-55" d="M 3059 3328 
L 3059 2497 
L 2728 2497 
Q 2713 2744 2591 2866 
Q 2469 2988 2234 2988 
Q 1809 2988 1582 2694 
Q 1356 2400 1356 1850 
L 1356 331 
L 2022 331 
L 2022 0 
L 263 0 
L 263 331 
L 781 331 
L 781 2994 
L 231 2994 
L 231 3322 
L 1356 3322 
L 1356 2731 
Q 1525 3078 1790 3245 
Q 2056 3413 2438 3413 
Q 2578 3413 2733 3391 
Q 2888 3369 3059 3328 
z
" transform="scale(0.015625)"/>
        <path id="DejaVuSerif-44" d="M 2547 1044 
L 2547 1747 
L 1806 1747 
Q 1378 1747 1168 1562 
Q 959 1378 959 997 
Q 959 650 1171 447 
Q 1384 244 1747 244 
Q 2106 244 2326 466 
Q 2547 688 2547 1044 
z
M 3122 2075 
L 3122 331 
L 3634 331 
L 3634 0 
L 2547 0 
L 2547 359 
Q 2356 128 2106 18 
Q 1856 -91 1522 -91 
Q 969 -91 644 203 
Q 319 497 319 997 
Q 319 1513 691 1797 
Q 1063 2081 1741 2081 
L 2547 2081 
L 2547 2309 
Q 2547 2688 2317 2895 
Q 2088 3103 1672 3103 
Q 1328 3103 1125 2947 
Q 922 2791 872 2484 
L 575 2484 
L 575 3156 
Q 875 3284 1158 3348 
Q 1441 3413 1709 3413 
Q 2400 3413 2761 3070 
Q 3122 2728 3122 2075 
z
" transform="scale(0.015625)"/>
        <path id="DejaVuSerif-59" d="M 1581 0 
L 359 2988 
L -19 2988 
L -19 3322 
L 1509 3322 
L 1509 2988 
L 978 2988 
L 1913 703 
L 2847 2988 
L 2350 2988 
L 2350 3322 
L 3597 3322 
L 3597 2988 
L 3225 2988 
L 2003 0 
L 1581 0 
z
" transform="scale(0.015625)"/>
        <path id="DejaVuSerif-48" d="M 3469 1600 
L 991 1600 
L 991 1575 
Q 991 903 1244 561 
Q 1497 219 1991 219 
Q 2369 219 2611 417 
Q 2853 616 2950 1006 
L 3413 1006 
Q 3275 459 2904 184 
Q 2534 -91 1931 -91 
Q 1203 -91 761 389 
Q 319 869 319 1663 
Q 319 2450 753 2931 
Q 1188 3413 1894 3413 
Q 2647 3413 3050 2948 
Q 3453 2484 3469 1600 
z
M 2791 1931 
Q 2772 2513 2545 2808 
Q 2319 3103 1894 3103 
Q 1497 3103 1269 2806 
Q 1041 2509 991 1931 
L 2791 1931 
z
" transform="scale(0.015625)"/>
        <path id="DejaVuSerif-4f" d="M 1313 331 
L 1856 331 
L 1856 0 
L 184 0 
L 184 331 
L 738 331 
L 738 4531 
L 184 4531 
L 184 4863 
L 1313 4863 
L 1313 331 
z
" transform="scale(0.015625)"/>
        <path id="DejaVuSerif-3" transform="scale(0.015625)"/>
        <path id="DejaVuSerif-4c" d="M 622 4353 
Q 622 4497 726 4603 
Q 831 4709 978 4709 
Q 1122 4709 1226 4603 
Q 1331 4497 1331 4353 
Q 1331 4206 1228 4103 
Q 1125 4000 978 4000 
Q 831 4000 726 4103 
Q 622 4206 622 4353 
z
M 1356 331 
L 1900 331 
L 1900 0 
L 231 0 
L 231 331 
L 781 331 
L 781 2988 
L 231 2988 
L 231 3322 
L 1356 3322 
L 1356 331 
z
" transform="scale(0.015625)"/>
        <path id="DejaVuSerif-50" d="M 3316 2675 
Q 3481 3041 3739 3227 
Q 3997 3413 4341 3413 
Q 4863 3413 5119 3089 
Q 5375 2766 5375 2113 
L 5375 331 
L 5894 331 
L 5894 0 
L 4300 0 
L 4300 331 
L 4800 331 
L 4800 2047 
Q 4800 2556 4650 2772 
Q 4500 2988 4153 2988 
Q 3769 2988 3567 2697 
Q 3366 2406 3366 1850 
L 3366 331 
L 3866 331 
L 3866 0 
L 2291 0 
L 2291 331 
L 2791 331 
L 2791 2069 
Q 2791 2566 2641 2777 
Q 2491 2988 2144 2988 
Q 1759 2988 1557 2697 
Q 1356 2406 1356 1850 
L 1356 331 
L 1856 331 
L 1856 0 
L 263 0 
L 263 331 
L 781 331 
L 781 2994 
L 231 2994 
L 231 3322 
L 1356 3322 
L 1356 2731 
Q 1516 3063 1762 3238 
Q 2009 3413 2322 3413 
Q 2709 3413 2968 3220 
Q 3228 3028 3316 2675 
z
" transform="scale(0.015625)"/>
       </defs>
       <use xlink:href="#DejaVuSerif-37"/>
       <use xlink:href="#DejaVuSerif-55" transform="translate(66.703125 0)"/>
       <use xlink:href="#DejaVuSerif-44" transform="translate(114.5 0)"/>
       <use xlink:href="#DejaVuSerif-59" transform="translate(174.125 0)"/>
       <use xlink:href="#DejaVuSerif-48" transform="translate(230.625 0)"/>
       <use xlink:href="#DejaVuSerif-4f" transform="translate(289.8125 0)"/>
       <use xlink:href="#DejaVuSerif-3" transform="translate(321.796875 0)"/>
       <use xlink:href="#DejaVuSerif-37" transform="translate(353.578125 0)"/>
       <use xlink:href="#DejaVuSerif-4c" transform="translate(420.28125 0)"/>
       <use xlink:href="#DejaVuSerif-50" transform="translate(452.265625 0)"/>
       <use xlink:href="#DejaVuSerif-48" transform="translate(547.09375 0)"/>
      </g>
     </g>
    </g>
    <g id="xtick_2">
     <g id="line2d_2">
      <path d="M 305.83825 225.935766 
L 365.799908 41.39276 
" clip-path="url(#pd4aa570add)" style="fill: none; stroke-dasharray: 2.96,1.28; stroke-dashoffset: 0; stroke: #b0b0b0; stroke-opacity: 0.3; stroke-width: 0.8"/>
     </g>
     <g id="text_2">
      <!-- Energy -->
      <g transform="translate(351.880833 30.675625) scale(0.1 -0.1)">
       <defs>
        <path id="DejaVuSerif-28" d="M 353 0 
L 353 331 
L 947 331 
L 947 4331 
L 353 4331 
L 353 4666 
L 4109 4666 
L 4109 3628 
L 3725 3628 
L 3725 4281 
L 1581 4281 
L 1581 2719 
L 3109 2719 
L 3109 3303 
L 3494 3303 
L 3494 1753 
L 3109 1753 
L 3109 2338 
L 1581 2338 
L 1581 384 
L 3775 384 
L 3775 1038 
L 4159 1038 
L 4159 0 
L 353 0 
z
" transform="scale(0.015625)"/>
        <path id="DejaVuSerif-51" d="M 263 0 
L 263 331 
L 781 331 
L 781 2988 
L 231 2988 
L 231 3322 
L 1356 3322 
L 1356 2731 
Q 1516 3069 1770 3241 
Q 2025 3413 2363 3413 
Q 2913 3413 3172 3097 
Q 3431 2781 3431 2113 
L 3431 331 
L 3944 331 
L 3944 0 
L 2356 0 
L 2356 331 
L 2853 331 
L 2853 1931 
Q 2853 2541 2703 2767 
Q 2553 2994 2175 2994 
Q 1775 2994 1565 2701 
Q 1356 2409 1356 1850 
L 1356 331 
L 1856 331 
L 1856 0 
L 263 0 
z
" transform="scale(0.015625)"/>
        <path id="DejaVuSerif-4a" d="M 3359 2988 
L 3359 72 
Q 3359 -644 2965 -1033 
Q 2572 -1422 1844 -1422 
Q 1516 -1422 1216 -1362 
Q 916 -1303 641 -1184 
L 641 -488 
L 941 -488 
Q 997 -813 1206 -963 
Q 1416 -1113 1806 -1113 
Q 2313 -1113 2548 -827 
Q 2784 -541 2784 72 
L 2784 519 
Q 2616 206 2355 57 
Q 2094 -91 1709 -91 
Q 1097 -91 708 395 
Q 319 881 319 1663 
Q 319 2444 706 2928 
Q 1094 3413 1709 3413 
Q 2094 3413 2355 3264 
Q 2616 3116 2784 2803 
L 2784 3322 
L 3909 3322 
L 3909 2988 
L 3359 2988 
z
M 2784 1825 
Q 2784 2422 2554 2737 
Q 2325 3053 1888 3053 
Q 1444 3053 1217 2703 
Q 991 2353 991 1663 
Q 991 975 1217 622 
Q 1444 269 1888 269 
Q 2325 269 2554 583 
Q 2784 897 2784 1497 
L 2784 1825 
z
" transform="scale(0.015625)"/>
        <path id="DejaVuSerif-5c" d="M 1381 -609 
L 1600 -56 
L 359 2988 
L -19 2988 
L -19 3322 
L 1509 3322 
L 1509 2988 
L 978 2988 
L 1913 703 
L 2847 2988 
L 2350 2988 
L 2350 3322 
L 3597 3322 
L 3597 2988 
L 3225 2988 
L 1703 -750 
Q 1547 -1138 1356 -1280 
Q 1166 -1422 819 -1422 
Q 672 -1422 517 -1397 
Q 363 -1372 206 -1325 
L 206 -691 
L 500 -691 
Q 519 -903 608 -995 
Q 697 -1088 884 -1088 
Q 1056 -1088 1161 -992 
Q 1266 -897 1381 -609 
z
" transform="scale(0.015625)"/>
       </defs>
       <use xlink:href="#DejaVuSerif-28"/>
       <use xlink:href="#DejaVuSerif-51" transform="translate(73 0)"/>
       <use xlink:href="#DejaVuSerif-48" transform="translate(137.40625 0)"/>
       <use xlink:href="#DejaVuSerif-55" transform="translate(196.59375 0)"/>
       <use xlink:href="#DejaVuSerif-4a" transform="translate(244.390625 0)"/>
       <use xlink:href="#DejaVuSerif-5c" transform="translate(308.40625 0)"/>
      </g>
     </g>
    </g>
    <g id="xtick_3">
     <g id="line2d_3">
      <path d="M 305.83825 225.935766 
L 148.856592 111.881916 
" clip-path="url(#pd4aa570add)" style="fill: none; stroke-dasharray: 2.96,1.28; stroke-dashoffset: 0; stroke: #b0b0b0; stroke-opacity: 0.3; stroke-width: 0.8"/>
     </g>
     <g id="text_3">
      <!-- Execution Speed -->
      <g transform="translate(94.907698 106.250969) scale(0.1 -0.1)">
       <defs>
        <path id="DejaVuSerif-5b" d="M 1863 2028 
L 2559 2988 
L 2113 2988 
L 2113 3322 
L 3391 3322 
L 3391 2988 
L 2950 2988 
L 2059 1759 
L 3097 331 
L 3531 331 
L 3531 0 
L 1997 0 
L 1997 331 
L 2419 331 
L 1697 1325 
L 972 331 
L 1403 331 
L 1403 0 
L 141 0 
L 141 331 
L 581 331 
L 1497 1594 
L 488 2988 
L 78 2988 
L 78 3322 
L 1563 3322 
L 1563 2988 
L 1166 2988 
L 1863 2028 
z
" transform="scale(0.015625)"/>
        <path id="DejaVuSerif-46" d="M 3291 997 
Q 3169 466 2822 187 
Q 2475 -91 1925 -91 
Q 1200 -91 759 389 
Q 319 869 319 1663 
Q 319 2459 759 2936 
Q 1200 3413 1925 3413 
Q 2241 3413 2553 3339 
Q 2866 3266 3181 3116 
L 3181 2266 
L 2847 2266 
Q 2781 2703 2561 2903 
Q 2341 3103 1931 3103 
Q 1466 3103 1228 2742 
Q 991 2381 991 1663 
Q 991 944 1227 581 
Q 1463 219 1931 219 
Q 2303 219 2525 412 
Q 2747 606 2828 997 
L 3291 997 
z
" transform="scale(0.015625)"/>
        <path id="DejaVuSerif-58" d="M 2266 3322 
L 3341 3322 
L 3341 331 
L 3884 331 
L 3884 0 
L 2766 0 
L 2766 588 
Q 2606 256 2353 82 
Q 2100 -91 1766 -91 
Q 1213 -91 952 223 
Q 691 538 691 1209 
L 691 2988 
L 172 2988 
L 172 3322 
L 1269 3322 
L 1269 1388 
Q 1269 781 1417 556 
Q 1566 331 1947 331 
Q 2347 331 2556 625 
Q 2766 919 2766 1478 
L 2766 2988 
L 2266 2988 
L 2266 3322 
z
" transform="scale(0.015625)"/>
        <path id="DejaVuSerif-57" d="M 691 2988 
L 184 2988 
L 184 3322 
L 691 3322 
L 691 4353 
L 1269 4353 
L 1269 3322 
L 2350 3322 
L 2350 2988 
L 1269 2988 
L 1269 878 
Q 1269 456 1350 337 
Q 1431 219 1650 219 
Q 1875 219 1978 351 
Q 2081 484 2088 781 
L 2522 781 
Q 2497 328 2275 118 
Q 2053 -91 1600 -91 
Q 1103 -91 897 129 
Q 691 350 691 878 
L 691 2988 
z
" transform="scale(0.015625)"/>
        <path id="DejaVuSerif-52" d="M 1925 219 
Q 2388 219 2623 584 
Q 2859 950 2859 1663 
Q 2859 2375 2623 2739 
Q 2388 3103 1925 3103 
Q 1463 3103 1227 2739 
Q 991 2375 991 1663 
Q 991 950 1228 584 
Q 1466 219 1925 219 
z
M 1925 -91 
Q 1200 -91 759 389 
Q 319 869 319 1663 
Q 319 2456 758 2934 
Q 1197 3413 1925 3413 
Q 2653 3413 3092 2934 
Q 3531 2456 3531 1663 
Q 3531 869 3092 389 
Q 2653 -91 1925 -91 
z
" transform="scale(0.015625)"/>
        <path id="DejaVuSerif-36" d="M 594 225 
L 594 1288 
L 953 1284 
Q 969 753 1261 498 
Q 1553 244 2150 244 
Q 2706 244 2998 464 
Q 3291 684 3291 1106 
Q 3291 1444 3114 1625 
Q 2938 1806 2369 1978 
L 1753 2163 
Q 1084 2366 811 2669 
Q 538 2972 538 3500 
Q 538 4094 959 4422 
Q 1381 4750 2144 4750 
Q 2469 4750 2856 4679 
Q 3244 4609 3681 4475 
L 3681 3481 
L 3328 3481 
Q 3275 3975 2998 4195 
Q 2722 4416 2156 4416 
Q 1663 4416 1405 4214 
Q 1147 4013 1147 3628 
Q 1147 3294 1340 3103 
Q 1534 2913 2163 2725 
L 2741 2553 
Q 3375 2363 3645 2067 
Q 3916 1772 3916 1275 
Q 3916 597 3481 253 
Q 3047 -91 2188 -91 
Q 1803 -91 1404 -12 
Q 1006 66 594 225 
z
" transform="scale(0.015625)"/>
        <path id="DejaVuSerif-53" d="M 1313 1825 
L 1313 1497 
Q 1313 897 1542 583 
Q 1772 269 2209 269 
Q 2650 269 2876 622 
Q 3103 975 3103 1663 
Q 3103 2353 2876 2703 
Q 2650 3053 2209 3053 
Q 1772 3053 1542 2737 
Q 1313 2422 1313 1825 
z
M 738 2988 
L 184 2988 
L 184 3322 
L 1313 3322 
L 1313 2803 
Q 1481 3116 1742 3264 
Q 2003 3413 2388 3413 
Q 3000 3413 3387 2928 
Q 3775 2444 3775 1663 
Q 3775 881 3387 395 
Q 3000 -91 2388 -91 
Q 2003 -91 1742 57 
Q 1481 206 1313 519 
L 1313 -997 
L 1856 -997 
L 1856 -1331 
L 184 -1331 
L 184 -997 
L 738 -997 
L 738 2988 
z
" transform="scale(0.015625)"/>
        <path id="DejaVuSerif-47" d="M 3359 331 
L 3909 331 
L 3909 0 
L 2784 0 
L 2784 519 
Q 2616 206 2355 57 
Q 2094 -91 1709 -91 
Q 1097 -91 708 395 
Q 319 881 319 1663 
Q 319 2444 706 2928 
Q 1094 3413 1709 3413 
Q 2094 3413 2355 3264 
Q 2616 3116 2784 2803 
L 2784 4531 
L 2241 4531 
L 2241 4863 
L 3359 4863 
L 3359 331 
z
M 2784 1497 
L 2784 1825 
Q 2784 2422 2554 2737 
Q 2325 3053 1888 3053 
Q 1444 3053 1217 2703 
Q 991 2353 991 1663 
Q 991 975 1217 622 
Q 1444 269 1888 269 
Q 2325 269 2554 583 
Q 2784 897 2784 1497 
z
" transform="scale(0.015625)"/>
       </defs>
       <use xlink:href="#DejaVuSerif-28"/>
       <use xlink:href="#DejaVuSerif-5b" transform="translate(73 0)"/>
       <use xlink:href="#DejaVuSerif-48" transform="translate(129.390625 0)"/>
       <use xlink:href="#DejaVuSerif-46" transform="translate(188.578125 0)"/>
       <use xlink:href="#DejaVuSerif-58" transform="translate(244.578125 0)"/>
       <use xlink:href="#DejaVuSerif-57" transform="translate(308.984375 0)"/>
       <use xlink:href="#DejaVuSerif-4c" transform="translate(349.171875 0)"/>
       <use xlink:href="#DejaVuSerif-52" transform="translate(381.15625 0)"/>
       <use xlink:href="#DejaVuSerif-51" transform="translate(441.359375 0)"/>
       <use xlink:href="#DejaVuSerif-3" transform="translate(505.765625 0)"/>
       <use xlink:href="#DejaVuSerif-36" transform="translate(537.546875 0)"/>
       <use xlink:href="#DejaVuSerif-53" transform="translate(606.046875 0)"/>
       <use xlink:href="#DejaVuSerif-48" transform="translate(670.0625 0)"/>
       <use xlink:href="#DejaVuSerif-48" transform="translate(729.25 0)"/>
       <use xlink:href="#DejaVuSerif-47" transform="translate(788.4375 0)"/>
      </g>
     </g>
    </g>
    <g id="xtick_4">
     <g id="line2d_4">
      <path d="M 305.83825 225.935766 
L 148.856592 339.989617 
" clip-path="url(#pd4aa570add)" style="fill: none; stroke-dasharray: 2.96,1.28; stroke-dashoffset: 0; stroke: #b0b0b0; stroke-opacity: 0.3; stroke-width: 0.8"/>
     </g>
     <g id="text_4">
      <!-- Resilience -->
      <g transform="translate(111.503792 350.816657) scale(0.1 -0.1)">
       <defs>
        <path id="DejaVuSerif-35" d="M 3066 2316 
Q 3284 2256 3442 2114 
Q 3600 1972 3725 1716 
L 4403 331 
L 4972 331 
L 4972 0 
L 3872 0 
L 3144 1484 
Q 2934 1916 2759 2042 
Q 2584 2169 2278 2169 
L 1581 2169 
L 1581 331 
L 2241 331 
L 2241 0 
L 353 0 
L 353 331 
L 947 331 
L 947 4331 
L 353 4331 
L 353 4666 
L 2719 4666 
Q 3400 4666 3770 4341 
Q 4141 4016 4141 3419 
Q 4141 2938 3870 2661 
Q 3600 2384 3066 2316 
z
M 1581 2503 
L 2503 2503 
Q 2975 2503 3200 2726 
Q 3425 2950 3425 3419 
Q 3425 3888 3200 4109 
Q 2975 4331 2503 4331 
L 1581 4331 
L 1581 2503 
z
" transform="scale(0.015625)"/>
        <path id="DejaVuSerif-56" d="M 359 184 
L 359 959 
L 691 959 
Q 703 588 923 403 
Q 1144 219 1575 219 
Q 1963 219 2166 364 
Q 2369 509 2369 788 
Q 2369 1006 2220 1140 
Q 2072 1275 1594 1428 
L 1178 1569 
Q 750 1706 558 1912 
Q 366 2119 366 2438 
Q 366 2894 700 3153 
Q 1034 3413 1625 3413 
Q 1888 3413 2178 3344 
Q 2469 3275 2778 3144 
L 2778 2419 
L 2447 2419 
Q 2434 2741 2221 2922 
Q 2009 3103 1644 3103 
Q 1281 3103 1095 2975 
Q 909 2847 909 2591 
Q 909 2381 1050 2254 
Q 1191 2128 1613 1997 
L 2069 1856 
Q 2541 1709 2748 1489 
Q 2956 1269 2956 922 
Q 2956 450 2595 179 
Q 2234 -91 1600 -91 
Q 1278 -91 972 -22 
Q 666 47 359 184 
z
" transform="scale(0.015625)"/>
       </defs>
       <use xlink:href="#DejaVuSerif-35"/>
       <use xlink:href="#DejaVuSerif-48" transform="translate(75.296875 0)"/>
       <use xlink:href="#DejaVuSerif-56" transform="translate(134.484375 0)"/>
       <use xlink:href="#DejaVuSerif-4c" transform="translate(185.796875 0)"/>
       <use xlink:href="#DejaVuSerif-4f" transform="translate(217.78125 0)"/>
       <use xlink:href="#DejaVuSerif-4c" transform="translate(249.765625 0)"/>
       <use xlink:href="#DejaVuSerif-48" transform="translate(281.75 0)"/>
       <use xlink:href="#DejaVuSerif-51" transform="translate(340.9375 0)"/>
       <use xlink:href="#DejaVuSerif-46" transform="translate(405.34375 0)"/>
       <use xlink:href="#DejaVuSerif-48" transform="translate(461.34375 0)"/>
      </g>
     </g>
    </g>
    <g id="xtick_5">
     <g id="line2d_5">
      <path d="M 305.83825 225.935766 
L 365.799908 410.478773 
" clip-path="url(#pd4aa570add)" style="fill: none; stroke-dasharray: 2.96,1.28; stroke-dashoffset: 0; stroke: #b0b0b0; stroke-opacity: 0.3; stroke-width: 0.8"/>
     </g>
     <g id="text_5">
      <!-- Robustness -->
      <g transform="translate(341.044114 426.391611) scale(0.1 -0.1)">
       <defs>
        <path id="DejaVuSerif-45" d="M 738 331 
L 738 4531 
L 184 4531 
L 184 4863 
L 1313 4863 
L 1313 2803 
Q 1481 3116 1742 3264 
Q 2003 3413 2388 3413 
Q 3000 3413 3387 2928 
Q 3775 2444 3775 1663 
Q 3775 881 3387 395 
Q 3000 -91 2388 -91 
Q 2003 -91 1742 57 
Q 1481 206 1313 519 
L 1313 0 
L 184 0 
L 184 331 
L 738 331 
z
M 1313 1497 
Q 1313 897 1542 583 
Q 1772 269 2209 269 
Q 2650 269 2876 622 
Q 3103 975 3103 1663 
Q 3103 2353 2876 2703 
Q 2650 3053 2209 3053 
Q 1772 3053 1542 2737 
Q 1313 2422 1313 1825 
L 1313 1497 
z
" transform="scale(0.015625)"/>
       </defs>
       <use xlink:href="#DejaVuSerif-35"/>
       <use xlink:href="#DejaVuSerif-52" transform="translate(75.296875 0)"/>
       <use xlink:href="#DejaVuSerif-45" transform="translate(135.5 0)"/>
       <use xlink:href="#DejaVuSerif-58" transform="translate(199.515625 0)"/>
       <use xlink:href="#DejaVuSerif-56" transform="translate(263.921875 0)"/>
       <use xlink:href="#DejaVuSerif-57" transform="translate(315.234375 0)"/>
       <use xlink:href="#DejaVuSerif-51" transform="translate(355.421875 0)"/>
       <use xlink:href="#DejaVuSerif-48" transform="translate(419.828125 0)"/>
       <use xlink:href="#DejaVuSerif-56" transform="translate(479.015625 0)"/>
       <use xlink:href="#DejaVuSerif-56" transform="translate(530.328125 0)"/>
      </g>
     </g>
    </g>
   </g>
   <g id="matplotlib.axis_2">
    <g id="ytick_1">
     <g id="line2d_6">
      <path d="M 341.11825 225.935766 
C 341.11825 221.302839 340.205664 216.714961 338.43272 212.434695 
C 336.659775 208.154428 334.060951 204.265013 330.784977 200.989039 
C 327.509003 197.713065 323.619588 195.114241 319.339321 193.341296 
C 315.059055 191.568352 310.471177 190.655766 305.83825 190.655766 
C 301.205323 190.655766 296.617445 191.568352 292.337179 193.341296 
C 288.056912 195.114241 284.167497 197.713065 280.891523 200.989039 
C 277.615549 204.265013 275.016725 208.154428 273.24378 212.434695 
C 271.470836 216.714961 270.55825 221.302839 270.55825 225.935766 
C 270.55825 230.568694 271.470836 235.156571 273.24378 239.436838 
C 275.016725 243.717104 277.615549 247.606519 280.891523 250.882494 
C 284.167497 254.158468 288.056912 256.757292 292.337179 258.530236 
C 296.617445 260.303181 301.205323 261.215766 305.83825 261.215766 
C 310.471177 261.215766 315.059055 260.303181 319.339321 258.530236 
C 323.619588 256.757292 327.509003 254.158468 330.784977 250.882494 
C 334.060951 247.606519 336.659775 243.717104 338.43272 239.436838 
C 340.205664 235.156571 341.11825 230.568694 341.11825 225.935766 
" clip-path="url(#pd4aa570add)" style="fill: none; stroke-dasharray: 2.96,1.28; stroke-dashoffset: 0; stroke: #b0b0b0; stroke-opacity: 0.3; stroke-width: 0.8"/>
     </g>
     <g id="text_6">
      <!-- 0.2 -->
      <g style="fill: #808080" transform="translate(341.11825 224.013891) scale(0.08 -0.08)">
       <defs>
        <path id="DejaVuSerif-13" d="M 2034 219 
Q 2513 219 2750 744 
Q 2988 1269 2988 2328 
Q 2988 3391 2750 3916 
Q 2513 4441 2034 4441 
Q 1556 4441 1318 3916 
Q 1081 3391 1081 2328 
Q 1081 1269 1318 744 
Q 1556 219 2034 219 
z
M 2034 -91 
Q 1275 -91 848 546 
Q 422 1184 422 2328 
Q 422 3475 848 4112 
Q 1275 4750 2034 4750 
Q 2797 4750 3222 4112 
Q 3647 3475 3647 2328 
Q 3647 1184 3222 546 
Q 2797 -91 2034 -91 
z
" transform="scale(0.015625)"/>
        <path id="DejaVuSerif-11" d="M 603 325 
Q 603 500 722 622 
Q 841 744 1019 744 
Q 1191 744 1312 622 
Q 1434 500 1434 325 
Q 1434 153 1312 31 
Q 1191 -91 1019 -91 
Q 841 -91 722 29 
Q 603 150 603 325 
z
" transform="scale(0.015625)"/>
        <path id="DejaVuSerif-15" d="M 819 3553 
L 469 3553 
L 469 4384 
Q 803 4563 1142 4656 
Q 1481 4750 1806 4750 
Q 2534 4750 2956 4397 
Q 3378 4044 3378 3438 
Q 3378 2753 2422 1800 
Q 2347 1728 2309 1691 
L 1131 513 
L 3078 513 
L 3078 1088 
L 3444 1088 
L 3444 0 
L 434 0 
L 434 341 
L 1850 1753 
Q 2319 2222 2519 2614 
Q 2719 3006 2719 3438 
Q 2719 3909 2473 4175 
Q 2228 4441 1797 4441 
Q 1350 4441 1106 4219 
Q 863 3997 819 3553 
z
" transform="scale(0.015625)"/>
       </defs>
       <use xlink:href="#DejaVuSerif-13"/>
       <use xlink:href="#DejaVuSerif-11" transform="translate(63.625 0)"/>
       <use xlink:href="#DejaVuSerif-15" transform="translate(95.40625 0)"/>
      </g>
     </g>
    </g>
    <g id="ytick_2">
     <g id="line2d_7">
      <path d="M 376.39825 225.935766 
C 376.39825 216.669912 374.573079 207.494157 371.02719 198.933623 
C 367.481301 190.37309 362.283653 182.59426 355.731704 176.042312 
C 349.179756 169.490364 341.400926 164.292716 332.840393 160.746827 
C 324.27986 157.200938 315.104104 155.375766 305.83825 155.375766 
C 296.572396 155.375766 287.39664 157.200938 278.836107 160.746827 
C 270.275574 164.292716 262.496744 169.490364 255.944796 176.042312 
C 249.392847 182.59426 244.195199 190.37309 240.64931 198.933623 
C 237.103421 207.494157 235.27825 216.669912 235.27825 225.935766 
C 235.27825 235.201621 237.103421 244.377376 240.64931 252.937909 
C 244.195199 261.498443 249.392847 269.277272 255.944796 275.829221 
C 262.496744 282.381169 270.275574 287.578817 278.836107 291.124706 
C 287.39664 294.670595 296.572396 296.495766 305.83825 296.495766 
C 315.104104 296.495766 324.27986 294.670595 332.840393 291.124706 
C 341.400926 287.578817 349.179756 282.381169 355.731704 275.829221 
C 362.283653 269.277272 367.481301 261.498443 371.02719 252.937909 
C 374.573079 244.377376 376.39825 235.201621 376.39825 225.935766 
" clip-path="url(#pd4aa570add)" style="fill: none; stroke-dasharray: 2.96,1.28; stroke-dashoffset: 0; stroke: #b0b0b0; stroke-opacity: 0.3; stroke-width: 0.8"/>
     </g>
     <g id="text_7">
      <!-- 0.4 -->
      <g style="fill: #808080" transform="translate(376.39825 224.013891) scale(0.08 -0.08)">
       <defs>
        <path id="DejaVuSerif-17" d="M 2234 1581 
L 2234 4063 
L 641 1581 
L 2234 1581 
z
M 3609 0 
L 1484 0 
L 1484 331 
L 2234 331 
L 2234 1247 
L 197 1247 
L 197 1588 
L 2241 4750 
L 2859 4750 
L 2859 1581 
L 3750 1581 
L 3750 1247 
L 2859 1247 
L 2859 331 
L 3609 331 
L 3609 0 
z
" transform="scale(0.015625)"/>
       </defs>
       <use xlink:href="#DejaVuSerif-13"/>
       <use xlink:href="#DejaVuSerif-11" transform="translate(63.625 0)"/>
       <use xlink:href="#DejaVuSerif-17" transform="translate(95.40625 0)"/>
      </g>
     </g>
    </g>
    <g id="ytick_3">
     <g id="line2d_8">
      <path d="M 411.67825 225.935766 
C 411.67825 212.036985 408.940493 198.273352 403.62166 185.432552 
C 398.302826 172.591752 390.506354 160.923507 380.678432 151.095585 
C 370.850509 141.267662 359.182264 133.47119 346.341464 128.152357 
C 333.500665 122.833523 319.737031 120.095766 305.83825 120.095766 
C 291.939469 120.095766 278.175835 122.833523 265.335036 128.152357 
C 252.494236 133.47119 240.825991 141.267662 230.998068 151.095585 
C 221.170146 160.923507 213.373674 172.591752 208.05484 185.432552 
C 202.736007 198.273352 199.99825 212.036985 199.99825 225.935766 
C 199.99825 239.834548 202.736007 253.598181 208.05484 266.438981 
C 213.373674 279.279781 221.170146 290.948026 230.998068 300.775948 
C 240.825991 310.603871 252.494236 318.400343 265.335036 323.719176 
C 278.175835 329.03801 291.939469 331.775766 305.83825 331.775766 
C 319.737031 331.775766 333.500665 329.03801 346.341464 323.719176 
C 359.182264 318.400343 370.850509 310.603871 380.678432 300.775948 
C 390.506354 290.948026 398.302826 279.279781 403.62166 266.438981 
C 408.940493 253.598181 411.67825 239.834548 411.67825 225.935766 
" clip-path="url(#pd4aa570add)" style="fill: none; stroke-dasharray: 2.96,1.28; stroke-dashoffset: 0; stroke: #b0b0b0; stroke-opacity: 0.3; stroke-width: 0.8"/>
     </g>
     <g id="text_8">
      <!-- 0.6 -->
      <g style="fill: #808080" transform="translate(411.67825 224.013891) scale(0.08 -0.08)">
       <defs>
        <path id="DejaVuSerif-19" d="M 2094 219 
Q 2534 219 2771 542 
Q 3009 866 3009 1472 
Q 3009 2078 2771 2401 
Q 2534 2725 2094 2725 
Q 1647 2725 1412 2412 
Q 1178 2100 1178 1509 
Q 1178 888 1415 553 
Q 1653 219 2094 219 
z
M 1075 2569 
Q 1288 2803 1556 2918 
Q 1825 3034 2163 3034 
Q 2859 3034 3264 2615 
Q 3669 2197 3669 1472 
Q 3669 763 3233 336 
Q 2797 -91 2069 -91 
Q 1278 -91 853 498 
Q 428 1088 428 2181 
Q 428 3406 931 4078 
Q 1434 4750 2350 4750 
Q 2597 4750 2869 4703 
Q 3141 4656 3425 4563 
L 3425 3794 
L 3072 3794 
Q 3034 4109 2831 4275 
Q 2628 4441 2284 4441 
Q 1678 4441 1381 3981 
Q 1084 3522 1075 2569 
z
" transform="scale(0.015625)"/>
       </defs>
       <use xlink:href="#DejaVuSerif-13"/>
       <use xlink:href="#DejaVuSerif-11" transform="translate(63.625 0)"/>
       <use xlink:href="#DejaVuSerif-19" transform="translate(95.40625 0)"/>
      </g>
     </g>
    </g>
    <g id="ytick_4">
     <g id="line2d_9">
      <path d="M 446.95825 225.935766 
C 446.95825 207.404058 443.307907 189.052547 436.21613 171.93148 
C 429.124352 154.810414 418.729056 139.252754 405.625159 126.148857 
C 392.521262 113.044961 376.963602 102.649665 359.842536 95.557887 
C 342.72147 88.466109 324.369959 84.815766 305.83825 84.815766 
C 287.306541 84.815766 268.95503 88.466109 251.833964 95.557887 
C 234.712898 102.649665 219.155238 113.044961 206.051341 126.148857 
C 192.947444 139.252754 182.552148 154.810414 175.46037 171.93148 
C 168.368593 189.052547 164.71825 207.404058 164.71825 225.935766 
C 164.71825 244.467475 168.368593 262.818986 175.46037 279.940052 
C 182.552148 297.061119 192.947444 312.618779 206.051341 325.722675 
C 219.155238 338.826572 234.712898 349.221868 251.833964 356.313646 
C 268.95503 363.405424 287.306541 367.055766 305.83825 367.055766 
C 324.369959 367.055766 342.72147 363.405424 359.842536 356.313646 
C 376.963602 349.221868 392.521262 338.826572 405.625159 325.722675 
C 418.729056 312.618779 429.124352 297.061119 436.21613 279.940052 
C 443.307907 262.818986 446.95825 244.467475 446.95825 225.935766 
" clip-path="url(#pd4aa570add)" style="fill: none; stroke-dasharray: 2.96,1.28; stroke-dashoffset: 0; stroke: #b0b0b0; stroke-opacity: 0.3; stroke-width: 0.8"/>
     </g>
     <g id="text_9">
      <!-- 0.8 -->
      <g style="fill: #808080" transform="translate(446.95825 224.013891) scale(0.08 -0.08)">
       <defs>
        <path id="DejaVuSerif-1b" d="M 2981 1275 
Q 2981 1775 2732 2051 
Q 2484 2328 2034 2328 
Q 1584 2328 1336 2051 
Q 1088 1775 1088 1275 
Q 1088 772 1336 495 
Q 1584 219 2034 219 
Q 2484 219 2732 495 
Q 2981 772 2981 1275 
z
M 2853 3541 
Q 2853 3966 2637 4203 
Q 2422 4441 2034 4441 
Q 1650 4441 1433 4203 
Q 1216 3966 1216 3541 
Q 1216 3113 1433 2875 
Q 1650 2638 2034 2638 
Q 2422 2638 2637 2875 
Q 2853 3113 2853 3541 
z
M 2516 2484 
Q 3047 2413 3344 2092 
Q 3641 1772 3641 1275 
Q 3641 619 3225 264 
Q 2809 -91 2034 -91 
Q 1263 -91 845 264 
Q 428 619 428 1275 
Q 428 1772 725 2092 
Q 1022 2413 1556 2484 
Q 1084 2569 832 2842 
Q 581 3116 581 3541 
Q 581 4103 968 4426 
Q 1356 4750 2034 4750 
Q 2713 4750 3100 4426 
Q 3488 4103 3488 3541 
Q 3488 3116 3236 2842 
Q 2984 2569 2516 2484 
z
" transform="scale(0.015625)"/>
       </defs>
       <use xlink:href="#DejaVuSerif-13"/>
       <use xlink:href="#DejaVuSerif-11" transform="translate(63.625 0)"/>
       <use xlink:href="#DejaVuSerif-1b" transform="translate(95.40625 0)"/>
      </g>
     </g>
    </g>
    <g id="ytick_5">
     <g id="line2d_10">
      <path d="M 482.23825 225.935766 
C 482.23825 202.771131 477.675322 179.831742 468.8106 158.430409 
C 459.945877 137.029076 446.951757 117.582001 430.571886 101.20213 
C 414.192015 84.822259 394.74494 71.828139 373.343607 62.963417 
C 351.942275 54.098695 329.002886 49.535766 305.83825 49.535766 
C 282.673614 49.535766 259.734225 54.098695 238.332893 62.963417 
C 216.93156 71.828139 197.484485 84.822259 181.104614 101.20213 
C 164.724743 117.582001 151.730623 137.029076 142.8659 158.430409 
C 134.001178 179.831742 129.43825 202.771131 129.43825 225.935766 
C 129.43825 249.100402 134.001178 272.039791 142.8659 293.441124 
C 151.730623 314.842457 164.724743 334.289532 181.104614 350.669403 
C 197.484485 367.049274 216.93156 380.043394 238.332893 388.908116 
C 259.734225 397.772838 282.673614 402.335766 305.83825 402.335766 
C 329.002886 402.335766 351.942275 397.772838 373.343607 388.908116 
C 394.74494 380.043394 414.192015 367.049274 430.571886 350.669403 
C 446.951757 334.289532 459.945877 314.842457 468.8106 293.441124 
C 477.675322 272.039791 482.23825 249.100402 482.23825 225.935766 
" clip-path="url(#pd4aa570add)" style="fill: none; stroke-dasharray: 2.96,1.28; stroke-dashoffset: 0; stroke: #b0b0b0; stroke-opacity: 0.3; stroke-width: 0.8"/>
     </g>
     <g id="text_10">
      <!-- 1.0 -->
      <g style="fill: #808080" transform="translate(482.23825 224.013891) scale(0.08 -0.08)">
       <defs>
        <path id="DejaVuSerif-14" d="M 909 0 
L 909 331 
L 1722 331 
L 1722 4213 
L 781 3603 
L 781 4013 
L 1919 4750 
L 2350 4750 
L 2350 331 
L 3163 331 
L 3163 0 
L 909 0 
z
" transform="scale(0.015625)"/>
       </defs>
       <use xlink:href="#DejaVuSerif-14"/>
       <use xlink:href="#DejaVuSerif-11" transform="translate(63.625 0)"/>
       <use xlink:href="#DejaVuSerif-13" transform="translate(95.40625 0)"/>
      </g>
     </g>
    </g>
   </g>
   <g id="line2d_11">
    <path d="M 469.063706 225.935766 
L 316.74037 192.382493 
L 276.177141 204.385709 
L 163.127652 329.621085 
L 316.74037 259.48904 
L 469.063706 225.935766 
" clip-path="url(#pd4aa570add)" style="fill: none; stroke: #1f77b4; stroke-width: 2; stroke-linecap: square"/>
   </g>
   <g id="line2d_12">
    <path d="M 468.601627 225.935766 
L 343.02484 111.48721 
L 277.29613 205.198703 
L 163.127652 329.621085 
L 324.869044 284.506527 
L 468.601627 225.935766 
" clip-path="url(#pd4aa570add)" style="fill: none; stroke: #ff7f0e; stroke-width: 2; stroke-linecap: square"/>
   </g>
   <g id="line2d_13">
    <path d="M 341.11825 225.935766 
L 360.348848 58.169397 
L 163.127652 122.250448 
L 163.127652 329.621085 
L 360.348848 393.702136 
L 341.11825 225.935766 
" clip-path="url(#pd4aa570add)" style="fill: none; stroke: #2ca02c; stroke-width: 2; stroke-linecap: square"/>
   </g>
   <g id="line2d_14">
    <path d="M 471.836458 225.935766 
L 316.892285 191.914944 
L 270.251759 200.080667 
L 163.127652 329.621085 
L 319.532895 268.08355 
L 471.836458 225.935766 
" clip-path="url(#pd4aa570add)" style="fill: none; stroke: #d62728; stroke-width: 2; stroke-linecap: square"/>
   </g>
   <g id="line2d_15">
    <path d="M 482.23825 225.935766 
L 317.81947 189.061362 
L 272.93434 202.029676 
L 163.127652 329.621085 
L 320.182216 270.081954 
L 482.23825 225.935766 
" clip-path="url(#pd4aa570add)" style="fill: none; stroke: #9467bd; stroke-width: 2; stroke-linecap: square"/>
   </g>
   <g id="patch_8">
    <path d="M 499.87825 225.935766 
C 499.87825 200.454667 494.859029 175.221339 485.107834 151.679873 
C 475.35664 128.138407 461.063108 106.746625 443.04525 88.728767 
C 425.027392 70.710908 403.635609 56.417376 380.094143 46.666182 
C 356.552677 36.914987 331.319349 31.895766 305.83825 31.895766 
C 280.357151 31.895766 255.123823 36.914987 231.582357 46.666182 
C 208.040891 56.417376 186.649108 70.710908 168.63125 88.728767 
C 150.613392 106.746625 136.31986 128.138407 126.568666 151.679873 
C 116.817471 175.221339 111.79825 200.454667 111.79825 225.935766 
C 111.79825 251.416866 116.817471 276.650193 126.568666 300.19166 
C 136.31986 323.733126 150.613392 345.124908 168.63125 363.142766 
C 186.649108 381.160624 208.040891 395.454156 231.582357 405.205351 
C 255.123823 414.956545 280.357151 419.975766 305.83825 419.975766 
C 331.319349 419.975766 356.552677 414.956545 380.094143 405.205351 
C 403.635609 395.454156 425.027392 381.160624 443.04525 363.142766 
C 461.063108 345.124908 475.35664 323.733126 485.107834 300.19166 
C 494.859029 276.650193 499.87825 251.416866 499.87825 225.935766 
" style="fill: none; stroke: #000000; stroke-width: 0.8; stroke-linejoin: miter; stroke-linecap: square"/>
   </g>
   <g id="text_11">
    <!-- Multi-Objective Performance Envelope (Normalized) -->
    <g transform="translate(132.592937 17.077969) scale(0.13 -0.13)">
     <defs>
      <path id="DejaVuSerif-30" d="M 353 0 
L 353 331 
L 947 331 
L 947 4331 
L 319 4331 
L 319 4666 
L 1678 4666 
L 3316 1344 
L 4953 4666 
L 6228 4666 
L 6228 4331 
L 5606 4331 
L 5606 331 
L 6203 331 
L 6203 0 
L 4378 0 
L 4378 331 
L 4972 331 
L 4972 3938 
L 3372 684 
L 2931 684 
L 1331 3938 
L 1331 331 
L 1925 331 
L 1925 0 
L 353 0 
z
" transform="scale(0.015625)"/>
      <path id="DejaVuSerif-10" d="M 281 1959 
L 1881 1959 
L 1881 1472 
L 281 1472 
L 281 1959 
z
" transform="scale(0.015625)"/>
      <path id="DejaVuSerif-32" d="M 2625 244 
Q 3391 244 3781 770 
Q 4172 1297 4172 2328 
Q 4172 3363 3781 3889 
Q 3391 4416 2625 4416 
Q 1856 4416 1465 3889 
Q 1075 3363 1075 2328 
Q 1075 1297 1465 770 
Q 1856 244 2625 244 
z
M 2625 -91 
Q 2150 -91 1751 65 
Q 1353 222 1050 525 
Q 700 875 529 1319 
Q 359 1763 359 2328 
Q 359 2894 529 3339 
Q 700 3784 1050 4134 
Q 1356 4441 1750 4595 
Q 2144 4750 2625 4750 
Q 3641 4750 4266 4084 
Q 4891 3419 4891 2328 
Q 4891 1769 4719 1320 
Q 4547 872 4197 525 
Q 3891 219 3497 64 
Q 3103 -91 2625 -91 
z
" transform="scale(0.015625)"/>
      <path id="DejaVuSerif-4d" d="M 641 4353 
Q 641 4497 745 4603 
Q 850 4709 997 4709 
Q 1141 4709 1245 4603 
Q 1350 4497 1350 4353 
Q 1350 4206 1248 4103 
Q 1147 4000 997 4000 
Q 850 4000 745 4103 
Q 641 4206 641 4353 
z
M 781 2988 
L 238 2988 
L 238 3322 
L 1356 3322 
L 1356 -325 
Q 1356 -838 1051 -1130 
Q 747 -1422 213 -1422 
Q -13 -1422 -217 -1370 
Q -422 -1319 -616 -1216 
L -616 -531 
L -319 -531 
Q -297 -831 -164 -972 
Q -31 -1113 225 -1113 
Q 509 -1113 645 -920 
Q 781 -728 781 -325 
L 781 2988 
z
" transform="scale(0.015625)"/>
      <path id="DejaVuSerif-33" d="M 1581 2375 
L 2406 2375 
Q 2872 2375 3115 2626 
Q 3359 2878 3359 3353 
Q 3359 3831 3115 4081 
Q 2872 4331 2406 4331 
L 1581 4331 
L 1581 2375 
z
M 353 0 
L 353 331 
L 947 331 
L 947 4331 
L 353 4331 
L 353 4666 
L 2559 4666 
Q 3259 4666 3668 4311 
Q 4078 3956 4078 3353 
Q 4078 2753 3668 2397 
Q 3259 2041 2559 2041 
L 1581 2041 
L 1581 331 
L 2303 331 
L 2303 0 
L 353 0 
z
" transform="scale(0.015625)"/>
      <path id="DejaVuSerif-49" d="M 2753 4078 
L 2450 4078 
Q 2447 4313 2317 4434 
Q 2188 4556 1941 4556 
Q 1619 4556 1487 4379 
Q 1356 4203 1356 3750 
L 1356 3322 
L 2284 3322 
L 2284 2988 
L 1356 2988 
L 1356 331 
L 2094 331 
L 2094 0 
L 231 0 
L 231 331 
L 781 331 
L 781 2988 
L 231 2988 
L 231 3322 
L 781 3322 
L 781 3738 
Q 781 4294 1070 4578 
Q 1359 4863 1919 4863 
Q 2128 4863 2337 4825 
Q 2547 4788 2753 4709 
L 2753 4078 
z
" transform="scale(0.015625)"/>
      <path id="DejaVuSerif-b" d="M 2041 -997 
Q 1281 -656 893 83 
Q 506 822 506 1931 
Q 506 3044 893 3783 
Q 1281 4522 2041 4863 
L 2041 4556 
Q 1559 4225 1350 3623 
Q 1141 3022 1141 1931 
Q 1141 844 1350 242 
Q 1559 -359 2041 -691 
L 2041 -997 
z
" transform="scale(0.015625)"/>
      <path id="DejaVuSerif-31" d="M 313 0 
L 313 331 
L 941 331 
L 941 4331 
L 313 4331 
L 313 4666 
L 1509 4666 
L 4306 984 
L 4306 4331 
L 3681 4331 
L 3681 4666 
L 5319 4666 
L 5319 4331 
L 4691 4331 
L 4691 -91 
L 4313 -91 
L 1325 3841 
L 1325 331 
L 1953 331 
L 1953 0 
L 313 0 
z
" transform="scale(0.015625)"/>
      <path id="DejaVuSerif-5d" d="M 256 0 
L 256 269 
L 2338 2988 
L 691 2988 
L 691 2413 
L 359 2413 
L 359 3322 
L 3078 3322 
L 3078 3053 
L 997 331 
L 2803 331 
L 2803 934 
L 3138 934 
L 3138 0 
L 256 0 
z
" transform="scale(0.015625)"/>
      <path id="DejaVuSerif-c" d="M 453 -997 
L 453 -691 
Q 934 -359 1145 242 
Q 1356 844 1356 1931 
Q 1356 3022 1145 3623 
Q 934 4225 453 4556 
L 453 4863 
Q 1216 4522 1603 3783 
Q 1991 3044 1991 1931 
Q 1991 822 1603 83 
Q 1216 -656 453 -997 
z
" transform="scale(0.015625)"/>
     </defs>
     <use xlink:href="#DejaVuSerif-30"/>
     <use xlink:href="#DejaVuSerif-58" transform="translate(102.390625 0)"/>
     <use xlink:href="#DejaVuSerif-4f" transform="translate(166.796875 0)"/>
     <use xlink:href="#DejaVuSerif-57" transform="translate(198.78125 0)"/>
     <use xlink:href="#DejaVuSerif-4c" transform="translate(238.96875 0)"/>
     <use xlink:href="#DejaVuSerif-10" transform="translate(270.953125 0)"/>
     <use xlink:href="#DejaVuSerif-32" transform="translate(304.75 0)"/>
     <use xlink:href="#DejaVuSerif-45" transform="translate(386.734375 0)"/>
     <use xlink:href="#DejaVuSerif-4d" transform="translate(450.75 0)"/>
     <use xlink:href="#DejaVuSerif-48" transform="translate(481.75 0)"/>
     <use xlink:href="#DejaVuSerif-46" transform="translate(540.9375 0)"/>
     <use xlink:href="#DejaVuSerif-57" transform="translate(596.9375 0)"/>
     <use xlink:href="#DejaVuSerif-4c" transform="translate(637.125 0)"/>
     <use xlink:href="#DejaVuSerif-59" transform="translate(669.109375 0)"/>
     <use xlink:href="#DejaVuSerif-48" transform="translate(725.609375 0)"/>
     <use xlink:href="#DejaVuSerif-3" transform="translate(784.796875 0)"/>
     <use xlink:href="#DejaVuSerif-33" transform="translate(816.578125 0)"/>
     <use xlink:href="#DejaVuSerif-48" transform="translate(879.375 0)"/>
     <use xlink:href="#DejaVuSerif-55" transform="translate(938.5625 0)"/>
     <use xlink:href="#DejaVuSerif-49" transform="translate(986.359375 0)"/>
     <use xlink:href="#DejaVuSerif-52" transform="translate(1023.375 0)"/>
     <use xlink:href="#DejaVuSerif-55" transform="translate(1083.578125 0)"/>
     <use xlink:href="#DejaVuSerif-50" transform="translate(1131.375 0)"/>
     <use xlink:href="#DejaVuSerif-44" transform="translate(1226.203125 0)"/>
     <use xlink:href="#DejaVuSerif-51" transform="translate(1285.828125 0)"/>
     <use xlink:href="#DejaVuSerif-46" transform="translate(1350.234375 0)"/>
     <use xlink:href="#DejaVuSerif-48" transform="translate(1406.234375 0)"/>
     <use xlink:href="#DejaVuSerif-3" transform="translate(1465.421875 0)"/>
     <use xlink:href="#DejaVuSerif-28" transform="translate(1497.203125 0)"/>
     <use xlink:href="#DejaVuSerif-51" transform="translate(1570.203125 0)"/>
     <use xlink:href="#DejaVuSerif-59" transform="translate(1634.609375 0)"/>
     <use xlink:href="#DejaVuSerif-48" transform="translate(1691.109375 0)"/>
     <use xlink:href="#DejaVuSerif-4f" transform="translate(1750.296875 0)"/>
     <use xlink:href="#DejaVuSerif-52" transform="translate(1782.28125 0)"/>
     <use xlink:href="#DejaVuSerif-53" transform="translate(1842.484375 0)"/>
     <use xlink:href="#DejaVuSerif-48" transform="translate(1906.5 0)"/>
     <use xlink:href="#DejaVuSerif-3" transform="translate(1965.6875 0)"/>
     <use xlink:href="#DejaVuSerif-b" transform="translate(1997.46875 0)"/>
     <use xlink:href="#DejaVuSerif-31" transform="translate(2036.484375 0)"/>
     <use xlink:href="#DejaVuSerif-52" transform="translate(2123.984375 0)"/>
     <use xlink:href="#DejaVuSerif-55" transform="translate(2184.1875 0)"/>
     <use xlink:href="#DejaVuSerif-50" transform="translate(2231.984375 0)"/>
     <use xlink:href="#DejaVuSerif-44" transform="translate(2326.8125 0)"/>
     <use xlink:href="#DejaVuSerif-4f" transform="translate(2386.4375 0)"/>
     <use xlink:href="#DejaVuSerif-4c" transform="translate(2418.421875 0)"/>
     <use xlink:href="#DejaVuSerif-5d" transform="translate(2450.40625 0)"/>
     <use xlink:href="#DejaVuSerif-48" transform="translate(2503.09375 0)"/>
     <use xlink:href="#DejaVuSerif-47" transform="translate(2562.28125 0)"/>
     <use xlink:href="#DejaVuSerif-c" transform="translate(2626.296875 0)"/>
    </g>
   </g>
   <g id="legend_1">
    <g id="patch_9">
     <path d="M 9.2 464.171673 
L 143.60625 464.171673 
Q 145.60625 464.171673 145.60625 462.171673 
L 145.60625 388.167766 
Q 145.60625 386.167766 143.60625 386.167766 
L 9.2 386.167766 
Q 7.2 386.167766 7.2 388.167766 
L 7.2 462.171673 
Q 7.2 464.171673 9.2 464.171673 
z
" style="fill: #ffffff; opacity: 0.8; stroke: #cccccc; stroke-linejoin: miter"/>
    </g>
    <g id="line2d_16">
     <path d="M 11.2 394.266204 
L 21.2 394.266204 
L 31.2 394.266204 
" style="fill: none; stroke: #1f77b4; stroke-width: 2; stroke-linecap: square"/>
    </g>
    <g id="text_12">
     <!-- E3-Hybrid-WTime -->
     <g transform="translate(39.2 397.766204) scale(0.1 -0.1)">
      <defs>
       <path id="DejaVuSerif-16" d="M 622 4469 
Q 988 4606 1323 4678 
Q 1659 4750 1953 4750 
Q 2638 4750 3022 4454 
Q 3406 4159 3406 3634 
Q 3406 3213 3140 2930 
Q 2875 2647 2388 2547 
Q 2963 2466 3280 2130 
Q 3597 1794 3597 1259 
Q 3597 606 3158 257 
Q 2719 -91 1894 -91 
Q 1528 -91 1179 -12 
Q 831 66 488 225 
L 488 1131 
L 838 1131 
Q 869 681 1141 450 
Q 1413 219 1906 219 
Q 2384 219 2661 495 
Q 2938 772 2938 1253 
Q 2938 1803 2653 2086 
Q 2369 2369 1819 2369 
L 1522 2369 
L 1522 2688 
L 1678 2688 
Q 2225 2688 2498 2914 
Q 2772 3141 2772 3597 
Q 2772 4006 2547 4223 
Q 2322 4441 1900 4441 
Q 1478 4441 1245 4241 
Q 1013 4041 972 3647 
L 622 3647 
L 622 4469 
z
" transform="scale(0.015625)"/>
       <path id="DejaVuSerif-2b" d="M 353 0 
L 353 331 
L 947 331 
L 947 4331 
L 353 4331 
L 353 4666 
L 2175 4666 
L 2175 4331 
L 1581 4331 
L 1581 2719 
L 4000 2719 
L 4000 4331 
L 3406 4331 
L 3406 4666 
L 5228 4666 
L 5228 4331 
L 4634 4331 
L 4634 331 
L 5228 331 
L 5228 0 
L 3406 0 
L 3406 331 
L 4000 331 
L 4000 2338 
L 1581 2338 
L 1581 331 
L 2175 331 
L 2175 0 
L 353 0 
z
" transform="scale(0.015625)"/>
       <path id="DejaVuSerif-3a" d="M 4878 0 
L 4366 0 
L 3297 3794 
L 2228 0 
L 1716 0 
L 494 4331 
L 31 4331 
L 31 4666 
L 1734 4666 
L 1734 4331 
L 1153 4331 
L 2125 884 
L 3188 4666 
L 3694 4666 
L 4775 844 
L 5753 4331 
L 5216 4331 
L 5216 4666 
L 6559 4666 
L 6559 4331 
L 6100 4331 
L 4878 0 
z
" transform="scale(0.015625)"/>
      </defs>
      <use xlink:href="#DejaVuSerif-28"/>
      <use xlink:href="#DejaVuSerif-16" transform="translate(73 0)"/>
      <use xlink:href="#DejaVuSerif-10" transform="translate(136.625 0)"/>
      <use xlink:href="#DejaVuSerif-2b" transform="translate(170.421875 0)"/>
      <use xlink:href="#DejaVuSerif-5c" transform="translate(257.625 0)"/>
      <use xlink:href="#DejaVuSerif-45" transform="translate(314.125 0)"/>
      <use xlink:href="#DejaVuSerif-55" transform="translate(378.140625 0)"/>
      <use xlink:href="#DejaVuSerif-4c" transform="translate(425.9375 0)"/>
      <use xlink:href="#DejaVuSerif-47" transform="translate(457.921875 0)"/>
      <use xlink:href="#DejaVuSerif-10" transform="translate(521.9375 0)"/>
      <use xlink:href="#DejaVuSerif-3a" transform="translate(550.265625 0)"/>
      <use xlink:href="#DejaVuSerif-37" transform="translate(653.046875 0)"/>
      <use xlink:href="#DejaVuSerif-4c" transform="translate(719.75 0)"/>
      <use xlink:href="#DejaVuSerif-50" transform="translate(751.734375 0)"/>
      <use xlink:href="#DejaVuSerif-48" transform="translate(846.5625 0)"/>
     </g>
    </g>
    <g id="line2d_17">
     <path d="M 11.2 409.266985 
L 21.2 409.266985 
L 31.2 409.266985 
" style="fill: none; stroke: #ff7f0e; stroke-width: 2; stroke-linecap: square"/>
    </g>
    <g id="text_13">
     <!-- E3-Hybrid-WEnergy -->
     <g transform="translate(39.2 412.766985) scale(0.1 -0.1)">
      <use xlink:href="#DejaVuSerif-28"/>
      <use xlink:href="#DejaVuSerif-16" transform="translate(73 0)"/>
      <use xlink:href="#DejaVuSerif-10" transform="translate(136.625 0)"/>
      <use xlink:href="#DejaVuSerif-2b" transform="translate(170.421875 0)"/>
      <use xlink:href="#DejaVuSerif-5c" transform="translate(257.625 0)"/>
      <use xlink:href="#DejaVuSerif-45" transform="translate(314.125 0)"/>
      <use xlink:href="#DejaVuSerif-55" transform="translate(378.140625 0)"/>
      <use xlink:href="#DejaVuSerif-4c" transform="translate(425.9375 0)"/>
      <use xlink:href="#DejaVuSerif-47" transform="translate(457.921875 0)"/>
      <use xlink:href="#DejaVuSerif-10" transform="translate(521.9375 0)"/>
      <use xlink:href="#DejaVuSerif-3a" transform="translate(550.265625 0)"/>
      <use xlink:href="#DejaVuSerif-28" transform="translate(653.046875 0)"/>
      <use xlink:href="#DejaVuSerif-51" transform="translate(726.046875 0)"/>
      <use xlink:href="#DejaVuSerif-48" transform="translate(790.453125 0)"/>
      <use xlink:href="#DejaVuSerif-55" transform="translate(849.640625 0)"/>
      <use xlink:href="#DejaVuSerif-4a" transform="translate(897.4375 0)"/>
      <use xlink:href="#DejaVuSerif-5c" transform="translate(961.453125 0)"/>
     </g>
    </g>
    <g id="line2d_18">
     <path d="M 11.2 424.267766 
L 21.2 424.267766 
L 31.2 424.267766 
" style="fill: none; stroke: #2ca02c; stroke-width: 2; stroke-linecap: square"/>
    </g>
    <g id="text_14">
     <!-- E3-Hybrid-WSafety -->
     <g transform="translate(39.2 427.767766) scale(0.1 -0.1)">
      <use xlink:href="#DejaVuSerif-28"/>
      <use xlink:href="#DejaVuSerif-16" transform="translate(73 0)"/>
      <use xlink:href="#DejaVuSerif-10" transform="translate(136.625 0)"/>
      <use xlink:href="#DejaVuSerif-2b" transform="translate(170.421875 0)"/>
      <use xlink:href="#DejaVuSerif-5c" transform="translate(257.625 0)"/>
      <use xlink:href="#DejaVuSerif-45" transform="translate(314.125 0)"/>
      <use xlink:href="#DejaVuSerif-55" transform="translate(378.140625 0)"/>
      <use xlink:href="#DejaVuSerif-4c" transform="translate(425.9375 0)"/>
      <use xlink:href="#DejaVuSerif-47" transform="translate(457.921875 0)"/>
      <use xlink:href="#DejaVuSerif-10" transform="translate(521.9375 0)"/>
      <use xlink:href="#DejaVuSerif-3a" transform="translate(550.265625 0)"/>
      <use xlink:href="#DejaVuSerif-36" transform="translate(653.046875 0)"/>
      <use xlink:href="#DejaVuSerif-44" transform="translate(721.546875 0)"/>
      <use xlink:href="#DejaVuSerif-49" transform="translate(781.171875 0)"/>
      <use xlink:href="#DejaVuSerif-48" transform="translate(818.1875 0)"/>
      <use xlink:href="#DejaVuSerif-57" transform="translate(877.375 0)"/>
      <use xlink:href="#DejaVuSerif-5c" transform="translate(917.5625 0)"/>
     </g>
    </g>
    <g id="line2d_19">
     <path d="M 11.2 439.268548 
L 21.2 439.268548 
L 31.2 439.268548 
" style="fill: none; stroke: #d62728; stroke-width: 2; stroke-linecap: square"/>
    </g>
    <g id="text_15">
     <!-- E3-Hybrid-Balanced -->
     <g transform="translate(39.2 442.768548) scale(0.1 -0.1)">
      <defs>
       <path id="DejaVuSerif-25" d="M 1581 331 
L 2516 331 
Q 3078 331 3337 575 
Q 3597 819 3597 1350 
Q 3597 1878 3339 2120 
Q 3081 2363 2516 2363 
L 1581 2363 
L 1581 331 
z
M 1581 2694 
L 2375 2694 
Q 2888 2694 3123 2891 
Q 3359 3088 3359 3513 
Q 3359 3941 3123 4136 
Q 2888 4331 2375 4331 
L 1581 4331 
L 1581 2694 
z
M 353 0 
L 353 331 
L 947 331 
L 947 4331 
L 353 4331 
L 353 4666 
L 2656 4666 
Q 3363 4666 3720 4377 
Q 4078 4088 4078 3513 
Q 4078 3097 3829 2850 
Q 3581 2603 3103 2547 
Q 3697 2472 4005 2167 
Q 4313 1863 4313 1350 
Q 4313 656 3875 328 
Q 3438 0 2509 0 
L 353 0 
z
" transform="scale(0.015625)"/>
      </defs>
      <use xlink:href="#DejaVuSerif-28"/>
      <use xlink:href="#DejaVuSerif-16" transform="translate(73 0)"/>
      <use xlink:href="#DejaVuSerif-10" transform="translate(136.625 0)"/>
      <use xlink:href="#DejaVuSerif-2b" transform="translate(170.421875 0)"/>
      <use xlink:href="#DejaVuSerif-5c" transform="translate(257.625 0)"/>
      <use xlink:href="#DejaVuSerif-45" transform="translate(314.125 0)"/>
      <use xlink:href="#DejaVuSerif-55" transform="translate(378.140625 0)"/>
      <use xlink:href="#DejaVuSerif-4c" transform="translate(425.9375 0)"/>
      <use xlink:href="#DejaVuSerif-47" transform="translate(457.921875 0)"/>
      <use xlink:href="#DejaVuSerif-10" transform="translate(521.9375 0)"/>
      <use xlink:href="#DejaVuSerif-25" transform="translate(555.734375 0)"/>
      <use xlink:href="#DejaVuSerif-44" transform="translate(629.21875 0)"/>
      <use xlink:href="#DejaVuSerif-4f" transform="translate(688.84375 0)"/>
      <use xlink:href="#DejaVuSerif-44" transform="translate(720.828125 0)"/>
      <use xlink:href="#DejaVuSerif-51" transform="translate(780.453125 0)"/>
      <use xlink:href="#DejaVuSerif-46" transform="translate(844.859375 0)"/>
      <use xlink:href="#DejaVuSerif-48" transform="translate(900.859375 0)"/>
      <use xlink:href="#DejaVuSerif-47" transform="translate(960.046875 0)"/>
     </g>
    </g>
    <g id="line2d_20">
     <path d="M 11.2 454.269329 
L 21.2 454.269329 
L 31.2 454.269329 
" style="fill: none; stroke: #9467bd; stroke-width: 2; stroke-linecap: square"/>
    </g>
    <g id="text_16">
     <!-- E3-Hybrid-Thesis -->
     <g transform="translate(39.2 457.769329) scale(0.1 -0.1)">
      <defs>
       <path id="DejaVuSerif-4b" d="M 263 0 
L 263 331 
L 781 331 
L 781 4531 
L 231 4531 
L 231 4863 
L 1356 4863 
L 1356 2731 
Q 1516 3069 1770 3241 
Q 2025 3413 2363 3413 
Q 2913 3413 3172 3097 
Q 3431 2781 3431 2113 
L 3431 331 
L 3944 331 
L 3944 0 
L 2356 0 
L 2356 331 
L 2853 331 
L 2853 1931 
Q 2853 2541 2704 2764 
Q 2556 2988 2175 2988 
Q 1775 2988 1565 2697 
Q 1356 2406 1356 1850 
L 1356 331 
L 1856 331 
L 1856 0 
L 263 0 
z
" transform="scale(0.015625)"/>
      </defs>
      <use xlink:href="#DejaVuSerif-28"/>
      <use xlink:href="#DejaVuSerif-16" transform="translate(73 0)"/>
      <use xlink:href="#DejaVuSerif-10" transform="translate(136.625 0)"/>
      <use xlink:href="#DejaVuSerif-2b" transform="translate(170.421875 0)"/>
      <use xlink:href="#DejaVuSerif-5c" transform="translate(257.625 0)"/>
      <use xlink:href="#DejaVuSerif-45" transform="translate(314.125 0)"/>
      <use xlink:href="#DejaVuSerif-55" transform="translate(378.140625 0)"/>
      <use xlink:href="#DejaVuSerif-4c" transform="translate(425.9375 0)"/>
      <use xlink:href="#DejaVuSerif-47" transform="translate(457.921875 0)"/>
      <use xlink:href="#DejaVuSerif-10" transform="translate(521.9375 0)"/>
      <use xlink:href="#DejaVuSerif-37" transform="translate(552.171875 0)"/>
      <use xlink:href="#DejaVuSerif-4b" transform="translate(618.875 0)"/>
      <use xlink:href="#DejaVuSerif-48" transform="translate(683.28125 0)"/>
      <use xlink:href="#DejaVuSerif-56" transform="translate(742.46875 0)"/>
      <use xlink:href="#DejaVuSerif-4c" transform="translate(793.78125 0)"/>
      <use xlink:href="#DejaVuSerif-56" transform="translate(825.765625 0)"/>
     </g>
    </g>
   </g>
  </g>
 </g>
 <defs>
  <clipPath id="pd4aa570add">
   <path d="M 499.87825 225.935766 
C 499.87825 200.454667 494.859029 175.221339 485.107834 151.679873 
C 475.35664 128.138407 461.063108 106.746625 443.04525 88.728767 
C 425.027392 70.710908 403.635609 56.417376 380.094143 46.666182 
C 356.552677 36.914987 331.319349 31.895766 305.83825 31.895766 
C 280.357151 31.895766 255.123823 36.914987 231.582357 46.666182 
C 208.040891 56.417376 186.649108 70.710908 168.63125 88.728767 
C 150.613392 106.746625 136.31986 128.138407 126.568666 151.679873 
C 116.817471 175.221339 111.79825 200.454667 111.79825 225.935766 
C 111.79825 251.416866 116.817471 276.650193 126.568666 300.19166 
C 136.31986 323.733126 150.613392 345.124908 168.63125 363.142766 
C 186.649108 381.160624 208.040891 395.454156 231.582357 405.205351 
C 255.123823 414.956545 280.357151 419.975766 305.83825 419.975766 
C 331.319349 419.975766 356.552677 414.956545 380.094143 405.205351 
C 403.635609 395.454156 425.027392 381.160624 443.04525 363.142766 
C 461.063108 345.124908 475.35664 323.733126 485.107834 300.19166 
C 494.859029 276.650193 499.87825 251.416866 499.87825 225.935766 
M 305.83825 225.935766 
C 305.83825 225.935766 305.83825 225.935766 305.83825 225.935766 
C 305.83825 225.935766 305.83825 225.935766 305.83825 225.935766 
C 305.83825 225.935766 305.83825 225.935766 305.83825 225.935766 
C 305.83825 225.935766 305.83825 225.935766 305.83825 225.935766 
C 305.83825 225.935766 305.83825 225.935766 305.83825 225.935766 
C 305.83825 225.935766 305.83825 225.935766 305.83825 225.935766 
C 305.83825 225.935766 305.83825 225.935766 305.83825 225.935766 
C 305.83825 225.935766 305.83825 225.935766 305.83825 225.935766 
C 305.83825 225.935766 305.83825 225.935766 305.83825 225.935766 
C 305.83825 225.935766 305.83825 225.935766 305.83825 225.935766 
C 305.83825 225.935766 305.83825 225.935766 305.83825 225.935766 
C 305.83825 225.935766 305.83825 225.935766 305.83825 225.935766 
C 305.83825 225.935766 305.83825 225.935766 305.83825 225.935766 
C 305.83825 225.935766 305.83825 225.935766 305.83825 225.935766 
C 305.83825 225.935766 305.83825 225.935766 305.83825 225.935766 
C 305.83825 225.935766 305.83825 225.935766 305.83825 225.935766 
z
"/>
  </clipPath>
 </defs>
</svg>
