<?xml version="1.0" encoding="utf-8" standalone="no"?>
<!DOCTYPE svg PUBLIC "-//W3C//DTD SVG 1.1//EN"
  "http://www.w3.org/Graphics/SVG/1.1/DTD/svg11.dtd">
<svg xmlns:xlink="http://www.w3.org/1999/xlink" width="447.088437pt" height="340.478906pt" viewBox="0 0 447.088437 340.478906" xmlns="http://www.w3.org/2000/svg" version="1.1">
 <metadata>
  <rdf:RDF xmlns:dc="http://purl.org/dc/elements/1.1/" xmlns:cc="http://creativecommons.org/ns#" xmlns:rdf="http://www.w3.org/1999/02/22-rdf-syntax-ns#">
   <cc:Work>
    <dc:type rdf:resource="http://purl.org/dc/dcmitype/StillImage"/>
    <dc:date>2026-07-15T18:05:15.039933</dc:date>
    <dc:format>image/svg+xml</dc:format>
    <dc:creator>
     <cc:Agent>
      <dc:title>Matplotlib v3.11.0, https://matplotlib.org/</dc:title>
     </cc:Agent>
    </dc:creator>
   </cc:Work>
  </rdf:RDF>
 </metadata>
 <defs>
  <style type="text/css">*{stroke-linejoin: round; stroke-linecap: butt}</style>
 </defs>
 <g id="figure_1">
  <g id="patch_1">
   <path d="M 0 340.478906 
L 447.088437 340.478906 
L 447.088437 0 
L 0 0 
z
" style="fill: #ffffff"/>
  </g>
  <g id="axes_1">
   <g id="patch_2">
    <path d="M 49.288438 300.277969 
L 439.888438 300.277969 
L 439.888438 23.077969 
L 49.288438 23.077969 
z
" style="fill: #ffffff"/>
   </g>
   <g id="matplotlib.axis_1">
    <g id="xtick_1">
     <g id="line2d_1">
      <path d="M 67.042983 300.277969 
L 67.042983 23.077969 
" clip-path="url(#p3ad99cc34c)" style="fill: none; stroke-dasharray: 2.96,1.28; stroke-dashoffset: 0; stroke: #b0b0b0; stroke-opacity: 0.3; stroke-width: 0.8"/>
     </g>
     <g id="line2d_2">
      <defs>
       <path id="mc87b1fbdeb" d="M 0 0 
L 0 3.5 
" style="stroke: #000000; stroke-width: 0.8"/>
      </defs>
      <g>
       <use xlink:href="#mc87b1fbdeb" x="67.042983" y="300.277969" style="stroke: #000000; stroke-width: 0.8"/>
      </g>
     </g>
     <g id="text_1">
      <!-- 100 -->
      <g transform="translate(57.499233 314.875625) scale(0.1 -0.1)">
       <defs>
        <path id="DejaVuSerif-14" d="M 909 0 
L 909 331 
L 1722 331 
L 1722 4213 
L 781 3603 
L 781 4013 
L 1919 4750 
L 2350 4750 
L 2350 331 
L 3163 331 
L 3163 0 
L 909 0 
z
" transform="scale(0.015625)"/>
        <path id="DejaVuSerif-13" d="M 2034 219 
Q 2513 219 2750 744 
Q 2988 1269 2988 2328 
Q 2988 3391 2750 3916 
Q 2513 4441 2034 4441 
Q 1556 4441 1318 3916 
Q 1081 3391 1081 2328 
Q 1081 1269 1318 744 
Q 1556 219 2034 219 
z
M 2034 -91 
Q 1275 -91 848 546 
Q 422 1184 422 2328 
Q 422 3475 848 4112 
Q 1275 4750 2034 4750 
Q 2797 4750 3222 4112 
Q 3647 3475 3647 2328 
Q 3647 1184 3222 546 
Q 2797 -91 2034 -91 
z
" transform="scale(0.015625)"/>
       </defs>
       <use xlink:href="#DejaVuSerif-14"/>
       <use xlink:href="#DejaVuSerif-13" transform="translate(63.625 0)"/>
       <use xlink:href="#DejaVuSerif-13" transform="translate(127.25 0)"/>
      </g>
     </g>
    </g>
    <g id="xtick_2">
     <g id="line2d_3">
      <path d="M 422.133892 300.277969 
L 422.133892 23.077969 
" clip-path="url(#p3ad99cc34c)" style="fill: none; stroke-dasharray: 2.96,1.28; stroke-dashoffset: 0; stroke: #b0b0b0; stroke-opacity: 0.3; stroke-width: 0.8"/>
     </g>
     <g id="line2d_4">
      <g>
       <use xlink:href="#mc87b1fbdeb" x="422.133892" y="300.277969" style="stroke: #000000; stroke-width: 0.8"/>
      </g>
     </g>
     <g id="text_2">
      <!-- 200 -->
      <g transform="translate(412.590142 314.875625) scale(0.1 -0.1)">
       <defs>
        <path id="DejaVuSerif-15" d="M 819 3553 
L 469 3553 
L 469 4384 
Q 803 4563 1142 4656 
Q 1481 4750 1806 4750 
Q 2534 4750 2956 4397 
Q 3378 4044 3378 3438 
Q 3378 2753 2422 1800 
Q 2347 1728 2309 1691 
L 1131 513 
L 3078 513 
L 3078 1088 
L 3444 1088 
L 3444 0 
L 434 0 
L 434 341 
L 1850 1753 
Q 2319 2222 2519 2614 
Q 2719 3006 2719 3438 
Q 2719 3909 2473 4175 
Q 2228 4441 1797 4441 
Q 1350 4441 1106 4219 
Q 863 3997 819 3553 
z
" transform="scale(0.015625)"/>
       </defs>
       <use xlink:href="#DejaVuSerif-15"/>
       <use xlink:href="#DejaVuSerif-13" transform="translate(63.625 0)"/>
       <use xlink:href="#DejaVuSerif-13" transform="translate(127.25 0)"/>
      </g>
     </g>
    </g>
    <g id="text_3">
     <!-- Vehicle Fleet Scale -->
     <g transform="translate(186.712813 330.396094) scale(0.12 -0.12)">
      <defs>
       <path id="DejaVuSerif-39" d="M 1119 4331 
L 2497 750 
L 3872 4331 
L 3347 4331 
L 3347 4666 
L 4716 4666 
L 4716 4331 
L 4263 4331 
L 2597 0 
L 2059 0 
L 403 4331 
L -63 4331 
L -63 4666 
L 1638 4666 
L 1638 4331 
L 1119 4331 
z
" transform="scale(0.015625)"/>
       <path id="DejaVuSerif-48" d="M 3469 1600 
L 991 1600 
L 991 1575 
Q 991 903 1244 561 
Q 1497 219 1991 219 
Q 2369 219 2611 417 
Q 2853 616 2950 1006 
L 3413 1006 
Q 3275 459 2904 184 
Q 2534 -91 1931 -91 
Q 1203 -91 761 389 
Q 319 869 319 1663 
Q 319 2450 753 2931 
Q 1188 3413 1894 3413 
Q 2647 3413 3050 2948 
Q 3453 2484 3469 1600 
z
M 2791 1931 
Q 2772 2513 2545 2808 
Q 2319 3103 1894 3103 
Q 1497 3103 1269 2806 
Q 1041 2509 991 1931 
L 2791 1931 
z
" transform="scale(0.015625)"/>
       <path id="DejaVuSerif-4b" d="M 263 0 
L 263 331 
L 781 331 
L 781 4531 
L 231 4531 
L 231 4863 
L 1356 4863 
L 1356 2731 
Q 1516 3069 1770 3241 
Q 2025 3413 2363 3413 
Q 2913 3413 3172 3097 
Q 3431 2781 3431 2113 
L 3431 331 
L 3944 331 
L 3944 0 
L 2356 0 
L 2356 331 
L 2853 331 
L 2853 1931 
Q 2853 2541 2704 2764 
Q 2556 2988 2175 2988 
Q 1775 2988 1565 2697 
Q 1356 2406 1356 1850 
L 1356 331 
L 1856 331 
L 1856 0 
L 263 0 
z
" transform="scale(0.015625)"/>
       <path id="DejaVuSerif-4c" d="M 622 4353 
Q 622 4497 726 4603 
Q 831 4709 978 4709 
Q 1122 4709 1226 4603 
Q 1331 4497 1331 4353 
Q 1331 4206 1228 4103 
Q 1125 4000 978 4000 
Q 831 4000 726 4103 
Q 622 4206 622 4353 
z
M 1356 331 
L 1900 331 
L 1900 0 
L 231 0 
L 231 331 
L 781 331 
L 781 2988 
L 231 2988 
L 231 3322 
L 1356 3322 
L 1356 331 
z
" transform="scale(0.015625)"/>
       <path id="DejaVuSerif-46" d="M 3291 997 
Q 3169 466 2822 187 
Q 2475 -91 1925 -91 
Q 1200 -91 759 389 
Q 319 869 319 1663 
Q 319 2459 759 2936 
Q 1200 3413 1925 3413 
Q 2241 3413 2553 3339 
Q 2866 3266 3181 3116 
L 3181 2266 
L 2847 2266 
Q 2781 2703 2561 2903 
Q 2341 3103 1931 3103 
Q 1466 3103 1228 2742 
Q 991 2381 991 1663 
Q 991 944 1227 581 
Q 1463 219 1931 219 
Q 2303 219 2525 412 
Q 2747 606 2828 997 
L 3291 997 
z
" transform="scale(0.015625)"/>
       <path id="DejaVuSerif-4f" d="M 1313 331 
L 1856 331 
L 1856 0 
L 184 0 
L 184 331 
L 738 331 
L 738 4531 
L 184 4531 
L 184 4863 
L 1313 4863 
L 1313 331 
z
" transform="scale(0.015625)"/>
       <path id="DejaVuSerif-3" transform="scale(0.015625)"/>
       <path id="DejaVuSerif-29" d="M 353 0 
L 353 331 
L 947 331 
L 947 4331 
L 353 4331 
L 353 4666 
L 4172 4666 
L 4172 3628 
L 3788 3628 
L 3788 4281 
L 1581 4281 
L 1581 2719 
L 3175 2719 
L 3175 3303 
L 3559 3303 
L 3559 1753 
L 3175 1753 
L 3175 2338 
L 1581 2338 
L 1581 331 
L 2328 331 
L 2328 0 
L 353 0 
z
" transform="scale(0.015625)"/>
       <path id="DejaVuSerif-57" d="M 691 2988 
L 184 2988 
L 184 3322 
L 691 3322 
L 691 4353 
L 1269 4353 
L 1269 3322 
L 2350 3322 
L 2350 2988 
L 1269 2988 
L 1269 878 
Q 1269 456 1350 337 
Q 1431 219 1650 219 
Q 1875 219 1978 351 
Q 2081 484 2088 781 
L 2522 781 
Q 2497 328 2275 118 
Q 2053 -91 1600 -91 
Q 1103 -91 897 129 
Q 691 350 691 878 
L 691 2988 
z
" transform="scale(0.015625)"/>
       <path id="DejaVuSerif-36" d="M 594 225 
L 594 1288 
L 953 1284 
Q 969 753 1261 498 
Q 1553 244 2150 244 
Q 2706 244 2998 464 
Q 3291 684 3291 1106 
Q 3291 1444 3114 1625 
Q 2938 1806 2369 1978 
L 1753 2163 
Q 1084 2366 811 2669 
Q 538 2972 538 3500 
Q 538 4094 959 4422 
Q 1381 4750 2144 4750 
Q 2469 4750 2856 4679 
Q 3244 4609 3681 4475 
L 3681 3481 
L 3328 3481 
Q 3275 3975 2998 4195 
Q 2722 4416 2156 4416 
Q 1663 4416 1405 4214 
Q 1147 4013 1147 3628 
Q 1147 3294 1340 3103 
Q 1534 2913 2163 2725 
L 2741 2553 
Q 3375 2363 3645 2067 
Q 3916 1772 3916 1275 
Q 3916 597 3481 253 
Q 3047 -91 2188 -91 
Q 1803 -91 1404 -12 
Q 1006 66 594 225 
z
" transform="scale(0.015625)"/>
       <path id="DejaVuSerif-44" d="M 2547 1044 
L 2547 1747 
L 1806 1747 
Q 1378 1747 1168 1562 
Q 959 1378 959 997 
Q 959 650 1171 447 
Q 1384 244 1747 244 
Q 2106 244 2326 466 
Q 2547 688 2547 1044 
z
M 3122 2075 
L 3122 331 
L 3634 331 
L 3634 0 
L 2547 0 
L 2547 359 
Q 2356 128 2106 18 
Q 1856 -91 1522 -91 
Q 969 -91 644 203 
Q 319 497 319 997 
Q 319 1513 691 1797 
Q 1063 2081 1741 2081 
L 2547 2081 
L 2547 2309 
Q 2547 2688 2317 2895 
Q 2088 3103 1672 3103 
Q 1328 3103 1125 2947 
Q 922 2791 872 2484 
L 575 2484 
L 575 3156 
Q 875 3284 1158 3348 
Q 1441 3413 1709 3413 
Q 2400 3413 2761 3070 
Q 3122 2728 3122 2075 
z
" transform="scale(0.015625)"/>
      </defs>
      <use xlink:href="#DejaVuSerif-39"/>
      <use xlink:href="#DejaVuSerif-48" transform="translate(63.046875 0)"/>
      <use xlink:href="#DejaVuSerif-4b" transform="translate(122.234375 0)"/>
      <use xlink:href="#DejaVuSerif-4c" transform="translate(186.640625 0)"/>
      <use xlink:href="#DejaVuSerif-46" transform="translate(218.625 0)"/>
      <use xlink:href="#DejaVuSerif-4f" transform="translate(274.625 0)"/>
      <use xlink:href="#DejaVuSerif-48" transform="translate(306.609375 0)"/>
      <use xlink:href="#DejaVuSerif-3" transform="translate(365.796875 0)"/>
      <use xlink:href="#DejaVuSerif-29" transform="translate(397.578125 0)"/>
      <use xlink:href="#DejaVuSerif-4f" transform="translate(466.96875 0)"/>
      <use xlink:href="#DejaVuSerif-48" transform="translate(498.953125 0)"/>
      <use xlink:href="#DejaVuSerif-48" transform="translate(558.140625 0)"/>
      <use xlink:href="#DejaVuSerif-57" transform="translate(617.328125 0)"/>
      <use xlink:href="#DejaVuSerif-3" transform="translate(657.515625 0)"/>
      <use xlink:href="#DejaVuSerif-36" transform="translate(689.296875 0)"/>
      <use xlink:href="#DejaVuSerif-46" transform="translate(757.796875 0)"/>
      <use xlink:href="#DejaVuSerif-44" transform="translate(813.796875 0)"/>
      <use xlink:href="#DejaVuSerif-4f" transform="translate(873.421875 0)"/>
      <use xlink:href="#DejaVuSerif-48" transform="translate(905.40625 0)"/>
     </g>
    </g>
   </g>
   <g id="matplotlib.axis_2">
    <g id="ytick_1">
     <g id="line2d_5">
      <path d="M 49.288438 275.052118 
L 439.888438 275.052118 
" clip-path="url(#p3ad99cc34c)" style="fill: none; stroke-dasharray: 2.96,1.28; stroke-dashoffset: 0; stroke: #b0b0b0; stroke-opacity: 0.3; stroke-width: 0.8"/>
     </g>
     <g id="line2d_6">
      <defs>
       <path id="mc7ad6c81c9" d="M 0 0 
L -3.5 0 
" style="stroke: #000000; stroke-width: 0.8"/>
      </defs>
      <g>
       <use xlink:href="#mc7ad6c81c9" x="49.288438" y="275.052118" style="stroke: #000000; stroke-width: 0.8"/>
      </g>
     </g>
     <g id="text_4">
      <!-- 260 -->
      <g transform="translate(23.200938 278.850946) scale(0.1 -0.1)">
       <defs>
        <path id="DejaVuSerif-19" d="M 2094 219 
Q 2534 219 2771 542 
Q 3009 866 3009 1472 
Q 3009 2078 2771 2401 
Q 2534 2725 2094 2725 
Q 1647 2725 1412 2412 
Q 1178 2100 1178 1509 
Q 1178 888 1415 553 
Q 1653 219 2094 219 
z
M 1075 2569 
Q 1288 2803 1556 2918 
Q 1825 3034 2163 3034 
Q 2859 3034 3264 2615 
Q 3669 2197 3669 1472 
Q 3669 763 3233 336 
Q 2797 -91 2069 -91 
Q 1278 -91 853 498 
Q 428 1088 428 2181 
Q 428 3406 931 4078 
Q 1434 4750 2350 4750 
Q 2597 4750 2869 4703 
Q 3141 4656 3425 4563 
L 3425 3794 
L 3072 3794 
Q 3034 4109 2831 4275 
Q 2628 4441 2284 4441 
Q 1678 4441 1381 3981 
Q 1084 3522 1075 2569 
z
" transform="scale(0.015625)"/>
       </defs>
       <use xlink:href="#DejaVuSerif-15"/>
       <use xlink:href="#DejaVuSerif-19" transform="translate(63.625 0)"/>
       <use xlink:href="#DejaVuSerif-13" transform="translate(127.25 0)"/>
      </g>
     </g>
    </g>
    <g id="ytick_2">
     <g id="line2d_7">
      <path d="M 49.288438 236.631087 
L 439.888438 236.631087 
" clip-path="url(#p3ad99cc34c)" style="fill: none; stroke-dasharray: 2.96,1.28; stroke-dashoffset: 0; stroke: #b0b0b0; stroke-opacity: 0.3; stroke-width: 0.8"/>
     </g>
     <g id="line2d_8">
      <g>
       <use xlink:href="#mc7ad6c81c9" x="49.288438" y="236.631087" style="stroke: #000000; stroke-width: 0.8"/>
      </g>
     </g>
     <g id="text_5">
      <!-- 265 -->
      <g transform="translate(23.200938 240.429915) scale(0.1 -0.1)">
       <defs>
        <path id="DejaVuSerif-18" d="M 3219 4666 
L 3219 4153 
L 1081 4153 
L 1081 2816 
Q 1244 2928 1461 2984 
Q 1678 3041 1947 3041 
Q 2703 3041 3140 2622 
Q 3578 2203 3578 1478 
Q 3578 738 3136 323 
Q 2694 -91 1894 -91 
Q 1572 -91 1234 -12 
Q 897 66 544 225 
L 544 1131 
L 897 1131 
Q 925 688 1179 453 
Q 1434 219 1894 219 
Q 2388 219 2653 544 
Q 2919 869 2919 1478 
Q 2919 2084 2655 2407 
Q 2391 2731 1894 2731 
Q 1613 2731 1398 2631 
Q 1184 2531 1019 2322 
L 750 2322 
L 750 4666 
L 3219 4666 
z
" transform="scale(0.015625)"/>
       </defs>
       <use xlink:href="#DejaVuSerif-15"/>
       <use xlink:href="#DejaVuSerif-19" transform="translate(63.625 0)"/>
       <use xlink:href="#DejaVuSerif-18" transform="translate(127.25 0)"/>
      </g>
     </g>
    </g>
    <g id="ytick_3">
     <g id="line2d_9">
      <path d="M 49.288438 198.210055 
L 439.888438 198.210055 
" clip-path="url(#p3ad99cc34c)" style="fill: none; stroke-dasharray: 2.96,1.28; stroke-dashoffset: 0; stroke: #b0b0b0; stroke-opacity: 0.3; stroke-width: 0.8"/>
     </g>
     <g id="line2d_10">
      <g>
       <use xlink:href="#mc7ad6c81c9" x="49.288438" y="198.210055" style="stroke: #000000; stroke-width: 0.8"/>
      </g>
     </g>
     <g id="text_6">
      <!-- 270 -->
      <g transform="translate(23.200938 202.008883) scale(0.1 -0.1)">
       <defs>
        <path id="DejaVuSerif-1a" d="M 3609 4347 
L 1784 0 
L 1319 0 
L 3059 4153 
L 903 4153 
L 903 3578 
L 538 3578 
L 538 4666 
L 3609 4666 
L 3609 4347 
z
" transform="scale(0.015625)"/>
       </defs>
       <use xlink:href="#DejaVuSerif-15"/>
       <use xlink:href="#DejaVuSerif-1a" transform="translate(63.625 0)"/>
       <use xlink:href="#DejaVuSerif-13" transform="translate(127.25 0)"/>
      </g>
     </g>
    </g>
    <g id="ytick_4">
     <g id="line2d_11">
      <path d="M 49.288438 159.789024 
L 439.888438 159.789024 
" clip-path="url(#p3ad99cc34c)" style="fill: none; stroke-dasharray: 2.96,1.28; stroke-dashoffset: 0; stroke: #b0b0b0; stroke-opacity: 0.3; stroke-width: 0.8"/>
     </g>
     <g id="line2d_12">
      <g>
       <use xlink:href="#mc7ad6c81c9" x="49.288438" y="159.789024" style="stroke: #000000; stroke-width: 0.8"/>
      </g>
     </g>
     <g id="text_7">
      <!-- 275 -->
      <g transform="translate(23.200938 163.587852) scale(0.1 -0.1)">
       <use xlink:href="#DejaVuSerif-15"/>
       <use xlink:href="#DejaVuSerif-1a" transform="translate(63.625 0)"/>
       <use xlink:href="#DejaVuSerif-18" transform="translate(127.25 0)"/>
      </g>
     </g>
    </g>
    <g id="ytick_5">
     <g id="line2d_13">
      <path d="M 49.288438 121.367992 
L 439.888438 121.367992 
" clip-path="url(#p3ad99cc34c)" style="fill: none; stroke-dasharray: 2.96,1.28; stroke-dashoffset: 0; stroke: #b0b0b0; stroke-opacity: 0.3; stroke-width: 0.8"/>
     </g>
     <g id="line2d_14">
      <g>
       <use xlink:href="#mc7ad6c81c9" x="49.288438" y="121.367992" style="stroke: #000000; stroke-width: 0.8"/>
      </g>
     </g>
     <g id="text_8">
      <!-- 280 -->
      <g transform="translate(23.200938 125.16682) scale(0.1 -0.1)">
       <defs>
        <path id="DejaVuSerif-1b" d="M 2981 1275 
Q 2981 1775 2732 2051 
Q 2484 2328 2034 2328 
Q 1584 2328 1336 2051 
Q 1088 1775 1088 1275 
Q 1088 772 1336 495 
Q 1584 219 2034 219 
Q 2484 219 2732 495 
Q 2981 772 2981 1275 
z
M 2853 3541 
Q 2853 3966 2637 4203 
Q 2422 4441 2034 4441 
Q 1650 4441 1433 4203 
Q 1216 3966 1216 3541 
Q 1216 3113 1433 2875 
Q 1650 2638 2034 2638 
Q 2422 2638 2637 2875 
Q 2853 3113 2853 3541 
z
M 2516 2484 
Q 3047 2413 3344 2092 
Q 3641 1772 3641 1275 
Q 3641 619 3225 264 
Q 2809 -91 2034 -91 
Q 1263 -91 845 264 
Q 428 619 428 1275 
Q 428 1772 725 2092 
Q 1022 2413 1556 2484 
Q 1084 2569 832 2842 
Q 581 3116 581 3541 
Q 581 4103 968 4426 
Q 1356 4750 2034 4750 
Q 2713 4750 3100 4426 
Q 3488 4103 3488 3541 
Q 3488 3116 3236 2842 
Q 2984 2569 2516 2484 
z
" transform="scale(0.015625)"/>
       </defs>
       <use xlink:href="#DejaVuSerif-15"/>
       <use xlink:href="#DejaVuSerif-1b" transform="translate(63.625 0)"/>
       <use xlink:href="#DejaVuSerif-13" transform="translate(127.25 0)"/>
      </g>
     </g>
    </g>
    <g id="ytick_6">
     <g id="line2d_15">
      <path d="M 49.288438 82.946961 
L 439.888438 82.946961 
" clip-path="url(#p3ad99cc34c)" style="fill: none; stroke-dasharray: 2.96,1.28; stroke-dashoffset: 0; stroke: #b0b0b0; stroke-opacity: 0.3; stroke-width: 0.8"/>
     </g>
     <g id="line2d_16">
      <g>
       <use xlink:href="#mc7ad6c81c9" x="49.288438" y="82.946961" style="stroke: #000000; stroke-width: 0.8"/>
      </g>
     </g>
     <g id="text_9">
      <!-- 285 -->
      <g transform="translate(23.200938 86.745789) scale(0.1 -0.1)">
       <use xlink:href="#DejaVuSerif-15"/>
       <use xlink:href="#DejaVuSerif-1b" transform="translate(63.625 0)"/>
       <use xlink:href="#DejaVuSerif-18" transform="translate(127.25 0)"/>
      </g>
     </g>
    </g>
    <g id="ytick_7">
     <g id="line2d_17">
      <path d="M 49.288438 44.525929 
L 439.888438 44.525929 
" clip-path="url(#p3ad99cc34c)" style="fill: none; stroke-dasharray: 2.96,1.28; stroke-dashoffset: 0; stroke: #b0b0b0; stroke-opacity: 0.3; stroke-width: 0.8"/>
     </g>
     <g id="line2d_18">
      <g>
       <use xlink:href="#mc7ad6c81c9" x="49.288438" y="44.525929" style="stroke: #000000; stroke-width: 0.8"/>
      </g>
     </g>
     <g id="text_10">
      <!-- 290 -->
      <g transform="translate(23.200938 48.324757) scale(0.1 -0.1)">
       <defs>
        <path id="DejaVuSerif-1c" d="M 2994 2091 
Q 2784 1856 2512 1740 
Q 2241 1625 1900 1625 
Q 1206 1625 804 2044 
Q 403 2463 403 3188 
Q 403 3897 839 4323 
Q 1275 4750 2003 4750 
Q 2794 4750 3217 4161 
Q 3641 3572 3641 2478 
Q 3641 1253 3137 581 
Q 2634 -91 1722 -91 
Q 1475 -91 1203 -44 
Q 931 3 647 97 
L 647 872 
L 997 872 
Q 1038 556 1241 387 
Q 1444 219 1784 219 
Q 2391 219 2687 676 
Q 2984 1134 2994 2091 
z
M 1978 4441 
Q 1534 4441 1298 4117 
Q 1063 3794 1063 3188 
Q 1063 2581 1298 2256 
Q 1534 1931 1978 1931 
Q 2422 1931 2658 2245 
Q 2894 2559 2894 3150 
Q 2894 3772 2656 4106 
Q 2419 4441 1978 4441 
z
" transform="scale(0.015625)"/>
       </defs>
       <use xlink:href="#DejaVuSerif-15"/>
       <use xlink:href="#DejaVuSerif-1c" transform="translate(63.625 0)"/>
       <use xlink:href="#DejaVuSerif-13" transform="translate(127.25 0)"/>
      </g>
     </g>
    </g>
    <g id="text_11">
     <!-- Average Travel Time (seconds) -->
     <g transform="translate(16.318125 255.805781) rotate(-90) scale(0.12 -0.12)">
      <defs>
       <path id="DejaVuSerif-24" d="M 1281 1691 
L 2994 1691 
L 2138 3909 
L 1281 1691 
z
M -38 0 
L -38 331 
L 372 331 
L 2034 4666 
L 2559 4666 
L 4225 331 
L 4684 331 
L 4684 0 
L 2988 0 
L 2988 331 
L 3506 331 
L 3116 1356 
L 1153 1356 
L 763 331 
L 1275 331 
L 1275 0 
L -38 0 
z
" transform="scale(0.015625)"/>
       <path id="DejaVuSerif-59" d="M 1581 0 
L 359 2988 
L -19 2988 
L -19 3322 
L 1509 3322 
L 1509 2988 
L 978 2988 
L 1913 703 
L 2847 2988 
L 2350 2988 
L 2350 3322 
L 3597 3322 
L 3597 2988 
L 3225 2988 
L 2003 0 
L 1581 0 
z
" transform="scale(0.015625)"/>
       <path id="DejaVuSerif-55" d="M 3059 3328 
L 3059 2497 
L 2728 2497 
Q 2713 2744 2591 2866 
Q 2469 2988 2234 2988 
Q 1809 2988 1582 2694 
Q 1356 2400 1356 1850 
L 1356 331 
L 2022 331 
L 2022 0 
L 263 0 
L 263 331 
L 781 331 
L 781 2994 
L 231 2994 
L 231 3322 
L 1356 3322 
L 1356 2731 
Q 1525 3078 1790 3245 
Q 2056 3413 2438 3413 
Q 2578 3413 2733 3391 
Q 2888 3369 3059 3328 
z
" transform="scale(0.015625)"/>
       <path id="DejaVuSerif-4a" d="M 3359 2988 
L 3359 72 
Q 3359 -644 2965 -1033 
Q 2572 -1422 1844 -1422 
Q 1516 -1422 1216 -1362 
Q 916 -1303 641 -1184 
L 641 -488 
L 941 -488 
Q 997 -813 1206 -963 
Q 1416 -1113 1806 -1113 
Q 2313 -1113 2548 -827 
Q 2784 -541 2784 72 
L 2784 519 
Q 2616 206 2355 57 
Q 2094 -91 1709 -91 
Q 1097 -91 708 395 
Q 319 881 319 1663 
Q 319 2444 706 2928 
Q 1094 3413 1709 3413 
Q 2094 3413 2355 3264 
Q 2616 3116 2784 2803 
L 2784 3322 
L 3909 3322 
L 3909 2988 
L 3359 2988 
z
M 2784 1825 
Q 2784 2422 2554 2737 
Q 2325 3053 1888 3053 
Q 1444 3053 1217 2703 
Q 991 2353 991 1663 
Q 991 975 1217 622 
Q 1444 269 1888 269 
Q 2325 269 2554 583 
Q 2784 897 2784 1497 
L 2784 1825 
z
" transform="scale(0.015625)"/>
       <path id="DejaVuSerif-37" d="M 1222 0 
L 1222 331 
L 1819 331 
L 1819 4294 
L 447 4294 
L 447 3566 
L 63 3566 
L 63 4666 
L 4206 4666 
L 4206 3566 
L 3822 3566 
L 3822 4294 
L 2450 4294 
L 2450 331 
L 3047 331 
L 3047 0 
L 1222 0 
z
" transform="scale(0.015625)"/>
       <path id="DejaVuSerif-50" d="M 3316 2675 
Q 3481 3041 3739 3227 
Q 3997 3413 4341 3413 
Q 4863 3413 5119 3089 
Q 5375 2766 5375 2113 
L 5375 331 
L 5894 331 
L 5894 0 
L 4300 0 
L 4300 331 
L 4800 331 
L 4800 2047 
Q 4800 2556 4650 2772 
Q 4500 2988 4153 2988 
Q 3769 2988 3567 2697 
Q 3366 2406 3366 1850 
L 3366 331 
L 3866 331 
L 3866 0 
L 2291 0 
L 2291 331 
L 2791 331 
L 2791 2069 
Q 2791 2566 2641 2777 
Q 2491 2988 2144 2988 
Q 1759 2988 1557 2697 
Q 1356 2406 1356 1850 
L 1356 331 
L 1856 331 
L 1856 0 
L 263 0 
L 263 331 
L 781 331 
L 781 2994 
L 231 2994 
L 231 3322 
L 1356 3322 
L 1356 2731 
Q 1516 3063 1762 3238 
Q 2009 3413 2322 3413 
Q 2709 3413 2968 3220 
Q 3228 3028 3316 2675 
z
" transform="scale(0.015625)"/>
       <path id="DejaVuSerif-b" d="M 2041 -997 
Q 1281 -656 893 83 
Q 506 822 506 1931 
Q 506 3044 893 3783 
Q 1281 4522 2041 4863 
L 2041 4556 
Q 1559 4225 1350 3623 
Q 1141 3022 1141 1931 
Q 1141 844 1350 242 
Q 1559 -359 2041 -691 
L 2041 -997 
z
" transform="scale(0.015625)"/>
       <path id="DejaVuSerif-56" d="M 359 184 
L 359 959 
L 691 959 
Q 703 588 923 403 
Q 1144 219 1575 219 
Q 1963 219 2166 364 
Q 2369 509 2369 788 
Q 2369 1006 2220 1140 
Q 2072 1275 1594 1428 
L 1178 1569 
Q 750 1706 558 1912 
Q 366 2119 366 2438 
Q 366 2894 700 3153 
Q 1034 3413 1625 3413 
Q 1888 3413 2178 3344 
Q 2469 3275 2778 3144 
L 2778 2419 
L 2447 2419 
Q 2434 2741 2221 2922 
Q 2009 3103 1644 3103 
Q 1281 3103 1095 2975 
Q 909 2847 909 2591 
Q 909 2381 1050 2254 
Q 1191 2128 1613 1997 
L 2069 1856 
Q 2541 1709 2748 1489 
Q 2956 1269 2956 922 
Q 2956 450 2595 179 
Q 2234 -91 1600 -91 
Q 1278 -91 972 -22 
Q 666 47 359 184 
z
" transform="scale(0.015625)"/>
       <path id="DejaVuSerif-52" d="M 1925 219 
Q 2388 219 2623 584 
Q 2859 950 2859 1663 
Q 2859 2375 2623 2739 
Q 2388 3103 1925 3103 
Q 1463 3103 1227 2739 
Q 991 2375 991 1663 
Q 991 950 1228 584 
Q 1466 219 1925 219 
z
M 1925 -91 
Q 1200 -91 759 389 
Q 319 869 319 1663 
Q 319 2456 758 2934 
Q 1197 3413 1925 3413 
Q 2653 3413 3092 2934 
Q 3531 2456 3531 1663 
Q 3531 869 3092 389 
Q 2653 -91 1925 -91 
z
" transform="scale(0.015625)"/>
       <path id="DejaVuSerif-51" d="M 263 0 
L 263 331 
L 781 331 
L 781 2988 
L 231 2988 
L 231 3322 
L 1356 3322 
L 1356 2731 
Q 1516 3069 1770 3241 
Q 2025 3413 2363 3413 
Q 2913 3413 3172 3097 
Q 3431 2781 3431 2113 
L 3431 331 
L 3944 331 
L 3944 0 
L 2356 0 
L 2356 331 
L 2853 331 
L 2853 1931 
Q 2853 2541 2703 2767 
Q 2553 2994 2175 2994 
Q 1775 2994 1565 2701 
Q 1356 2409 1356 1850 
L 1356 331 
L 1856 331 
L 1856 0 
L 263 0 
z
" transform="scale(0.015625)"/>
       <path id="DejaVuSerif-47" d="M 3359 331 
L 3909 331 
L 3909 0 
L 2784 0 
L 2784 519 
Q 2616 206 2355 57 
Q 2094 -91 1709 -91 
Q 1097 -91 708 395 
Q 319 881 319 1663 
Q 319 2444 706 2928 
Q 1094 3413 1709 3413 
Q 2094 3413 2355 3264 
Q 2616 3116 2784 2803 
L 2784 4531 
L 2241 4531 
L 2241 4863 
L 3359 4863 
L 3359 331 
z
M 2784 1497 
L 2784 1825 
Q 2784 2422 2554 2737 
Q 2325 3053 1888 3053 
Q 1444 3053 1217 2703 
Q 991 2353 991 1663 
Q 991 975 1217 622 
Q 1444 269 1888 269 
Q 2325 269 2554 583 
Q 2784 897 2784 1497 
z
" transform="scale(0.015625)"/>
       <path id="DejaVuSerif-c" d="M 453 -997 
L 453 -691 
Q 934 -359 1145 242 
Q 1356 844 1356 1931 
Q 1356 3022 1145 3623 
Q 934 4225 453 4556 
L 453 4863 
Q 1216 4522 1603 3783 
Q 1991 3044 1991 1931 
Q 1991 822 1603 83 
Q 1216 -656 453 -997 
z
" transform="scale(0.015625)"/>
      </defs>
      <use xlink:href="#DejaVuSerif-24"/>
      <use xlink:href="#DejaVuSerif-59" transform="translate(68.171875 0)"/>
      <use xlink:href="#DejaVuSerif-48" transform="translate(124.671875 0)"/>
      <use xlink:href="#DejaVuSerif-55" transform="translate(183.859375 0)"/>
      <use xlink:href="#DejaVuSerif-44" transform="translate(231.65625 0)"/>
      <use xlink:href="#DejaVuSerif-4a" transform="translate(291.28125 0)"/>
      <use xlink:href="#DejaVuSerif-48" transform="translate(355.296875 0)"/>
      <use xlink:href="#DejaVuSerif-3" transform="translate(414.484375 0)"/>
      <use xlink:href="#DejaVuSerif-37" transform="translate(446.265625 0)"/>
      <use xlink:href="#DejaVuSerif-55" transform="translate(512.96875 0)"/>
      <use xlink:href="#DejaVuSerif-44" transform="translate(560.765625 0)"/>
      <use xlink:href="#DejaVuSerif-59" transform="translate(620.390625 0)"/>
      <use xlink:href="#DejaVuSerif-48" transform="translate(676.890625 0)"/>
      <use xlink:href="#DejaVuSerif-4f" transform="translate(736.078125 0)"/>
      <use xlink:href="#DejaVuSerif-3" transform="translate(768.0625 0)"/>
      <use xlink:href="#DejaVuSerif-37" transform="translate(799.84375 0)"/>
      <use xlink:href="#DejaVuSerif-4c" transform="translate(866.546875 0)"/>
      <use xlink:href="#DejaVuSerif-50" transform="translate(898.53125 0)"/>
      <use xlink:href="#DejaVuSerif-48" transform="translate(993.359375 0)"/>
      <use xlink:href="#DejaVuSerif-3" transform="translate(1052.546875 0)"/>
      <use xlink:href="#DejaVuSerif-b" transform="translate(1084.328125 0)"/>
      <use xlink:href="#DejaVuSerif-56" transform="translate(1123.34375 0)"/>
      <use xlink:href="#DejaVuSerif-48" transform="translate(1174.65625 0)"/>
      <use xlink:href="#DejaVuSerif-46" transform="translate(1233.84375 0)"/>
      <use xlink:href="#DejaVuSerif-52" transform="translate(1289.84375 0)"/>
      <use xlink:href="#DejaVuSerif-51" transform="translate(1350.046875 0)"/>
      <use xlink:href="#DejaVuSerif-47" transform="translate(1414.453125 0)"/>
      <use xlink:href="#DejaVuSerif-56" transform="translate(1478.46875 0)"/>
      <use xlink:href="#DejaVuSerif-c" transform="translate(1529.78125 0)"/>
     </g>
    </g>
   </g>
   <g id="line2d_19">
    <path d="M 67.042983 43.671676 
L 422.133892 226.770499 
" clip-path="url(#p3ad99cc34c)" style="fill: none; stroke: #2ecc71; stroke-width: 2; stroke-linecap: square"/>
    <defs>
     <path id="m781fd5bdbf" d="M -3 3 
L 3 3 
L 3 -3 
L -3 -3 
z
" style="stroke: #2ecc71; stroke-linejoin: miter"/>
    </defs>
    <g clip-path="url(#p3ad99cc34c)">
     <use xlink:href="#m781fd5bdbf" x="67.042983" y="43.671676" style="fill: #2ecc71; stroke: #2ecc71; stroke-linejoin: miter"/>
     <use xlink:href="#m781fd5bdbf" x="422.133892" y="226.770499" style="fill: #2ecc71; stroke: #2ecc71; stroke-linejoin: miter"/>
    </g>
   </g>
   <g id="line2d_20">
    <path d="M 67.042983 35.677969 
L 422.133892 171.356498 
" clip-path="url(#p3ad99cc34c)" style="fill: none; stroke: #ff7f0e; stroke-width: 2; stroke-linecap: square"/>
    <defs>
     <path id="m3eed74be94" d="M -3 3 
L 3 3 
L 3 -3 
L -3 -3 
z
" style="stroke: #ff7f0e; stroke-linejoin: miter"/>
    </defs>
    <g clip-path="url(#p3ad99cc34c)">
     <use xlink:href="#m3eed74be94" x="67.042983" y="35.677969" style="fill: #ff7f0e; stroke: #ff7f0e; stroke-linejoin: miter"/>
     <use xlink:href="#m3eed74be94" x="422.133892" y="171.356498" style="fill: #ff7f0e; stroke: #ff7f0e; stroke-linejoin: miter"/>
    </g>
   </g>
   <g id="line2d_21">
    <path d="M 67.042983 82.961381 
L 422.133892 287.677969 
" clip-path="url(#p3ad99cc34c)" style="fill: none; stroke: #2ca02c; stroke-width: 2; stroke-linecap: square"/>
    <defs>
     <path id="m6358891b82" d="M -3 3 
L 3 3 
L 3 -3 
L -3 -3 
z
" style="stroke: #2ca02c; stroke-linejoin: miter"/>
    </defs>
    <g clip-path="url(#p3ad99cc34c)">
     <use xlink:href="#m6358891b82" x="67.042983" y="82.961381" style="fill: #2ca02c; stroke: #2ca02c; stroke-linejoin: miter"/>
     <use xlink:href="#m6358891b82" x="422.133892" y="287.677969" style="fill: #2ca02c; stroke: #2ca02c; stroke-linejoin: miter"/>
    </g>
   </g>
   <g id="line2d_22">
    <path d="M 67.042983 124.607289 
L 422.133892 275.88071 
" clip-path="url(#p3ad99cc34c)" style="fill: none; stroke: #d62728; stroke-width: 2; stroke-linecap: square"/>
    <defs>
     <path id="m2d98787b76" d="M -3 3 
L 3 3 
L 3 -3 
L -3 -3 
z
" style="stroke: #d62728; stroke-linejoin: miter"/>
    </defs>
    <g clip-path="url(#p3ad99cc34c)">
     <use xlink:href="#m2d98787b76" x="67.042983" y="124.607289" style="fill: #d62728; stroke: #d62728; stroke-linejoin: miter"/>
     <use xlink:href="#m2d98787b76" x="422.133892" y="275.88071" style="fill: #d62728; stroke: #d62728; stroke-linejoin: miter"/>
    </g>
   </g>
   <g id="line2d_23">
    <path d="M 67.042983 41.18499 
L 422.133892 217.371758 
" clip-path="url(#p3ad99cc34c)" style="fill: none; stroke: #9467bd; stroke-width: 2; stroke-linecap: square"/>
    <defs>
     <path id="me7ce59d981" d="M -3 3 
L 3 3 
L 3 -3 
L -3 -3 
z
" style="stroke: #9467bd; stroke-linejoin: miter"/>
    </defs>
    <g clip-path="url(#p3ad99cc34c)">
     <use xlink:href="#me7ce59d981" x="67.042983" y="41.18499" style="fill: #9467bd; stroke: #9467bd; stroke-linejoin: miter"/>
     <use xlink:href="#me7ce59d981" x="422.133892" y="217.371758" style="fill: #9467bd; stroke: #9467bd; stroke-linejoin: miter"/>
    </g>
   </g>
   <g id="line2d_24">
    <path d="M 67.042983 43.671676 
L 422.133892 226.770499 
" clip-path="url(#p3ad99cc34c)" style="fill: none; stroke: #8c564b; stroke-width: 2; stroke-linecap: square"/>
    <defs>
     <path id="m87dc5ea476" d="M -3 3 
L 3 3 
L 3 -3 
L -3 -3 
z
" style="stroke: #8c564b; stroke-linejoin: miter"/>
    </defs>
    <g clip-path="url(#p3ad99cc34c)">
     <use xlink:href="#m87dc5ea476" x="67.042983" y="43.671676" style="fill: #8c564b; stroke: #8c564b; stroke-linejoin: miter"/>
     <use xlink:href="#m87dc5ea476" x="422.133892" y="226.770499" style="fill: #8c564b; stroke: #8c564b; stroke-linejoin: miter"/>
    </g>
   </g>
   <g id="patch_3">
    <path d="M 49.288438 300.277969 
L 49.288438 23.077969 
" style="fill: none; stroke: #000000; stroke-width: 0.8; stroke-linejoin: miter; stroke-linecap: square"/>
   </g>
   <g id="patch_4">
    <path d="M 439.888438 300.277969 
L 439.888438 23.077969 
" style="fill: none; stroke: #000000; stroke-width: 0.8; stroke-linejoin: miter; stroke-linecap: square"/>
   </g>
   <g id="patch_5">
    <path d="M 49.288437 300.277969 
L 439.888437 300.277969 
" style="fill: none; stroke: #000000; stroke-width: 0.8; stroke-linejoin: miter; stroke-linecap: square"/>
   </g>
   <g id="patch_6">
    <path d="M 49.288437 23.077969 
L 439.888437 23.077969 
" style="fill: none; stroke: #000000; stroke-width: 0.8; stroke-linejoin: miter; stroke-linecap: square"/>
   </g>
   <g id="text_12">
    <!-- Scalability Profile under Heavy Congestion -->
    <g transform="translate(102.633516 17.077969) scale(0.13 -0.13)">
     <defs>
      <path id="DejaVuSerif-45" d="M 738 331 
L 738 4531 
L 184 4531 
L 184 4863 
L 1313 4863 
L 1313 2803 
Q 1481 3116 1742 3264 
Q 2003 3413 2388 3413 
Q 3000 3413 3387 2928 
Q 3775 2444 3775 1663 
Q 3775 881 3387 395 
Q 3000 -91 2388 -91 
Q 2003 -91 1742 57 
Q 1481 206 1313 519 
L 1313 0 
L 184 0 
L 184 331 
L 738 331 
z
M 1313 1497 
Q 1313 897 1542 583 
Q 1772 269 2209 269 
Q 2650 269 2876 622 
Q 3103 975 3103 1663 
Q 3103 2353 2876 2703 
Q 2650 3053 2209 3053 
Q 1772 3053 1542 2737 
Q 1313 2422 1313 1825 
L 1313 1497 
z
" transform="scale(0.015625)"/>
      <path id="DejaVuSerif-5c" d="M 1381 -609 
L 1600 -56 
L 359 2988 
L -19 2988 
L -19 3322 
L 1509 3322 
L 1509 2988 
L 978 2988 
L 1913 703 
L 2847 2988 
L 2350 2988 
L 2350 3322 
L 3597 3322 
L 3597 2988 
L 3225 2988 
L 1703 -750 
Q 1547 -1138 1356 -1280 
Q 1166 -1422 819 -1422 
Q 672 -1422 517 -1397 
Q 363 -1372 206 -1325 
L 206 -691 
L 500 -691 
Q 519 -903 608 -995 
Q 697 -1088 884 -1088 
Q 1056 -1088 1161 -992 
Q 1266 -897 1381 -609 
z
" transform="scale(0.015625)"/>
      <path id="DejaVuSerif-33" d="M 1581 2375 
L 2406 2375 
Q 2872 2375 3115 2626 
Q 3359 2878 3359 3353 
Q 3359 3831 3115 4081 
Q 2872 4331 2406 4331 
L 1581 4331 
L 1581 2375 
z
M 353 0 
L 353 331 
L 947 331 
L 947 4331 
L 353 4331 
L 353 4666 
L 2559 4666 
Q 3259 4666 3668 4311 
Q 4078 3956 4078 3353 
Q 4078 2753 3668 2397 
Q 3259 2041 2559 2041 
L 1581 2041 
L 1581 331 
L 2303 331 
L 2303 0 
L 353 0 
z
" transform="scale(0.015625)"/>
      <path id="DejaVuSerif-cf0" d="M 3347 4019 
L 3053 4022 
Q 3044 4291 2853 4423 
Q 2663 4556 2278 4556 
Q 1800 4556 1578 4334 
Q 1356 4113 1356 3634 
L 1356 3322 
L 3578 3322 
L 3578 331 
L 4122 331 
L 4122 0 
L 2450 0 
L 2450 331 
L 3003 331 
L 3003 2988 
L 1356 2988 
L 1356 331 
L 1900 331 
L 1900 0 
L 231 0 
L 231 331 
L 781 331 
L 781 2988 
L 231 2988 
L 231 3322 
L 781 3322 
L 781 3622 
Q 781 4238 1147 4550 
Q 1513 4863 2228 4863 
Q 2500 4863 2784 4822 
Q 3069 4781 3347 4697 
L 3347 4019 
z
" transform="scale(0.015625)"/>
      <path id="DejaVuSerif-58" d="M 2266 3322 
L 3341 3322 
L 3341 331 
L 3884 331 
L 3884 0 
L 2766 0 
L 2766 588 
Q 2606 256 2353 82 
Q 2100 -91 1766 -91 
Q 1213 -91 952 223 
Q 691 538 691 1209 
L 691 2988 
L 172 2988 
L 172 3322 
L 1269 3322 
L 1269 1388 
Q 1269 781 1417 556 
Q 1566 331 1947 331 
Q 2347 331 2556 625 
Q 2766 919 2766 1478 
L 2766 2988 
L 2266 2988 
L 2266 3322 
z
" transform="scale(0.015625)"/>
      <path id="DejaVuSerif-2b" d="M 353 0 
L 353 331 
L 947 331 
L 947 4331 
L 353 4331 
L 353 4666 
L 2175 4666 
L 2175 4331 
L 1581 4331 
L 1581 2719 
L 4000 2719 
L 4000 4331 
L 3406 4331 
L 3406 4666 
L 5228 4666 
L 5228 4331 
L 4634 4331 
L 4634 331 
L 5228 331 
L 5228 0 
L 3406 0 
L 3406 331 
L 4000 331 
L 4000 2338 
L 1581 2338 
L 1581 331 
L 2175 331 
L 2175 0 
L 353 0 
z
" transform="scale(0.015625)"/>
      <path id="DejaVuSerif-26" d="M 4513 1234 
Q 4306 581 3820 245 
Q 3334 -91 2591 -91 
Q 2134 -91 1743 65 
Q 1353 222 1050 525 
Q 700 875 529 1320 
Q 359 1766 359 2328 
Q 359 3416 987 4083 
Q 1616 4750 2644 4750 
Q 3025 4750 3456 4650 
Q 3888 4550 4384 4347 
L 4384 3272 
L 4031 3272 
Q 3916 3859 3567 4137 
Q 3219 4416 2591 4416 
Q 1844 4416 1459 3886 
Q 1075 3356 1075 2328 
Q 1075 1303 1459 773 
Q 1844 244 2591 244 
Q 3113 244 3450 492 
Q 3788 741 3938 1234 
L 4513 1234 
z
" transform="scale(0.015625)"/>
     </defs>
     <use xlink:href="#DejaVuSerif-36"/>
     <use xlink:href="#DejaVuSerif-46" transform="translate(68.5 0)"/>
     <use xlink:href="#DejaVuSerif-44" transform="translate(124.5 0)"/>
     <use xlink:href="#DejaVuSerif-4f" transform="translate(184.125 0)"/>
     <use xlink:href="#DejaVuSerif-44" transform="translate(216.109375 0)"/>
     <use xlink:href="#DejaVuSerif-45" transform="translate(275.734375 0)"/>
     <use xlink:href="#DejaVuSerif-4c" transform="translate(339.75 0)"/>
     <use xlink:href="#DejaVuSerif-4f" transform="translate(371.734375 0)"/>
     <use xlink:href="#DejaVuSerif-4c" transform="translate(403.71875 0)"/>
     <use xlink:href="#DejaVuSerif-57" transform="translate(435.703125 0)"/>
     <use xlink:href="#DejaVuSerif-5c" transform="translate(475.890625 0)"/>
     <use xlink:href="#DejaVuSerif-3" transform="translate(532.390625 0)"/>
     <use xlink:href="#DejaVuSerif-33" transform="translate(564.171875 0)"/>
     <use xlink:href="#DejaVuSerif-55" transform="translate(631.453125 0)"/>
     <use xlink:href="#DejaVuSerif-52" transform="translate(679.25 0)"/>
     <use xlink:href="#DejaVuSerif-cf0" transform="translate(739.453125 0)"/>
     <use xlink:href="#DejaVuSerif-4f" transform="translate(806.15625 0)"/>
     <use xlink:href="#DejaVuSerif-48" transform="translate(838.140625 0)"/>
     <use xlink:href="#DejaVuSerif-3" transform="translate(897.328125 0)"/>
     <use xlink:href="#DejaVuSerif-58" transform="translate(929.109375 0)"/>
     <use xlink:href="#DejaVuSerif-51" transform="translate(993.515625 0)"/>
     <use xlink:href="#DejaVuSerif-47" transform="translate(1057.921875 0)"/>
     <use xlink:href="#DejaVuSerif-48" transform="translate(1121.9375 0)"/>
     <use xlink:href="#DejaVuSerif-55" transform="translate(1181.125 0)"/>
     <use xlink:href="#DejaVuSerif-3" transform="translate(1228.921875 0)"/>
     <use xlink:href="#DejaVuSerif-2b" transform="translate(1260.703125 0)"/>
     <use xlink:href="#DejaVuSerif-48" transform="translate(1347.90625 0)"/>
     <use xlink:href="#DejaVuSerif-44" transform="translate(1407.09375 0)"/>
     <use xlink:href="#DejaVuSerif-59" transform="translate(1466.71875 0)"/>
     <use xlink:href="#DejaVuSerif-5c" transform="translate(1523.21875 0)"/>
     <use xlink:href="#DejaVuSerif-3" transform="translate(1579.71875 0)"/>
     <use xlink:href="#DejaVuSerif-26" transform="translate(1611.5 0)"/>
     <use xlink:href="#DejaVuSerif-52" transform="translate(1688.015625 0)"/>
     <use xlink:href="#DejaVuSerif-51" transform="translate(1748.21875 0)"/>
     <use xlink:href="#DejaVuSerif-4a" transform="translate(1812.625 0)"/>
     <use xlink:href="#DejaVuSerif-48" transform="translate(1876.640625 0)"/>
     <use xlink:href="#DejaVuSerif-56" transform="translate(1935.828125 0)"/>
     <use xlink:href="#DejaVuSerif-57" transform="translate(1987.140625 0)"/>
     <use xlink:href="#DejaVuSerif-4c" transform="translate(2027.328125 0)"/>
     <use xlink:href="#DejaVuSerif-52" transform="translate(2059.3125 0)"/>
     <use xlink:href="#DejaVuSerif-51" transform="translate(2119.515625 0)"/>
    </g>
   </g>
   <g id="legend_1">
    <g id="patch_7">
     <path d="M 56.288438 121.082656 
L 211.849375 121.082656 
Q 213.849375 121.082656 213.849375 119.082656 
L 213.849375 30.077969 
Q 213.849375 28.077969 211.849375 28.077969 
L 56.288438 28.077969 
Q 54.288438 28.077969 54.288438 30.077969 
L 54.288438 119.082656 
Q 54.288438 121.082656 56.288438 121.082656 
z
" style="fill: #ffffff; opacity: 0.8; stroke: #cccccc; stroke-linejoin: miter"/>
    </g>
    <g id="line2d_25">
     <path d="M 58.288438 36.176406 
L 68.288438 36.176406 
L 78.288438 36.176406 
" style="fill: none; stroke: #2ecc71; stroke-width: 2; stroke-linecap: square"/>
     <g>
      <use xlink:href="#m781fd5bdbf" x="68.288438" y="36.176406" style="fill: #2ecc71; stroke: #2ecc71; stroke-linejoin: miter"/>
     </g>
    </g>
    <g id="text_13">
     <!-- E3-Hybrid -->
     <g transform="translate(86.288438 39.676406) scale(0.1 -0.1)">
      <defs>
       <path id="DejaVuSerif-28" d="M 353 0 
L 353 331 
L 947 331 
L 947 4331 
L 353 4331 
L 353 4666 
L 4109 4666 
L 4109 3628 
L 3725 3628 
L 3725 4281 
L 1581 4281 
L 1581 2719 
L 3109 2719 
L 3109 3303 
L 3494 3303 
L 3494 1753 
L 3109 1753 
L 3109 2338 
L 1581 2338 
L 1581 384 
L 3775 384 
L 3775 1038 
L 4159 1038 
L 4159 0 
L 353 0 
z
" transform="scale(0.015625)"/>
       <path id="DejaVuSerif-16" d="M 622 4469 
Q 988 4606 1323 4678 
Q 1659 4750 1953 4750 
Q 2638 4750 3022 4454 
Q 3406 4159 3406 3634 
Q 3406 3213 3140 2930 
Q 2875 2647 2388 2547 
Q 2963 2466 3280 2130 
Q 3597 1794 3597 1259 
Q 3597 606 3158 257 
Q 2719 -91 1894 -91 
Q 1528 -91 1179 -12 
Q 831 66 488 225 
L 488 1131 
L 838 1131 
Q 869 681 1141 450 
Q 1413 219 1906 219 
Q 2384 219 2661 495 
Q 2938 772 2938 1253 
Q 2938 1803 2653 2086 
Q 2369 2369 1819 2369 
L 1522 2369 
L 1522 2688 
L 1678 2688 
Q 2225 2688 2498 2914 
Q 2772 3141 2772 3597 
Q 2772 4006 2547 4223 
Q 2322 4441 1900 4441 
Q 1478 4441 1245 4241 
Q 1013 4041 972 3647 
L 622 3647 
L 622 4469 
z
" transform="scale(0.015625)"/>
       <path id="DejaVuSerif-10" d="M 281 1959 
L 1881 1959 
L 1881 1472 
L 281 1472 
L 281 1959 
z
" transform="scale(0.015625)"/>
      </defs>
      <use xlink:href="#DejaVuSerif-28"/>
      <use xlink:href="#DejaVuSerif-16" transform="translate(73 0)"/>
      <use xlink:href="#DejaVuSerif-10" transform="translate(136.625 0)"/>
      <use xlink:href="#DejaVuSerif-2b" transform="translate(170.421875 0)"/>
      <use xlink:href="#DejaVuSerif-5c" transform="translate(257.625 0)"/>
      <use xlink:href="#DejaVuSerif-45" transform="translate(314.125 0)"/>
      <use xlink:href="#DejaVuSerif-55" transform="translate(378.140625 0)"/>
      <use xlink:href="#DejaVuSerif-4c" transform="translate(425.9375 0)"/>
      <use xlink:href="#DejaVuSerif-47" transform="translate(457.921875 0)"/>
     </g>
    </g>
    <g id="line2d_26">
     <path d="M 58.288438 51.177188 
L 68.288438 51.177188 
L 78.288438 51.177188 
" style="fill: none; stroke: #ff7f0e; stroke-width: 2; stroke-linecap: square"/>
     <g>
      <use xlink:href="#m3eed74be94" x="68.288438" y="51.177188" style="fill: #ff7f0e; stroke: #ff7f0e; stroke-linejoin: miter"/>
     </g>
    </g>
    <g id="text_14">
     <!-- E3-Hybrid-NoACO -->
     <g transform="translate(86.288438 54.677188) scale(0.1 -0.1)">
      <defs>
       <path id="DejaVuSerif-31" d="M 313 0 
L 313 331 
L 941 331 
L 941 4331 
L 313 4331 
L 313 4666 
L 1509 4666 
L 4306 984 
L 4306 4331 
L 3681 4331 
L 3681 4666 
L 5319 4666 
L 5319 4331 
L 4691 4331 
L 4691 -91 
L 4313 -91 
L 1325 3841 
L 1325 331 
L 1953 331 
L 1953 0 
L 313 0 
z
" transform="scale(0.015625)"/>
       <path id="DejaVuSerif-32" d="M 2625 244 
Q 3391 244 3781 770 
Q 4172 1297 4172 2328 
Q 4172 3363 3781 3889 
Q 3391 4416 2625 4416 
Q 1856 4416 1465 3889 
Q 1075 3363 1075 2328 
Q 1075 1297 1465 770 
Q 1856 244 2625 244 
z
M 2625 -91 
Q 2150 -91 1751 65 
Q 1353 222 1050 525 
Q 700 875 529 1319 
Q 359 1763 359 2328 
Q 359 2894 529 3339 
Q 700 3784 1050 4134 
Q 1356 4441 1750 4595 
Q 2144 4750 2625 4750 
Q 3641 4750 4266 4084 
Q 4891 3419 4891 2328 
Q 4891 1769 4719 1320 
Q 4547 872 4197 525 
Q 3891 219 3497 64 
Q 3103 -91 2625 -91 
z
" transform="scale(0.015625)"/>
      </defs>
      <use xlink:href="#DejaVuSerif-28"/>
      <use xlink:href="#DejaVuSerif-16" transform="translate(73 0)"/>
      <use xlink:href="#DejaVuSerif-10" transform="translate(136.625 0)"/>
      <use xlink:href="#DejaVuSerif-2b" transform="translate(170.421875 0)"/>
      <use xlink:href="#DejaVuSerif-5c" transform="translate(257.625 0)"/>
      <use xlink:href="#DejaVuSerif-45" transform="translate(314.125 0)"/>
      <use xlink:href="#DejaVuSerif-55" transform="translate(378.140625 0)"/>
      <use xlink:href="#DejaVuSerif-4c" transform="translate(425.9375 0)"/>
      <use xlink:href="#DejaVuSerif-47" transform="translate(457.921875 0)"/>
      <use xlink:href="#DejaVuSerif-10" transform="translate(521.9375 0)"/>
      <use xlink:href="#DejaVuSerif-31" transform="translate(555.734375 0)"/>
      <use xlink:href="#DejaVuSerif-52" transform="translate(643.234375 0)"/>
      <use xlink:href="#DejaVuSerif-24" transform="translate(703.4375 0)"/>
      <use xlink:href="#DejaVuSerif-26" transform="translate(775.65625 0)"/>
      <use xlink:href="#DejaVuSerif-32" transform="translate(852.171875 0)"/>
     </g>
    </g>
    <g id="line2d_27">
     <path d="M 58.288438 66.177969 
L 68.288438 66.177969 
L 78.288438 66.177969 
" style="fill: none; stroke: #2ca02c; stroke-width: 2; stroke-linecap: square"/>
     <g>
      <use xlink:href="#m6358891b82" x="68.288438" y="66.177969" style="fill: #2ca02c; stroke: #2ca02c; stroke-linejoin: miter"/>
     </g>
    </g>
    <g id="text_15">
     <!-- E3-Hybrid-NoBCO -->
     <g transform="translate(86.288438 69.677969) scale(0.1 -0.1)">
      <defs>
       <path id="DejaVuSerif-25" d="M 1581 331 
L 2516 331 
Q 3078 331 3337 575 
Q 3597 819 3597 1350 
Q 3597 1878 3339 2120 
Q 3081 2363 2516 2363 
L 1581 2363 
L 1581 331 
z
M 1581 2694 
L 2375 2694 
Q 2888 2694 3123 2891 
Q 3359 3088 3359 3513 
Q 3359 3941 3123 4136 
Q 2888 4331 2375 4331 
L 1581 4331 
L 1581 2694 
z
M 353 0 
L 353 331 
L 947 331 
L 947 4331 
L 353 4331 
L 353 4666 
L 2656 4666 
Q 3363 4666 3720 4377 
Q 4078 4088 4078 3513 
Q 4078 3097 3829 2850 
Q 3581 2603 3103 2547 
Q 3697 2472 4005 2167 
Q 4313 1863 4313 1350 
Q 4313 656 3875 328 
Q 3438 0 2509 0 
L 353 0 
z
" transform="scale(0.015625)"/>
      </defs>
      <use xlink:href="#DejaVuSerif-28"/>
      <use xlink:href="#DejaVuSerif-16" transform="translate(73 0)"/>
      <use xlink:href="#DejaVuSerif-10" transform="translate(136.625 0)"/>
      <use xlink:href="#DejaVuSerif-2b" transform="translate(170.421875 0)"/>
      <use xlink:href="#DejaVuSerif-5c" transform="translate(257.625 0)"/>
      <use xlink:href="#DejaVuSerif-45" transform="translate(314.125 0)"/>
      <use xlink:href="#DejaVuSerif-55" transform="translate(378.140625 0)"/>
      <use xlink:href="#DejaVuSerif-4c" transform="translate(425.9375 0)"/>
      <use xlink:href="#DejaVuSerif-47" transform="translate(457.921875 0)"/>
      <use xlink:href="#DejaVuSerif-10" transform="translate(521.9375 0)"/>
      <use xlink:href="#DejaVuSerif-31" transform="translate(555.734375 0)"/>
      <use xlink:href="#DejaVuSerif-52" transform="translate(643.234375 0)"/>
      <use xlink:href="#DejaVuSerif-25" transform="translate(703.4375 0)"/>
      <use xlink:href="#DejaVuSerif-26" transform="translate(778.78125 0)"/>
      <use xlink:href="#DejaVuSerif-32" transform="translate(855.296875 0)"/>
     </g>
    </g>
    <g id="line2d_28">
     <path d="M 58.288438 81.17875 
L 68.288438 81.17875 
L 78.288438 81.17875 
" style="fill: none; stroke: #d62728; stroke-width: 2; stroke-linecap: square"/>
     <g>
      <use xlink:href="#m2d98787b76" x="68.288438" y="81.17875" style="fill: #d62728; stroke: #d62728; stroke-linejoin: miter"/>
     </g>
    </g>
    <g id="text_16">
     <!-- E3-Hybrid-NoPSO -->
     <g transform="translate(86.288438 84.67875) scale(0.1 -0.1)">
      <use xlink:href="#DejaVuSerif-28"/>
      <use xlink:href="#DejaVuSerif-16" transform="translate(73 0)"/>
      <use xlink:href="#DejaVuSerif-10" transform="translate(136.625 0)"/>
      <use xlink:href="#DejaVuSerif-2b" transform="translate(170.421875 0)"/>
      <use xlink:href="#DejaVuSerif-5c" transform="translate(257.625 0)"/>
      <use xlink:href="#DejaVuSerif-45" transform="translate(314.125 0)"/>
      <use xlink:href="#DejaVuSerif-55" transform="translate(378.140625 0)"/>
      <use xlink:href="#DejaVuSerif-4c" transform="translate(425.9375 0)"/>
      <use xlink:href="#DejaVuSerif-47" transform="translate(457.921875 0)"/>
      <use xlink:href="#DejaVuSerif-10" transform="translate(521.9375 0)"/>
      <use xlink:href="#DejaVuSerif-31" transform="translate(555.734375 0)"/>
      <use xlink:href="#DejaVuSerif-52" transform="translate(643.234375 0)"/>
      <use xlink:href="#DejaVuSerif-33" transform="translate(703.4375 0)"/>
      <use xlink:href="#DejaVuSerif-36" transform="translate(770.71875 0)"/>
      <use xlink:href="#DejaVuSerif-32" transform="translate(839.21875 0)"/>
     </g>
    </g>
    <g id="line2d_29">
     <path d="M 58.288438 96.179531 
L 68.288438 96.179531 
L 78.288438 96.179531 
" style="fill: none; stroke: #9467bd; stroke-width: 2; stroke-linecap: square"/>
     <g>
      <use xlink:href="#me7ce59d981" x="68.288438" y="96.179531" style="fill: #9467bd; stroke: #9467bd; stroke-linejoin: miter"/>
     </g>
    </g>
    <g id="text_17">
     <!-- E3-Hybrid-NoElite -->
     <g transform="translate(86.288438 99.679531) scale(0.1 -0.1)">
      <use xlink:href="#DejaVuSerif-28"/>
      <use xlink:href="#DejaVuSerif-16" transform="translate(73 0)"/>
      <use xlink:href="#DejaVuSerif-10" transform="translate(136.625 0)"/>
      <use xlink:href="#DejaVuSerif-2b" transform="translate(170.421875 0)"/>
      <use xlink:href="#DejaVuSerif-5c" transform="translate(257.625 0)"/>
      <use xlink:href="#DejaVuSerif-45" transform="translate(314.125 0)"/>
      <use xlink:href="#DejaVuSerif-55" transform="translate(378.140625 0)"/>
      <use xlink:href="#DejaVuSerif-4c" transform="translate(425.9375 0)"/>
      <use xlink:href="#DejaVuSerif-47" transform="translate(457.921875 0)"/>
      <use xlink:href="#DejaVuSerif-10" transform="translate(521.9375 0)"/>
      <use xlink:href="#DejaVuSerif-31" transform="translate(555.734375 0)"/>
      <use xlink:href="#DejaVuSerif-52" transform="translate(643.234375 0)"/>
      <use xlink:href="#DejaVuSerif-28" transform="translate(703.4375 0)"/>
      <use xlink:href="#DejaVuSerif-4f" transform="translate(776.4375 0)"/>
      <use xlink:href="#DejaVuSerif-4c" transform="translate(808.421875 0)"/>
      <use xlink:href="#DejaVuSerif-57" transform="translate(840.40625 0)"/>
      <use xlink:href="#DejaVuSerif-48" transform="translate(880.59375 0)"/>
     </g>
    </g>
    <g id="line2d_30">
     <path d="M 58.288438 111.180313 
L 68.288438 111.180313 
L 78.288438 111.180313 
" style="fill: none; stroke: #8c564b; stroke-width: 2; stroke-linecap: square"/>
     <g>
      <use xlink:href="#m87dc5ea476" x="68.288438" y="111.180313" style="fill: #8c564b; stroke: #8c564b; stroke-linejoin: miter"/>
     </g>
    </g>
    <g id="text_18">
     <!-- E3-Hybrid-WithAdaptive -->
     <g transform="translate(86.288438 114.680313) scale(0.1 -0.1)">
      <defs>
       <path id="DejaVuSerif-3a" d="M 4878 0 
L 4366 0 
L 3297 3794 
L 2228 0 
L 1716 0 
L 494 4331 
L 31 4331 
L 31 4666 
L 1734 4666 
L 1734 4331 
L 1153 4331 
L 2125 884 
L 3188 4666 
L 3694 4666 
L 4775 844 
L 5753 4331 
L 5216 4331 
L 5216 4666 
L 6559 4666 
L 6559 4331 
L 6100 4331 
L 4878 0 
z
" transform="scale(0.015625)"/>
       <path id="DejaVuSerif-53" d="M 1313 1825 
L 1313 1497 
Q 1313 897 1542 583 
Q 1772 269 2209 269 
Q 2650 269 2876 622 
Q 3103 975 3103 1663 
Q 3103 2353 2876 2703 
Q 2650 3053 2209 3053 
Q 1772 3053 1542 2737 
Q 1313 2422 1313 1825 
z
M 738 2988 
L 184 2988 
L 184 3322 
L 1313 3322 
L 1313 2803 
Q 1481 3116 1742 3264 
Q 2003 3413 2388 3413 
Q 3000 3413 3387 2928 
Q 3775 2444 3775 1663 
Q 3775 881 3387 395 
Q 3000 -91 2388 -91 
Q 2003 -91 1742 57 
Q 1481 206 1313 519 
L 1313 -997 
L 1856 -997 
L 1856 -1331 
L 184 -1331 
L 184 -997 
L 738 -997 
L 738 2988 
z
" transform="scale(0.015625)"/>
      </defs>
      <use xlink:href="#DejaVuSerif-28"/>
      <use xlink:href="#DejaVuSerif-16" transform="translate(73 0)"/>
      <use xlink:href="#DejaVuSerif-10" transform="translate(136.625 0)"/>
      <use xlink:href="#DejaVuSerif-2b" transform="translate(170.421875 0)"/>
      <use xlink:href="#DejaVuSerif-5c" transform="translate(257.625 0)"/>
      <use xlink:href="#DejaVuSerif-45" transform="translate(314.125 0)"/>
      <use xlink:href="#DejaVuSerif-55" transform="translate(378.140625 0)"/>
      <use xlink:href="#DejaVuSerif-4c" transform="translate(425.9375 0)"/>
      <use xlink:href="#DejaVuSerif-47" transform="translate(457.921875 0)"/>
      <use xlink:href="#DejaVuSerif-10" transform="translate(521.9375 0)"/>
      <use xlink:href="#DejaVuSerif-3a" transform="translate(550.265625 0)"/>
      <use xlink:href="#DejaVuSerif-4c" transform="translate(651.296875 0)"/>
      <use xlink:href="#DejaVuSerif-57" transform="translate(683.28125 0)"/>
      <use xlink:href="#DejaVuSerif-4b" transform="translate(723.46875 0)"/>
      <use xlink:href="#DejaVuSerif-24" transform="translate(787.875 0)"/>
      <use xlink:href="#DejaVuSerif-47" transform="translate(860.09375 0)"/>
      <use xlink:href="#DejaVuSerif-44" transform="translate(924.109375 0)"/>
      <use xlink:href="#DejaVuSerif-53" transform="translate(983.734375 0)"/>
      <use xlink:href="#DejaVuSerif-57" transform="translate(1047.75 0)"/>
      <use xlink:href="#DejaVuSerif-4c" transform="translate(1087.9375 0)"/>
      <use xlink:href="#DejaVuSerif-59" transform="translate(1119.921875 0)"/>
      <use xlink:href="#DejaVuSerif-48" transform="translate(1176.421875 0)"/>
     </g>
    </g>
   </g>
  </g>
 </g>
 <defs>
  <clipPath id="p3ad99cc34c">
   <rect x="49.288438" y="23.077969" width="390.6" height="277.2"/>
  </clipPath>
 </defs>
</svg>
