<?xml version="1.0" encoding="utf-8" standalone="no"?>
<!DOCTYPE svg PUBLIC "-//W3C//DTD SVG 1.1//EN"
  "http://www.w3.org/Graphics/SVG/1.1/DTD/svg11.dtd">
<svg xmlns:xlink="http://www.w3.org/1999/xlink" width="463.411365pt" height="329.491012pt" viewBox="0 0 463.411365 329.491012" xmlns="http://www.w3.org/2000/svg" version="1.1">
 <metadata>
  <rdf:RDF xmlns:dc="http://purl.org/dc/elements/1.1/" xmlns:cc="http://creativecommons.org/ns#" xmlns:rdf="http://www.w3.org/1999/02/22-rdf-syntax-ns#">
   <cc:Work>
    <dc:type rdf:resource="http://purl.org/dc/dcmitype/StillImage"/>
    <dc:date>2026-07-15T14:33:32.838353</dc:date>
    <dc:format>image/svg+xml</dc:format>
    <dc:creator>
     <cc:Agent>
      <dc:title>Matplotlib v3.11.0, https://matplotlib.org/</dc:title>
     </cc:Agent>
    </dc:creator>
   </cc:Work>
  </rdf:RDF>
 </metadata>
 <defs>
  <style type="text/css">*{stroke-linejoin: round; stroke-linecap: butt}</style>
 </defs>
 <g id="figure_1">
  <g id="patch_1">
   <path d="M 0 329.491012 
L 463.411365 329.491012 
L 463.411365 0 
L 0 0 
z
" style="fill: #ffffff"/>
  </g>
  <g id="axes_1">
   <g id="patch_2">
    <path d="M 42.925938 272.557969 
L 433.525938 272.557969 
L 433.525938 23.077969 
L 42.925938 23.077969 
z
" style="fill: #ffffff"/>
   </g>
   <g id="patch_3">
    <path d="M 60.680483 272.557969 
L 69.708218 272.557969 
L 69.708218 77.140251 
L 60.680483 77.140251 
z
" clip-path="url(#p05124ffb50)" style="fill: #1f77b4; opacity: 0.8"/>
   </g>
   <g id="patch_4">
    <path d="M 120.865383 272.557969 
L 129.893118 272.557969 
L 129.893118 77.930439 
L 120.865383 77.930439 
z
" clip-path="url(#p05124ffb50)" style="fill: #1f77b4; opacity: 0.8"/>
   </g>
   <g id="patch_5">
    <path d="M 181.050283 272.557969 
L 190.078018 272.557969 
L 190.078018 82.691498 
L 181.050283 82.691498 
z
" clip-path="url(#p05124ffb50)" style="fill: #1f77b4; opacity: 0.8"/>
   </g>
   <g id="patch_6">
    <path d="M 241.235182 272.557969 
L 250.262917 272.557969 
L 250.262917 77.140251 
L 241.235182 77.140251 
z
" clip-path="url(#p05124ffb50)" style="fill: #1f77b4; opacity: 0.8"/>
   </g>
   <g id="patch_7">
    <path d="M 301.420082 272.557969 
L 310.447817 272.557969 
L 310.447817 77.140251 
L 301.420082 77.140251 
z
" clip-path="url(#p05124ffb50)" style="fill: #1f77b4; opacity: 0.8"/>
   </g>
   <g id="patch_8">
    <path d="M 361.604982 272.557969 
L 370.632717 272.557969 
L 370.632717 77.140251 
L 361.604982 77.140251 
z
" clip-path="url(#p05124ffb50)" style="fill: #1f77b4; opacity: 0.8"/>
   </g>
   <g id="patch_9">
    <path d="M 69.708218 272.557969 
L 78.735953 272.557969 
L 78.735953 77.140251 
L 69.708218 77.140251 
z
" clip-path="url(#p05124ffb50)" style="fill: #ff7f0e; opacity: 0.8"/>
   </g>
   <g id="patch_10">
    <path d="M 129.893118 272.557969 
L 138.920853 272.557969 
L 138.920853 77.930439 
L 129.893118 77.930439 
z
" clip-path="url(#p05124ffb50)" style="fill: #ff7f0e; opacity: 0.8"/>
   </g>
   <g id="patch_11">
    <path d="M 190.078018 272.557969 
L 199.105753 272.557969 
L 199.105753 82.691498 
L 190.078018 82.691498 
z
" clip-path="url(#p05124ffb50)" style="fill: #ff7f0e; opacity: 0.8"/>
   </g>
   <g id="patch_12">
    <path d="M 250.262917 272.557969 
L 259.290652 272.557969 
L 259.290652 77.140251 
L 250.262917 77.140251 
z
" clip-path="url(#p05124ffb50)" style="fill: #ff7f0e; opacity: 0.8"/>
   </g>
   <g id="patch_13">
    <path d="M 310.447817 272.557969 
L 319.475552 272.557969 
L 319.475552 77.140251 
L 310.447817 77.140251 
z
" clip-path="url(#p05124ffb50)" style="fill: #ff7f0e; opacity: 0.8"/>
   </g>
   <g id="patch_14">
    <path d="M 370.632717 272.557969 
L 379.660452 272.557969 
L 379.660452 77.140251 
L 370.632717 77.140251 
z
" clip-path="url(#p05124ffb50)" style="fill: #ff7f0e; opacity: 0.8"/>
   </g>
   <g id="patch_15">
    <path d="M 78.735953 272.557969 
L 87.763688 272.557969 
L 87.763688 71.566047 
L 78.735953 71.566047 
z
" clip-path="url(#p05124ffb50)" style="fill: #2ca02c; opacity: 0.8"/>
   </g>
   <g id="patch_16">
    <path d="M 138.920853 272.557969 
L 147.948588 272.557969 
L 147.948588 72.49298 
L 138.920853 72.49298 
z
" clip-path="url(#p05124ffb50)" style="fill: #2ca02c; opacity: 0.8"/>
   </g>
   <g id="patch_17">
    <path d="M 199.105753 272.557969 
L 208.133488 272.557969 
L 208.133488 76.624623 
L 199.105753 76.624623 
z
" clip-path="url(#p05124ffb50)" style="fill: #2ca02c; opacity: 0.8"/>
   </g>
   <g id="patch_18">
    <path d="M 259.290652 272.557969 
L 268.318387 272.557969 
L 268.318387 71.566047 
L 259.290652 71.566047 
z
" clip-path="url(#p05124ffb50)" style="fill: #2ca02c; opacity: 0.8"/>
   </g>
   <g id="patch_19">
    <path d="M 319.475552 272.557969 
L 328.503287 272.557969 
L 328.503287 71.566047 
L 319.475552 71.566047 
z
" clip-path="url(#p05124ffb50)" style="fill: #2ca02c; opacity: 0.8"/>
   </g>
   <g id="patch_20">
    <path d="M 379.660452 272.557969 
L 388.688187 272.557969 
L 388.688187 71.566047 
L 379.660452 71.566047 
z
" clip-path="url(#p05124ffb50)" style="fill: #2ca02c; opacity: 0.8"/>
   </g>
   <g id="patch_21">
    <path d="M 87.763688 272.557969 
L 96.791423 272.557969 
L 96.791423 68.003083 
L 87.763688 68.003083 
z
" clip-path="url(#p05124ffb50)" style="fill: #d62728; opacity: 0.8"/>
   </g>
   <g id="patch_22">
    <path d="M 147.948588 272.557969 
L 156.976323 272.557969 
L 156.976323 69.222439 
L 147.948588 69.222439 
z
" clip-path="url(#p05124ffb50)" style="fill: #d62728; opacity: 0.8"/>
   </g>
   <g id="patch_23">
    <path d="M 208.133488 272.557969 
L 217.161223 272.557969 
L 217.161223 72.479346 
L 208.133488 72.479346 
z
" clip-path="url(#p05124ffb50)" style="fill: #d62728; opacity: 0.8"/>
   </g>
   <g id="patch_24">
    <path d="M 268.318387 272.557969 
L 277.346122 272.557969 
L 277.346122 68.003083 
L 268.318387 68.003083 
z
" clip-path="url(#p05124ffb50)" style="fill: #d62728; opacity: 0.8"/>
   </g>
   <g id="patch_25">
    <path d="M 328.503287 272.557969 
L 337.531022 272.557969 
L 337.531022 68.003083 
L 328.503287 68.003083 
z
" clip-path="url(#p05124ffb50)" style="fill: #d62728; opacity: 0.8"/>
   </g>
   <g id="patch_26">
    <path d="M 388.688187 272.557969 
L 397.715922 272.557969 
L 397.715922 68.003083 
L 388.688187 68.003083 
z
" clip-path="url(#p05124ffb50)" style="fill: #d62728; opacity: 0.8"/>
   </g>
   <g id="patch_27">
    <path d="M 96.791423 272.557969 
L 105.819158 272.557969 
L 105.819158 117.08901 
L 96.791423 117.08901 
z
" clip-path="url(#p05124ffb50)" style="fill: #9467bd; opacity: 0.8"/>
   </g>
   <g id="patch_28">
    <path d="M 156.976323 272.557969 
L 166.004058 272.557969 
L 166.004058 116.836195 
L 156.976323 116.836195 
z
" clip-path="url(#p05124ffb50)" style="fill: #9467bd; opacity: 0.8"/>
   </g>
   <g id="patch_29">
    <path d="M 217.161223 272.557969 
L 226.188958 272.557969 
L 226.188958 117.779941 
L 217.161223 117.779941 
z
" clip-path="url(#p05124ffb50)" style="fill: #9467bd; opacity: 0.8"/>
   </g>
   <g id="patch_30">
    <path d="M 277.346122 272.557969 
L 286.373857 272.557969 
L 286.373857 117.08901 
L 277.346122 117.08901 
z
" clip-path="url(#p05124ffb50)" style="fill: #9467bd; opacity: 0.8"/>
   </g>
   <g id="patch_31">
    <path d="M 337.531022 272.557969 
L 346.558757 272.557969 
L 346.558757 117.08901 
L 337.531022 117.08901 
z
" clip-path="url(#p05124ffb50)" style="fill: #9467bd; opacity: 0.8"/>
   </g>
   <g id="patch_32">
    <path d="M 397.715922 272.557969 
L 406.743657 272.557969 
L 406.743657 117.08901 
L 397.715922 117.08901 
z
" clip-path="url(#p05124ffb50)" style="fill: #9467bd; opacity: 0.8"/>
   </g>
   <g id="patch_33">
    <path d="M 105.819158 272.557969 
L 114.846893 272.557969 
L 114.846893 34.957969 
L 105.819158 34.957969 
z
" clip-path="url(#p05124ffb50)" style="fill: #8c564b; opacity: 0.8"/>
   </g>
   <g id="patch_34">
    <path d="M 166.004058 272.557969 
L 175.031793 272.557969 
L 175.031793 34.957969 
L 166.004058 34.957969 
z
" clip-path="url(#p05124ffb50)" style="fill: #8c564b; opacity: 0.8"/>
   </g>
   <g id="patch_35">
    <path d="M 226.188958 272.557969 
L 235.216693 272.557969 
L 235.216693 38.068357 
L 226.188958 38.068357 
z
" clip-path="url(#p05124ffb50)" style="fill: #8c564b; opacity: 0.8"/>
   </g>
   <g id="patch_36">
    <path d="M 286.373857 272.557969 
L 295.401592 272.557969 
L 295.401592 34.957969 
L 286.373857 34.957969 
z
" clip-path="url(#p05124ffb50)" style="fill: #8c564b; opacity: 0.8"/>
   </g>
   <g id="patch_37">
    <path d="M 346.558757 272.557969 
L 355.586492 272.557969 
L 355.586492 34.957969 
L 346.558757 34.957969 
z
" clip-path="url(#p05124ffb50)" style="fill: #8c564b; opacity: 0.8"/>
   </g>
   <g id="patch_38">
    <path d="M 406.743657 272.557969 
L 415.771392 272.557969 
L 415.771392 34.957969 
L 406.743657 34.957969 
z
" clip-path="url(#p05124ffb50)" style="fill: #8c564b; opacity: 0.8"/>
   </g>
   <g id="matplotlib.axis_1">
    <g id="xtick_1">
     <g id="line2d_1">
      <path d="M 92.277555 272.557969 
L 92.277555 23.077969 
" clip-path="url(#p05124ffb50)" style="fill: none; stroke-dasharray: 2.96,1.28; stroke-dashoffset: 0; stroke: #b0b0b0; stroke-opacity: 0.3; stroke-width: 0.8"/>
     </g>
     <g id="line2d_2">
      <defs>
       <path id="m5bc41bfb77" d="M 0 0 
L 0 3.5 
" style="stroke: #000000; stroke-width: 0.8"/>
      </defs>
      <g>
       <use xlink:href="#m5bc41bfb77" x="92.277555" y="272.557969" style="stroke: #000000; stroke-width: 0.8"/>
      </g>
     </g>
     <g id="text_1">
      <!-- Normal Traffic -->
      <g transform="translate(56.878687 306.228043) rotate(-15) scale(0.1 -0.1)">
       <defs>
        <path id="DejaVuSerif-31" d="M 313 0 
L 313 331 
L 941 331 
L 941 4331 
L 313 4331 
L 313 4666 
L 1509 4666 
L 4306 984 
L 4306 4331 
L 3681 4331 
L 3681 4666 
L 5319 4666 
L 5319 4331 
L 4691 4331 
L 4691 -91 
L 4313 -91 
L 1325 3841 
L 1325 331 
L 1953 331 
L 1953 0 
L 313 0 
z
" transform="scale(0.015625)"/>
        <path id="DejaVuSerif-52" d="M 1925 219 
Q 2388 219 2623 584 
Q 2859 950 2859 1663 
Q 2859 2375 2623 2739 
Q 2388 3103 1925 3103 
Q 1463 3103 1227 2739 
Q 991 2375 991 1663 
Q 991 950 1228 584 
Q 1466 219 1925 219 
z
M 1925 -91 
Q 1200 -91 759 389 
Q 319 869 319 1663 
Q 319 2456 758 2934 
Q 1197 3413 1925 3413 
Q 2653 3413 3092 2934 
Q 3531 2456 3531 1663 
Q 3531 869 3092 389 
Q 2653 -91 1925 -91 
z
" transform="scale(0.015625)"/>
        <path id="DejaVuSerif-55" d="M 3059 3328 
L 3059 2497 
L 2728 2497 
Q 2713 2744 2591 2866 
Q 2469 2988 2234 2988 
Q 1809 2988 1582 2694 
Q 1356 2400 1356 1850 
L 1356 331 
L 2022 331 
L 2022 0 
L 263 0 
L 263 331 
L 781 331 
L 781 2994 
L 231 2994 
L 231 3322 
L 1356 3322 
L 1356 2731 
Q 1525 3078 1790 3245 
Q 2056 3413 2438 3413 
Q 2578 3413 2733 3391 
Q 2888 3369 3059 3328 
z
" transform="scale(0.015625)"/>
        <path id="DejaVuSerif-50" d="M 3316 2675 
Q 3481 3041 3739 3227 
Q 3997 3413 4341 3413 
Q 4863 3413 5119 3089 
Q 5375 2766 5375 2113 
L 5375 331 
L 5894 331 
L 5894 0 
L 4300 0 
L 4300 331 
L 4800 331 
L 4800 2047 
Q 4800 2556 4650 2772 
Q 4500 2988 4153 2988 
Q 3769 2988 3567 2697 
Q 3366 2406 3366 1850 
L 3366 331 
L 3866 331 
L 3866 0 
L 2291 0 
L 2291 331 
L 2791 331 
L 2791 2069 
Q 2791 2566 2641 2777 
Q 2491 2988 2144 2988 
Q 1759 2988 1557 2697 
Q 1356 2406 1356 1850 
L 1356 331 
L 1856 331 
L 1856 0 
L 263 0 
L 263 331 
L 781 331 
L 781 2994 
L 231 2994 
L 231 3322 
L 1356 3322 
L 1356 2731 
Q 1516 3063 1762 3238 
Q 2009 3413 2322 3413 
Q 2709 3413 2968 3220 
Q 3228 3028 3316 2675 
z
" transform="scale(0.015625)"/>
        <path id="DejaVuSerif-44" d="M 2547 1044 
L 2547 1747 
L 1806 1747 
Q 1378 1747 1168 1562 
Q 959 1378 959 997 
Q 959 650 1171 447 
Q 1384 244 1747 244 
Q 2106 244 2326 466 
Q 2547 688 2547 1044 
z
M 3122 2075 
L 3122 331 
L 3634 331 
L 3634 0 
L 2547 0 
L 2547 359 
Q 2356 128 2106 18 
Q 1856 -91 1522 -91 
Q 969 -91 644 203 
Q 319 497 319 997 
Q 319 1513 691 1797 
Q 1063 2081 1741 2081 
L 2547 2081 
L 2547 2309 
Q 2547 2688 2317 2895 
Q 2088 3103 1672 3103 
Q 1328 3103 1125 2947 
Q 922 2791 872 2484 
L 575 2484 
L 575 3156 
Q 875 3284 1158 3348 
Q 1441 3413 1709 3413 
Q 2400 3413 2761 3070 
Q 3122 2728 3122 2075 
z
" transform="scale(0.015625)"/>
        <path id="DejaVuSerif-4f" d="M 1313 331 
L 1856 331 
L 1856 0 
L 184 0 
L 184 331 
L 738 331 
L 738 4531 
L 184 4531 
L 184 4863 
L 1313 4863 
L 1313 331 
z
" transform="scale(0.015625)"/>
        <path id="DejaVuSerif-3" transform="scale(0.015625)"/>
        <path id="DejaVuSerif-37" d="M 1222 0 
L 1222 331 
L 1819 331 
L 1819 4294 
L 447 4294 
L 447 3566 
L 63 3566 
L 63 4666 
L 4206 4666 
L 4206 3566 
L 3822 3566 
L 3822 4294 
L 2450 4294 
L 2450 331 
L 3047 331 
L 3047 0 
L 1222 0 
z
" transform="scale(0.015625)"/>
        <path id="DejaVuSerif-cef" d="M 2963 2984 
L 1356 2988 
L 1356 331 
L 2094 331 
L 2094 0 
L 231 0 
L 231 331 
L 781 331 
L 781 2988 
L 231 2988 
L 231 3322 
L 781 3322 
L 781 3738 
Q 781 4294 1068 4578 
Q 1356 4863 1919 4863 
Q 2125 4863 2334 4825 
Q 2544 4788 2750 4709 
L 2750 4078 
L 2450 4078 
Q 2444 4313 2316 4434 
Q 2188 4556 1938 4556 
Q 1619 4556 1487 4379 
Q 1356 4203 1356 3750 
L 1356 3322 
L 2963 3322 
L 2963 3734 
Q 2963 4291 3250 4575 
Q 3538 4859 4100 4859 
Q 4306 4859 4515 4821 
Q 4725 4784 4931 4706 
L 4931 4075 
L 4631 4075 
Q 4625 4309 4497 4431 
Q 4369 4553 4119 4553 
Q 3800 4553 3669 4376 
Q 3538 4200 3538 3747 
L 3538 3319 
L 4463 3319 
L 4463 2984 
L 3538 2984 
L 3538 328 
L 4275 328 
L 4275 -3 
L 2413 -3 
L 2413 328 
L 2963 328 
L 2963 2984 
z
" transform="scale(0.015625)"/>
        <path id="DejaVuSerif-4c" d="M 622 4353 
Q 622 4497 726 4603 
Q 831 4709 978 4709 
Q 1122 4709 1226 4603 
Q 1331 4497 1331 4353 
Q 1331 4206 1228 4103 
Q 1125 4000 978 4000 
Q 831 4000 726 4103 
Q 622 4206 622 4353 
z
M 1356 331 
L 1900 331 
L 1900 0 
L 231 0 
L 231 331 
L 781 331 
L 781 2988 
L 231 2988 
L 231 3322 
L 1356 3322 
L 1356 331 
z
" transform="scale(0.015625)"/>
        <path id="DejaVuSerif-46" d="M 3291 997 
Q 3169 466 2822 187 
Q 2475 -91 1925 -91 
Q 1200 -91 759 389 
Q 319 869 319 1663 
Q 319 2459 759 2936 
Q 1200 3413 1925 3413 
Q 2241 3413 2553 3339 
Q 2866 3266 3181 3116 
L 3181 2266 
L 2847 2266 
Q 2781 2703 2561 2903 
Q 2341 3103 1931 3103 
Q 1466 3103 1228 2742 
Q 991 2381 991 1663 
Q 991 944 1227 581 
Q 1463 219 1931 219 
Q 2303 219 2525 412 
Q 2747 606 2828 997 
L 3291 997 
z
" transform="scale(0.015625)"/>
       </defs>
       <use xlink:href="#DejaVuSerif-31"/>
       <use xlink:href="#DejaVuSerif-52" transform="translate(87.5 0)"/>
       <use xlink:href="#DejaVuSerif-55" transform="translate(147.703125 0)"/>
       <use xlink:href="#DejaVuSerif-50" transform="translate(195.5 0)"/>
       <use xlink:href="#DejaVuSerif-44" transform="translate(290.328125 0)"/>
       <use xlink:href="#DejaVuSerif-4f" transform="translate(349.953125 0)"/>
       <use xlink:href="#DejaVuSerif-3" transform="translate(381.9375 0)"/>
       <use xlink:href="#DejaVuSerif-37" transform="translate(413.71875 0)"/>
       <use xlink:href="#DejaVuSerif-55" transform="translate(480.421875 0)"/>
       <use xlink:href="#DejaVuSerif-44" transform="translate(528.21875 0)"/>
       <use xlink:href="#DejaVuSerif-cef" transform="translate(587.84375 0)"/>
       <use xlink:href="#DejaVuSerif-4c" transform="translate(658.890625 0)"/>
       <use xlink:href="#DejaVuSerif-46" transform="translate(690.875 0)"/>
      </g>
     </g>
    </g>
    <g id="xtick_2">
     <g id="line2d_3">
      <path d="M 152.462455 272.557969 
L 152.462455 23.077969 
" clip-path="url(#p05124ffb50)" style="fill: none; stroke-dasharray: 2.96,1.28; stroke-dashoffset: 0; stroke: #b0b0b0; stroke-opacity: 0.3; stroke-width: 0.8"/>
     </g>
     <g id="line2d_4">
      <g>
       <use xlink:href="#m5bc41bfb77" x="152.462455" y="272.557969" style="stroke: #000000; stroke-width: 0.8"/>
      </g>
     </g>
     <g id="text_2">
      <!-- Road Closure -->
      <g transform="translate(120.180961 304.557447) rotate(-15) scale(0.1 -0.1)">
       <defs>
        <path id="DejaVuSerif-35" d="M 3066 2316 
Q 3284 2256 3442 2114 
Q 3600 1972 3725 1716 
L 4403 331 
L 4972 331 
L 4972 0 
L 3872 0 
L 3144 1484 
Q 2934 1916 2759 2042 
Q 2584 2169 2278 2169 
L 1581 2169 
L 1581 331 
L 2241 331 
L 2241 0 
L 353 0 
L 353 331 
L 947 331 
L 947 4331 
L 353 4331 
L 353 4666 
L 2719 4666 
Q 3400 4666 3770 4341 
Q 4141 4016 4141 3419 
Q 4141 2938 3870 2661 
Q 3600 2384 3066 2316 
z
M 1581 2503 
L 2503 2503 
Q 2975 2503 3200 2726 
Q 3425 2950 3425 3419 
Q 3425 3888 3200 4109 
Q 2975 4331 2503 4331 
L 1581 4331 
L 1581 2503 
z
" transform="scale(0.015625)"/>
        <path id="DejaVuSerif-47" d="M 3359 331 
L 3909 331 
L 3909 0 
L 2784 0 
L 2784 519 
Q 2616 206 2355 57 
Q 2094 -91 1709 -91 
Q 1097 -91 708 395 
Q 319 881 319 1663 
Q 319 2444 706 2928 
Q 1094 3413 1709 3413 
Q 2094 3413 2355 3264 
Q 2616 3116 2784 2803 
L 2784 4531 
L 2241 4531 
L 2241 4863 
L 3359 4863 
L 3359 331 
z
M 2784 1497 
L 2784 1825 
Q 2784 2422 2554 2737 
Q 2325 3053 1888 3053 
Q 1444 3053 1217 2703 
Q 991 2353 991 1663 
Q 991 975 1217 622 
Q 1444 269 1888 269 
Q 2325 269 2554 583 
Q 2784 897 2784 1497 
z
" transform="scale(0.015625)"/>
        <path id="DejaVuSerif-26" d="M 4513 1234 
Q 4306 581 3820 245 
Q 3334 -91 2591 -91 
Q 2134 -91 1743 65 
Q 1353 222 1050 525 
Q 700 875 529 1320 
Q 359 1766 359 2328 
Q 359 3416 987 4083 
Q 1616 4750 2644 4750 
Q 3025 4750 3456 4650 
Q 3888 4550 4384 4347 
L 4384 3272 
L 4031 3272 
Q 3916 3859 3567 4137 
Q 3219 4416 2591 4416 
Q 1844 4416 1459 3886 
Q 1075 3356 1075 2328 
Q 1075 1303 1459 773 
Q 1844 244 2591 244 
Q 3113 244 3450 492 
Q 3788 741 3938 1234 
L 4513 1234 
z
" transform="scale(0.015625)"/>
        <path id="DejaVuSerif-56" d="M 359 184 
L 359 959 
L 691 959 
Q 703 588 923 403 
Q 1144 219 1575 219 
Q 1963 219 2166 364 
Q 2369 509 2369 788 
Q 2369 1006 2220 1140 
Q 2072 1275 1594 1428 
L 1178 1569 
Q 750 1706 558 1912 
Q 366 2119 366 2438 
Q 366 2894 700 3153 
Q 1034 3413 1625 3413 
Q 1888 3413 2178 3344 
Q 2469 3275 2778 3144 
L 2778 2419 
L 2447 2419 
Q 2434 2741 2221 2922 
Q 2009 3103 1644 3103 
Q 1281 3103 1095 2975 
Q 909 2847 909 2591 
Q 909 2381 1050 2254 
Q 1191 2128 1613 1997 
L 2069 1856 
Q 2541 1709 2748 1489 
Q 2956 1269 2956 922 
Q 2956 450 2595 179 
Q 2234 -91 1600 -91 
Q 1278 -91 972 -22 
Q 666 47 359 184 
z
" transform="scale(0.015625)"/>
        <path id="DejaVuSerif-58" d="M 2266 3322 
L 3341 3322 
L 3341 331 
L 3884 331 
L 3884 0 
L 2766 0 
L 2766 588 
Q 2606 256 2353 82 
Q 2100 -91 1766 -91 
Q 1213 -91 952 223 
Q 691 538 691 1209 
L 691 2988 
L 172 2988 
L 172 3322 
L 1269 3322 
L 1269 1388 
Q 1269 781 1417 556 
Q 1566 331 1947 331 
Q 2347 331 2556 625 
Q 2766 919 2766 1478 
L 2766 2988 
L 2266 2988 
L 2266 3322 
z
" transform="scale(0.015625)"/>
        <path id="DejaVuSerif-48" d="M 3469 1600 
L 991 1600 
L 991 1575 
Q 991 903 1244 561 
Q 1497 219 1991 219 
Q 2369 219 2611 417 
Q 2853 616 2950 1006 
L 3413 1006 
Q 3275 459 2904 184 
Q 2534 -91 1931 -91 
Q 1203 -91 761 389 
Q 319 869 319 1663 
Q 319 2450 753 2931 
Q 1188 3413 1894 3413 
Q 2647 3413 3050 2948 
Q 3453 2484 3469 1600 
z
M 2791 1931 
Q 2772 2513 2545 2808 
Q 2319 3103 1894 3103 
Q 1497 3103 1269 2806 
Q 1041 2509 991 1931 
L 2791 1931 
z
" transform="scale(0.015625)"/>
       </defs>
       <use xlink:href="#DejaVuSerif-35"/>
       <use xlink:href="#DejaVuSerif-52" transform="translate(75.296875 0)"/>
       <use xlink:href="#DejaVuSerif-44" transform="translate(135.5 0)"/>
       <use xlink:href="#DejaVuSerif-47" transform="translate(195.125 0)"/>
       <use xlink:href="#DejaVuSerif-3" transform="translate(259.140625 0)"/>
       <use xlink:href="#DejaVuSerif-26" transform="translate(290.921875 0)"/>
       <use xlink:href="#DejaVuSerif-4f" transform="translate(367.4375 0)"/>
       <use xlink:href="#DejaVuSerif-52" transform="translate(399.421875 0)"/>
       <use xlink:href="#DejaVuSerif-56" transform="translate(459.625 0)"/>
       <use xlink:href="#DejaVuSerif-58" transform="translate(510.9375 0)"/>
       <use xlink:href="#DejaVuSerif-55" transform="translate(575.34375 0)"/>
       <use xlink:href="#DejaVuSerif-48" transform="translate(623.140625 0)"/>
      </g>
     </g>
    </g>
    <g id="xtick_3">
     <g id="line2d_5">
      <path d="M 212.647355 272.557969 
L 212.647355 23.077969 
" clip-path="url(#p05124ffb50)" style="fill: none; stroke-dasharray: 2.96,1.28; stroke-dashoffset: 0; stroke: #b0b0b0; stroke-opacity: 0.3; stroke-width: 0.8"/>
     </g>
     <g id="line2d_6">
      <g>
       <use xlink:href="#m5bc41bfb77" x="212.647355" y="272.557969" style="stroke: #000000; stroke-width: 0.8"/>
      </g>
     </g>
     <g id="text_3">
      <!-- Progressive Closures -->
      <g transform="translate(161.590678 314.619038) rotate(-15) scale(0.1 -0.1)">
       <defs>
        <path id="DejaVuSerif-33" d="M 1581 2375 
L 2406 2375 
Q 2872 2375 3115 2626 
Q 3359 2878 3359 3353 
Q 3359 3831 3115 4081 
Q 2872 4331 2406 4331 
L 1581 4331 
L 1581 2375 
z
M 353 0 
L 353 331 
L 947 331 
L 947 4331 
L 353 4331 
L 353 4666 
L 2559 4666 
Q 3259 4666 3668 4311 
Q 4078 3956 4078 3353 
Q 4078 2753 3668 2397 
Q 3259 2041 2559 2041 
L 1581 2041 
L 1581 331 
L 2303 331 
L 2303 0 
L 353 0 
z
" transform="scale(0.015625)"/>
        <path id="DejaVuSerif-4a" d="M 3359 2988 
L 3359 72 
Q 3359 -644 2965 -1033 
Q 2572 -1422 1844 -1422 
Q 1516 -1422 1216 -1362 
Q 916 -1303 641 -1184 
L 641 -488 
L 941 -488 
Q 997 -813 1206 -963 
Q 1416 -1113 1806 -1113 
Q 2313 -1113 2548 -827 
Q 2784 -541 2784 72 
L 2784 519 
Q 2616 206 2355 57 
Q 2094 -91 1709 -91 
Q 1097 -91 708 395 
Q 319 881 319 1663 
Q 319 2444 706 2928 
Q 1094 3413 1709 3413 
Q 2094 3413 2355 3264 
Q 2616 3116 2784 2803 
L 2784 3322 
L 3909 3322 
L 3909 2988 
L 3359 2988 
z
M 2784 1825 
Q 2784 2422 2554 2737 
Q 2325 3053 1888 3053 
Q 1444 3053 1217 2703 
Q 991 2353 991 1663 
Q 991 975 1217 622 
Q 1444 269 1888 269 
Q 2325 269 2554 583 
Q 2784 897 2784 1497 
L 2784 1825 
z
" transform="scale(0.015625)"/>
        <path id="DejaVuSerif-59" d="M 1581 0 
L 359 2988 
L -19 2988 
L -19 3322 
L 1509 3322 
L 1509 2988 
L 978 2988 
L 1913 703 
L 2847 2988 
L 2350 2988 
L 2350 3322 
L 3597 3322 
L 3597 2988 
L 3225 2988 
L 2003 0 
L 1581 0 
z
" transform="scale(0.015625)"/>
       </defs>
       <use xlink:href="#DejaVuSerif-33"/>
       <use xlink:href="#DejaVuSerif-55" transform="translate(67.28125 0)"/>
       <use xlink:href="#DejaVuSerif-52" transform="translate(115.078125 0)"/>
       <use xlink:href="#DejaVuSerif-4a" transform="translate(175.28125 0)"/>
       <use xlink:href="#DejaVuSerif-55" transform="translate(239.296875 0)"/>
       <use xlink:href="#DejaVuSerif-48" transform="translate(287.09375 0)"/>
       <use xlink:href="#DejaVuSerif-56" transform="translate(346.28125 0)"/>
       <use xlink:href="#DejaVuSerif-56" transform="translate(397.59375 0)"/>
       <use xlink:href="#DejaVuSerif-4c" transform="translate(448.90625 0)"/>
       <use xlink:href="#DejaVuSerif-59" transform="translate(480.890625 0)"/>
       <use xlink:href="#DejaVuSerif-48" transform="translate(537.390625 0)"/>
       <use xlink:href="#DejaVuSerif-3" transform="translate(596.578125 0)"/>
       <use xlink:href="#DejaVuSerif-26" transform="translate(628.359375 0)"/>
       <use xlink:href="#DejaVuSerif-4f" transform="translate(704.875 0)"/>
       <use xlink:href="#DejaVuSerif-52" transform="translate(736.859375 0)"/>
       <use xlink:href="#DejaVuSerif-56" transform="translate(797.0625 0)"/>
       <use xlink:href="#DejaVuSerif-58" transform="translate(848.375 0)"/>
       <use xlink:href="#DejaVuSerif-55" transform="translate(912.78125 0)"/>
       <use xlink:href="#DejaVuSerif-48" transform="translate(960.578125 0)"/>
       <use xlink:href="#DejaVuSerif-56" transform="translate(1019.765625 0)"/>
      </g>
     </g>
    </g>
    <g id="xtick_4">
     <g id="line2d_7">
      <path d="M 272.832255 272.557969 
L 272.832255 23.077969 
" clip-path="url(#p05124ffb50)" style="fill: none; stroke-dasharray: 2.96,1.28; stroke-dashoffset: 0; stroke: #b0b0b0; stroke-opacity: 0.3; stroke-width: 0.8"/>
     </g>
     <g id="line2d_8">
      <g>
       <use xlink:href="#m5bc41bfb77" x="272.832255" y="272.557969" style="stroke: #000000; stroke-width: 0.8"/>
      </g>
     </g>
     <g id="text_4">
      <!-- Emergency Incident -->
      <g transform="translate(223.933818 313.46244) rotate(-15) scale(0.1 -0.1)">
       <defs>
        <path id="DejaVuSerif-28" d="M 353 0 
L 353 331 
L 947 331 
L 947 4331 
L 353 4331 
L 353 4666 
L 4109 4666 
L 4109 3628 
L 3725 3628 
L 3725 4281 
L 1581 4281 
L 1581 2719 
L 3109 2719 
L 3109 3303 
L 3494 3303 
L 3494 1753 
L 3109 1753 
L 3109 2338 
L 1581 2338 
L 1581 384 
L 3775 384 
L 3775 1038 
L 4159 1038 
L 4159 0 
L 353 0 
z
" transform="scale(0.015625)"/>
        <path id="DejaVuSerif-51" d="M 263 0 
L 263 331 
L 781 331 
L 781 2988 
L 231 2988 
L 231 3322 
L 1356 3322 
L 1356 2731 
Q 1516 3069 1770 3241 
Q 2025 3413 2363 3413 
Q 2913 3413 3172 3097 
Q 3431 2781 3431 2113 
L 3431 331 
L 3944 331 
L 3944 0 
L 2356 0 
L 2356 331 
L 2853 331 
L 2853 1931 
Q 2853 2541 2703 2767 
Q 2553 2994 2175 2994 
Q 1775 2994 1565 2701 
Q 1356 2409 1356 1850 
L 1356 331 
L 1856 331 
L 1856 0 
L 263 0 
z
" transform="scale(0.015625)"/>
        <path id="DejaVuSerif-5c" d="M 1381 -609 
L 1600 -56 
L 359 2988 
L -19 2988 
L -19 3322 
L 1509 3322 
L 1509 2988 
L 978 2988 
L 1913 703 
L 2847 2988 
L 2350 2988 
L 2350 3322 
L 3597 3322 
L 3597 2988 
L 3225 2988 
L 1703 -750 
Q 1547 -1138 1356 -1280 
Q 1166 -1422 819 -1422 
Q 672 -1422 517 -1397 
Q 363 -1372 206 -1325 
L 206 -691 
L 500 -691 
Q 519 -903 608 -995 
Q 697 -1088 884 -1088 
Q 1056 -1088 1161 -992 
Q 1266 -897 1381 -609 
z
" transform="scale(0.015625)"/>
        <path id="DejaVuSerif-2c" d="M 1581 331 
L 2175 331 
L 2175 0 
L 353 0 
L 353 331 
L 947 331 
L 947 4331 
L 353 4331 
L 353 4666 
L 2175 4666 
L 2175 4331 
L 1581 4331 
L 1581 331 
z
" transform="scale(0.015625)"/>
        <path id="DejaVuSerif-57" d="M 691 2988 
L 184 2988 
L 184 3322 
L 691 3322 
L 691 4353 
L 1269 4353 
L 1269 3322 
L 2350 3322 
L 2350 2988 
L 1269 2988 
L 1269 878 
Q 1269 456 1350 337 
Q 1431 219 1650 219 
Q 1875 219 1978 351 
Q 2081 484 2088 781 
L 2522 781 
Q 2497 328 2275 118 
Q 2053 -91 1600 -91 
Q 1103 -91 897 129 
Q 691 350 691 878 
L 691 2988 
z
" transform="scale(0.015625)"/>
       </defs>
       <use xlink:href="#DejaVuSerif-28"/>
       <use xlink:href="#DejaVuSerif-50" transform="translate(73 0)"/>
       <use xlink:href="#DejaVuSerif-48" transform="translate(167.828125 0)"/>
       <use xlink:href="#DejaVuSerif-55" transform="translate(227.015625 0)"/>
       <use xlink:href="#DejaVuSerif-4a" transform="translate(274.8125 0)"/>
       <use xlink:href="#DejaVuSerif-48" transform="translate(338.828125 0)"/>
       <use xlink:href="#DejaVuSerif-51" transform="translate(398.015625 0)"/>
       <use xlink:href="#DejaVuSerif-46" transform="translate(462.421875 0)"/>
       <use xlink:href="#DejaVuSerif-5c" transform="translate(518.421875 0)"/>
       <use xlink:href="#DejaVuSerif-3" transform="translate(574.921875 0)"/>
       <use xlink:href="#DejaVuSerif-2c" transform="translate(606.703125 0)"/>
       <use xlink:href="#DejaVuSerif-51" transform="translate(646.203125 0)"/>
       <use xlink:href="#DejaVuSerif-46" transform="translate(710.609375 0)"/>
       <use xlink:href="#DejaVuSerif-4c" transform="translate(766.609375 0)"/>
       <use xlink:href="#DejaVuSerif-47" transform="translate(798.59375 0)"/>
       <use xlink:href="#DejaVuSerif-48" transform="translate(862.609375 0)"/>
       <use xlink:href="#DejaVuSerif-51" transform="translate(921.796875 0)"/>
       <use xlink:href="#DejaVuSerif-57" transform="translate(986.203125 0)"/>
      </g>
     </g>
    </g>
    <g id="xtick_5">
     <g id="line2d_9">
      <path d="M 333.017155 272.557969 
L 333.017155 23.077969 
" clip-path="url(#p05124ffb50)" style="fill: none; stroke-dasharray: 2.96,1.28; stroke-dashoffset: 0; stroke: #b0b0b0; stroke-opacity: 0.3; stroke-width: 0.8"/>
     </g>
     <g id="line2d_10">
      <g>
       <use xlink:href="#m5bc41bfb77" x="333.017155" y="272.557969" style="stroke: #000000; stroke-width: 0.8"/>
      </g>
     </g>
     <g id="text_5">
      <!-- Infrastructure Failure -->
      <g transform="translate(280.128992 315.600528) rotate(-15) scale(0.1 -0.1)">
       <defs>
        <path id="DejaVuSerif-49" d="M 2753 4078 
L 2450 4078 
Q 2447 4313 2317 4434 
Q 2188 4556 1941 4556 
Q 1619 4556 1487 4379 
Q 1356 4203 1356 3750 
L 1356 3322 
L 2284 3322 
L 2284 2988 
L 1356 2988 
L 1356 331 
L 2094 331 
L 2094 0 
L 231 0 
L 231 331 
L 781 331 
L 781 2988 
L 231 2988 
L 231 3322 
L 781 3322 
L 781 3738 
Q 781 4294 1070 4578 
Q 1359 4863 1919 4863 
Q 2128 4863 2337 4825 
Q 2547 4788 2753 4709 
L 2753 4078 
z
" transform="scale(0.015625)"/>
        <path id="DejaVuSerif-29" d="M 353 0 
L 353 331 
L 947 331 
L 947 4331 
L 353 4331 
L 353 4666 
L 4172 4666 
L 4172 3628 
L 3788 3628 
L 3788 4281 
L 1581 4281 
L 1581 2719 
L 3175 2719 
L 3175 3303 
L 3559 3303 
L 3559 1753 
L 3175 1753 
L 3175 2338 
L 1581 2338 
L 1581 331 
L 2328 331 
L 2328 0 
L 353 0 
z
" transform="scale(0.015625)"/>
       </defs>
       <use xlink:href="#DejaVuSerif-2c"/>
       <use xlink:href="#DejaVuSerif-51" transform="translate(39.5 0)"/>
       <use xlink:href="#DejaVuSerif-49" transform="translate(103.90625 0)"/>
       <use xlink:href="#DejaVuSerif-55" transform="translate(140.921875 0)"/>
       <use xlink:href="#DejaVuSerif-44" transform="translate(188.71875 0)"/>
       <use xlink:href="#DejaVuSerif-56" transform="translate(248.34375 0)"/>
       <use xlink:href="#DejaVuSerif-57" transform="translate(299.65625 0)"/>
       <use xlink:href="#DejaVuSerif-55" transform="translate(339.84375 0)"/>
       <use xlink:href="#DejaVuSerif-58" transform="translate(387.640625 0)"/>
       <use xlink:href="#DejaVuSerif-46" transform="translate(452.046875 0)"/>
       <use xlink:href="#DejaVuSerif-57" transform="translate(508.046875 0)"/>
       <use xlink:href="#DejaVuSerif-58" transform="translate(548.234375 0)"/>
       <use xlink:href="#DejaVuSerif-55" transform="translate(612.640625 0)"/>
       <use xlink:href="#DejaVuSerif-48" transform="translate(660.4375 0)"/>
       <use xlink:href="#DejaVuSerif-3" transform="translate(719.625 0)"/>
       <use xlink:href="#DejaVuSerif-29" transform="translate(751.40625 0)"/>
       <use xlink:href="#DejaVuSerif-44" transform="translate(814.015625 0)"/>
       <use xlink:href="#DejaVuSerif-4c" transform="translate(873.640625 0)"/>
       <use xlink:href="#DejaVuSerif-4f" transform="translate(905.625 0)"/>
       <use xlink:href="#DejaVuSerif-58" transform="translate(937.609375 0)"/>
       <use xlink:href="#DejaVuSerif-55" transform="translate(1002.015625 0)"/>
       <use xlink:href="#DejaVuSerif-48" transform="translate(1049.8125 0)"/>
      </g>
     </g>
    </g>
    <g id="xtick_6">
     <g id="line2d_11">
      <path d="M 393.202055 272.557969 
L 393.202055 23.077969 
" clip-path="url(#p05124ffb50)" style="fill: none; stroke-dasharray: 2.96,1.28; stroke-dashoffset: 0; stroke: #b0b0b0; stroke-opacity: 0.3; stroke-width: 0.8"/>
     </g>
     <g id="line2d_12">
      <g>
       <use xlink:href="#m5bc41bfb77" x="393.202055" y="272.557969" style="stroke: #000000; stroke-width: 0.8"/>
      </g>
     </g>
     <g id="text_6">
      <!-- Communication Blackout -->
      <g transform="translate(332.159365 319.970526) rotate(-15) scale(0.1 -0.1)">
       <defs>
        <path id="DejaVuSerif-25" d="M 1581 331 
L 2516 331 
Q 3078 331 3337 575 
Q 3597 819 3597 1350 
Q 3597 1878 3339 2120 
Q 3081 2363 2516 2363 
L 1581 2363 
L 1581 331 
z
M 1581 2694 
L 2375 2694 
Q 2888 2694 3123 2891 
Q 3359 3088 3359 3513 
Q 3359 3941 3123 4136 
Q 2888 4331 2375 4331 
L 1581 4331 
L 1581 2694 
z
M 353 0 
L 353 331 
L 947 331 
L 947 4331 
L 353 4331 
L 353 4666 
L 2656 4666 
Q 3363 4666 3720 4377 
Q 4078 4088 4078 3513 
Q 4078 3097 3829 2850 
Q 3581 2603 3103 2547 
Q 3697 2472 4005 2167 
Q 4313 1863 4313 1350 
Q 4313 656 3875 328 
Q 3438 0 2509 0 
L 353 0 
z
" transform="scale(0.015625)"/>
        <path id="DejaVuSerif-4e" d="M 1831 0 
L 219 0 
L 219 331 
L 738 331 
L 738 4531 
L 184 4531 
L 184 4863 
L 1313 4863 
L 1313 1697 
L 2713 2988 
L 2234 2988 
L 2234 3322 
L 3738 3322 
L 3738 2988 
L 3169 2988 
L 2181 2075 
L 3444 331 
L 3922 331 
L 3922 0 
L 2284 0 
L 2284 331 
L 2759 331 
L 1766 1697 
L 1313 1275 
L 1313 331 
L 1831 331 
L 1831 0 
z
" transform="scale(0.015625)"/>
       </defs>
       <use xlink:href="#DejaVuSerif-26"/>
       <use xlink:href="#DejaVuSerif-52" transform="translate(76.515625 0)"/>
       <use xlink:href="#DejaVuSerif-50" transform="translate(136.71875 0)"/>
       <use xlink:href="#DejaVuSerif-50" transform="translate(231.546875 0)"/>
       <use xlink:href="#DejaVuSerif-58" transform="translate(326.375 0)"/>
       <use xlink:href="#DejaVuSerif-51" transform="translate(390.78125 0)"/>
       <use xlink:href="#DejaVuSerif-4c" transform="translate(455.1875 0)"/>
       <use xlink:href="#DejaVuSerif-46" transform="translate(487.171875 0)"/>
       <use xlink:href="#DejaVuSerif-44" transform="translate(543.171875 0)"/>
       <use xlink:href="#DejaVuSerif-57" transform="translate(602.796875 0)"/>
       <use xlink:href="#DejaVuSerif-4c" transform="translate(642.984375 0)"/>
       <use xlink:href="#DejaVuSerif-52" transform="translate(674.96875 0)"/>
       <use xlink:href="#DejaVuSerif-51" transform="translate(735.171875 0)"/>
       <use xlink:href="#DejaVuSerif-3" transform="translate(799.578125 0)"/>
       <use xlink:href="#DejaVuSerif-25" transform="translate(831.359375 0)"/>
       <use xlink:href="#DejaVuSerif-4f" transform="translate(904.84375 0)"/>
       <use xlink:href="#DejaVuSerif-44" transform="translate(936.828125 0)"/>
       <use xlink:href="#DejaVuSerif-46" transform="translate(996.453125 0)"/>
       <use xlink:href="#DejaVuSerif-4e" transform="translate(1052.453125 0)"/>
       <use xlink:href="#DejaVuSerif-52" transform="translate(1113.046875 0)"/>
       <use xlink:href="#DejaVuSerif-58" transform="translate(1173.25 0)"/>
       <use xlink:href="#DejaVuSerif-57" transform="translate(1237.65625 0)"/>
      </g>
     </g>
    </g>
   </g>
   <g id="matplotlib.axis_2">
    <g id="ytick_1">
     <g id="line2d_13">
      <path d="M 42.925938 272.557969 
L 433.525938 272.557969 
" clip-path="url(#p05124ffb50)" style="fill: none; stroke-dasharray: 2.96,1.28; stroke-dashoffset: 0; stroke: #b0b0b0; stroke-opacity: 0.3; stroke-width: 0.8"/>
     </g>
     <g id="line2d_14">
      <defs>
       <path id="m93137b56e0" d="M 0 0 
L -3.5 0 
" style="stroke: #000000; stroke-width: 0.8"/>
      </defs>
      <g>
       <use xlink:href="#m93137b56e0" x="42.925938" y="272.557969" style="stroke: #000000; stroke-width: 0.8"/>
      </g>
     </g>
     <g id="text_7">
      <!-- 0 -->
      <g transform="translate(29.563438 276.356797) scale(0.1 -0.1)">
       <defs>
        <path id="DejaVuSerif-13" d="M 2034 219 
Q 2513 219 2750 744 
Q 2988 1269 2988 2328 
Q 2988 3391 2750 3916 
Q 2513 4441 2034 4441 
Q 1556 4441 1318 3916 
Q 1081 3391 1081 2328 
Q 1081 1269 1318 744 
Q 1556 219 2034 219 
z
M 2034 -91 
Q 1275 -91 848 546 
Q 422 1184 422 2328 
Q 422 3475 848 4112 
Q 1275 4750 2034 4750 
Q 2797 4750 3222 4112 
Q 3647 3475 3647 2328 
Q 3647 1184 3222 546 
Q 2797 -91 2034 -91 
z
" transform="scale(0.015625)"/>
       </defs>
       <use xlink:href="#DejaVuSerif-13"/>
      </g>
     </g>
    </g>
    <g id="ytick_2">
     <g id="line2d_15">
      <path d="M 42.925938 236.111233 
L 433.525938 236.111233 
" clip-path="url(#p05124ffb50)" style="fill: none; stroke-dasharray: 2.96,1.28; stroke-dashoffset: 0; stroke: #b0b0b0; stroke-opacity: 0.3; stroke-width: 0.8"/>
     </g>
     <g id="line2d_16">
      <g>
       <use xlink:href="#m93137b56e0" x="42.925938" y="236.111233" style="stroke: #000000; stroke-width: 0.8"/>
      </g>
     </g>
     <g id="text_8">
      <!-- 5 -->
      <g transform="translate(29.563438 239.910061) scale(0.1 -0.1)">
       <defs>
        <path id="DejaVuSerif-18" d="M 3219 4666 
L 3219 4153 
L 1081 4153 
L 1081 2816 
Q 1244 2928 1461 2984 
Q 1678 3041 1947 3041 
Q 2703 3041 3140 2622 
Q 3578 2203 3578 1478 
Q 3578 738 3136 323 
Q 2694 -91 1894 -91 
Q 1572 -91 1234 -12 
Q 897 66 544 225 
L 544 1131 
L 897 1131 
Q 925 688 1179 453 
Q 1434 219 1894 219 
Q 2388 219 2653 544 
Q 2919 869 2919 1478 
Q 2919 2084 2655 2407 
Q 2391 2731 1894 2731 
Q 1613 2731 1398 2631 
Q 1184 2531 1019 2322 
L 750 2322 
L 750 4666 
L 3219 4666 
z
" transform="scale(0.015625)"/>
       </defs>
       <use xlink:href="#DejaVuSerif-18"/>
      </g>
     </g>
    </g>
    <g id="ytick_3">
     <g id="line2d_17">
      <path d="M 42.925938 199.664497 
L 433.525938 199.664497 
" clip-path="url(#p05124ffb50)" style="fill: none; stroke-dasharray: 2.96,1.28; stroke-dashoffset: 0; stroke: #b0b0b0; stroke-opacity: 0.3; stroke-width: 0.8"/>
     </g>
     <g id="line2d_18">
      <g>
       <use xlink:href="#m93137b56e0" x="42.925938" y="199.664497" style="stroke: #000000; stroke-width: 0.8"/>
      </g>
     </g>
     <g id="text_9">
      <!-- 10 -->
      <g transform="translate(23.200938 203.463325) scale(0.1 -0.1)">
       <defs>
        <path id="DejaVuSerif-14" d="M 909 0 
L 909 331 
L 1722 331 
L 1722 4213 
L 781 3603 
L 781 4013 
L 1919 4750 
L 2350 4750 
L 2350 331 
L 3163 331 
L 3163 0 
L 909 0 
z
" transform="scale(0.015625)"/>
       </defs>
       <use xlink:href="#DejaVuSerif-14"/>
       <use xlink:href="#DejaVuSerif-13" transform="translate(63.625 0)"/>
      </g>
     </g>
    </g>
    <g id="ytick_4">
     <g id="line2d_19">
      <path d="M 42.925938 163.217761 
L 433.525938 163.217761 
" clip-path="url(#p05124ffb50)" style="fill: none; stroke-dasharray: 2.96,1.28; stroke-dashoffset: 0; stroke: #b0b0b0; stroke-opacity: 0.3; stroke-width: 0.8"/>
     </g>
     <g id="line2d_20">
      <g>
       <use xlink:href="#m93137b56e0" x="42.925938" y="163.217761" style="stroke: #000000; stroke-width: 0.8"/>
      </g>
     </g>
     <g id="text_10">
      <!-- 15 -->
      <g transform="translate(23.200938 167.016589) scale(0.1 -0.1)">
       <use xlink:href="#DejaVuSerif-14"/>
       <use xlink:href="#DejaVuSerif-18" transform="translate(63.625 0)"/>
      </g>
     </g>
    </g>
    <g id="ytick_5">
     <g id="line2d_21">
      <path d="M 42.925938 126.771025 
L 433.525938 126.771025 
" clip-path="url(#p05124ffb50)" style="fill: none; stroke-dasharray: 2.96,1.28; stroke-dashoffset: 0; stroke: #b0b0b0; stroke-opacity: 0.3; stroke-width: 0.8"/>
     </g>
     <g id="line2d_22">
      <g>
       <use xlink:href="#m93137b56e0" x="42.925938" y="126.771025" style="stroke: #000000; stroke-width: 0.8"/>
      </g>
     </g>
     <g id="text_11">
      <!-- 20 -->
      <g transform="translate(23.200938 130.569853) scale(0.1 -0.1)">
       <defs>
        <path id="DejaVuSerif-15" d="M 819 3553 
L 469 3553 
L 469 4384 
Q 803 4563 1142 4656 
Q 1481 4750 1806 4750 
Q 2534 4750 2956 4397 
Q 3378 4044 3378 3438 
Q 3378 2753 2422 1800 
Q 2347 1728 2309 1691 
L 1131 513 
L 3078 513 
L 3078 1088 
L 3444 1088 
L 3444 0 
L 434 0 
L 434 341 
L 1850 1753 
Q 2319 2222 2519 2614 
Q 2719 3006 2719 3438 
Q 2719 3909 2473 4175 
Q 2228 4441 1797 4441 
Q 1350 4441 1106 4219 
Q 863 3997 819 3553 
z
" transform="scale(0.015625)"/>
       </defs>
       <use xlink:href="#DejaVuSerif-15"/>
       <use xlink:href="#DejaVuSerif-13" transform="translate(63.625 0)"/>
      </g>
     </g>
    </g>
    <g id="ytick_6">
     <g id="line2d_23">
      <path d="M 42.925938 90.324288 
L 433.525938 90.324288 
" clip-path="url(#p05124ffb50)" style="fill: none; stroke-dasharray: 2.96,1.28; stroke-dashoffset: 0; stroke: #b0b0b0; stroke-opacity: 0.3; stroke-width: 0.8"/>
     </g>
     <g id="line2d_24">
      <g>
       <use xlink:href="#m93137b56e0" x="42.925938" y="90.324288" style="stroke: #000000; stroke-width: 0.8"/>
      </g>
     </g>
     <g id="text_12">
      <!-- 25 -->
      <g transform="translate(23.200938 94.123117) scale(0.1 -0.1)">
       <use xlink:href="#DejaVuSerif-15"/>
       <use xlink:href="#DejaVuSerif-18" transform="translate(63.625 0)"/>
      </g>
     </g>
    </g>
    <g id="ytick_7">
     <g id="line2d_25">
      <path d="M 42.925938 53.877552 
L 433.525938 53.877552 
" clip-path="url(#p05124ffb50)" style="fill: none; stroke-dasharray: 2.96,1.28; stroke-dashoffset: 0; stroke: #b0b0b0; stroke-opacity: 0.3; stroke-width: 0.8"/>
     </g>
     <g id="line2d_26">
      <g>
       <use xlink:href="#m93137b56e0" x="42.925938" y="53.877552" style="stroke: #000000; stroke-width: 0.8"/>
      </g>
     </g>
     <g id="text_13">
      <!-- 30 -->
      <g transform="translate(23.200938 57.676381) scale(0.1 -0.1)">
       <defs>
        <path id="DejaVuSerif-16" d="M 622 4469 
Q 988 4606 1323 4678 
Q 1659 4750 1953 4750 
Q 2638 4750 3022 4454 
Q 3406 4159 3406 3634 
Q 3406 3213 3140 2930 
Q 2875 2647 2388 2547 
Q 2963 2466 3280 2130 
Q 3597 1794 3597 1259 
Q 3597 606 3158 257 
Q 2719 -91 1894 -91 
Q 1528 -91 1179 -12 
Q 831 66 488 225 
L 488 1131 
L 838 1131 
Q 869 681 1141 450 
Q 1413 219 1906 219 
Q 2384 219 2661 495 
Q 2938 772 2938 1253 
Q 2938 1803 2653 2086 
Q 2369 2369 1819 2369 
L 1522 2369 
L 1522 2688 
L 1678 2688 
Q 2225 2688 2498 2914 
Q 2772 3141 2772 3597 
Q 2772 4006 2547 4223 
Q 2322 4441 1900 4441 
Q 1478 4441 1245 4241 
Q 1013 4041 972 3647 
L 622 3647 
L 622 4469 
z
" transform="scale(0.015625)"/>
       </defs>
       <use xlink:href="#DejaVuSerif-16"/>
       <use xlink:href="#DejaVuSerif-13" transform="translate(63.625 0)"/>
      </g>
     </g>
    </g>
    <g id="text_14">
     <!-- Total Cumulative Energy (kWh) -->
     <g transform="translate(16.318125 243.615469) rotate(-90) scale(0.12 -0.12)">
      <defs>
       <path id="DejaVuSerif-b" d="M 2041 -997 
Q 1281 -656 893 83 
Q 506 822 506 1931 
Q 506 3044 893 3783 
Q 1281 4522 2041 4863 
L 2041 4556 
Q 1559 4225 1350 3623 
Q 1141 3022 1141 1931 
Q 1141 844 1350 242 
Q 1559 -359 2041 -691 
L 2041 -997 
z
" transform="scale(0.015625)"/>
       <path id="DejaVuSerif-3a" d="M 4878 0 
L 4366 0 
L 3297 3794 
L 2228 0 
L 1716 0 
L 494 4331 
L 31 4331 
L 31 4666 
L 1734 4666 
L 1734 4331 
L 1153 4331 
L 2125 884 
L 3188 4666 
L 3694 4666 
L 4775 844 
L 5753 4331 
L 5216 4331 
L 5216 4666 
L 6559 4666 
L 6559 4331 
L 6100 4331 
L 4878 0 
z
" transform="scale(0.015625)"/>
       <path id="DejaVuSerif-4b" d="M 263 0 
L 263 331 
L 781 331 
L 781 4531 
L 231 4531 
L 231 4863 
L 1356 4863 
L 1356 2731 
Q 1516 3069 1770 3241 
Q 2025 3413 2363 3413 
Q 2913 3413 3172 3097 
Q 3431 2781 3431 2113 
L 3431 331 
L 3944 331 
L 3944 0 
L 2356 0 
L 2356 331 
L 2853 331 
L 2853 1931 
Q 2853 2541 2704 2764 
Q 2556 2988 2175 2988 
Q 1775 2988 1565 2697 
Q 1356 2406 1356 1850 
L 1356 331 
L 1856 331 
L 1856 0 
L 263 0 
z
" transform="scale(0.015625)"/>
       <path id="DejaVuSerif-c" d="M 453 -997 
L 453 -691 
Q 934 -359 1145 242 
Q 1356 844 1356 1931 
Q 1356 3022 1145 3623 
Q 934 4225 453 4556 
L 453 4863 
Q 1216 4522 1603 3783 
Q 1991 3044 1991 1931 
Q 1991 822 1603 83 
Q 1216 -656 453 -997 
z
" transform="scale(0.015625)"/>
      </defs>
      <use xlink:href="#DejaVuSerif-37"/>
      <use xlink:href="#DejaVuSerif-52" transform="translate(58.9375 0)"/>
      <use xlink:href="#DejaVuSerif-57" transform="translate(119.140625 0)"/>
      <use xlink:href="#DejaVuSerif-44" transform="translate(159.328125 0)"/>
      <use xlink:href="#DejaVuSerif-4f" transform="translate(218.953125 0)"/>
      <use xlink:href="#DejaVuSerif-3" transform="translate(250.9375 0)"/>
      <use xlink:href="#DejaVuSerif-26" transform="translate(282.71875 0)"/>
      <use xlink:href="#DejaVuSerif-58" transform="translate(359.234375 0)"/>
      <use xlink:href="#DejaVuSerif-50" transform="translate(423.640625 0)"/>
      <use xlink:href="#DejaVuSerif-58" transform="translate(518.46875 0)"/>
      <use xlink:href="#DejaVuSerif-4f" transform="translate(582.875 0)"/>
      <use xlink:href="#DejaVuSerif-44" transform="translate(614.859375 0)"/>
      <use xlink:href="#DejaVuSerif-57" transform="translate(674.484375 0)"/>
      <use xlink:href="#DejaVuSerif-4c" transform="translate(714.671875 0)"/>
      <use xlink:href="#DejaVuSerif-59" transform="translate(746.65625 0)"/>
      <use xlink:href="#DejaVuSerif-48" transform="translate(803.15625 0)"/>
      <use xlink:href="#DejaVuSerif-3" transform="translate(862.34375 0)"/>
      <use xlink:href="#DejaVuSerif-28" transform="translate(894.125 0)"/>
      <use xlink:href="#DejaVuSerif-51" transform="translate(967.125 0)"/>
      <use xlink:href="#DejaVuSerif-48" transform="translate(1031.53125 0)"/>
      <use xlink:href="#DejaVuSerif-55" transform="translate(1090.71875 0)"/>
      <use xlink:href="#DejaVuSerif-4a" transform="translate(1138.515625 0)"/>
      <use xlink:href="#DejaVuSerif-5c" transform="translate(1202.53125 0)"/>
      <use xlink:href="#DejaVuSerif-3" transform="translate(1259.03125 0)"/>
      <use xlink:href="#DejaVuSerif-b" transform="translate(1290.8125 0)"/>
      <use xlink:href="#DejaVuSerif-4e" transform="translate(1329.828125 0)"/>
      <use xlink:href="#DejaVuSerif-3a" transform="translate(1390.421875 0)"/>
      <use xlink:href="#DejaVuSerif-4b" transform="translate(1493.203125 0)"/>
      <use xlink:href="#DejaVuSerif-c" transform="translate(1557.609375 0)"/>
     </g>
    </g>
   </g>
   <g id="patch_39">
    <path d="M 42.925938 272.557969 
L 42.925938 23.077969 
" style="fill: none; stroke: #000000; stroke-width: 0.8; stroke-linejoin: miter; stroke-linecap: square"/>
   </g>
   <g id="patch_40">
    <path d="M 433.525938 272.557969 
L 433.525938 23.077969 
" style="fill: none; stroke: #000000; stroke-width: 0.8; stroke-linejoin: miter; stroke-linecap: square"/>
   </g>
   <g id="patch_41">
    <path d="M 42.925938 272.557969 
L 433.525938 272.557969 
" style="fill: none; stroke: #000000; stroke-width: 0.8; stroke-linejoin: miter; stroke-linecap: square"/>
   </g>
   <g id="patch_42">
    <path d="M 42.925938 23.077969 
L 433.525938 23.077969 
" style="fill: none; stroke: #000000; stroke-width: 0.8; stroke-linejoin: miter; stroke-linecap: square"/>
   </g>
   <g id="text_15">
    <!-- Energy Consumption Profile Across Scenarios -->
    <g transform="translate(86.417422 17.077969) scale(0.13 -0.13)">
     <defs>
      <path id="DejaVuSerif-53" d="M 1313 1825 
L 1313 1497 
Q 1313 897 1542 583 
Q 1772 269 2209 269 
Q 2650 269 2876 622 
Q 3103 975 3103 1663 
Q 3103 2353 2876 2703 
Q 2650 3053 2209 3053 
Q 1772 3053 1542 2737 
Q 1313 2422 1313 1825 
z
M 738 2988 
L 184 2988 
L 184 3322 
L 1313 3322 
L 1313 2803 
Q 1481 3116 1742 3264 
Q 2003 3413 2388 3413 
Q 3000 3413 3387 2928 
Q 3775 2444 3775 1663 
Q 3775 881 3387 395 
Q 3000 -91 2388 -91 
Q 2003 -91 1742 57 
Q 1481 206 1313 519 
L 1313 -997 
L 1856 -997 
L 1856 -1331 
L 184 -1331 
L 184 -997 
L 738 -997 
L 738 2988 
z
" transform="scale(0.015625)"/>
      <path id="DejaVuSerif-cf0" d="M 3347 4019 
L 3053 4022 
Q 3044 4291 2853 4423 
Q 2663 4556 2278 4556 
Q 1800 4556 1578 4334 
Q 1356 4113 1356 3634 
L 1356 3322 
L 3578 3322 
L 3578 331 
L 4122 331 
L 4122 0 
L 2450 0 
L 2450 331 
L 3003 331 
L 3003 2988 
L 1356 2988 
L 1356 331 
L 1900 331 
L 1900 0 
L 231 0 
L 231 331 
L 781 331 
L 781 2988 
L 231 2988 
L 231 3322 
L 781 3322 
L 781 3622 
Q 781 4238 1147 4550 
Q 1513 4863 2228 4863 
Q 2500 4863 2784 4822 
Q 3069 4781 3347 4697 
L 3347 4019 
z
" transform="scale(0.015625)"/>
      <path id="DejaVuSerif-24" d="M 1281 1691 
L 2994 1691 
L 2138 3909 
L 1281 1691 
z
M -38 0 
L -38 331 
L 372 331 
L 2034 4666 
L 2559 4666 
L 4225 331 
L 4684 331 
L 4684 0 
L 2988 0 
L 2988 331 
L 3506 331 
L 3116 1356 
L 1153 1356 
L 763 331 
L 1275 331 
L 1275 0 
L -38 0 
z
" transform="scale(0.015625)"/>
      <path id="DejaVuSerif-36" d="M 594 225 
L 594 1288 
L 953 1284 
Q 969 753 1261 498 
Q 1553 244 2150 244 
Q 2706 244 2998 464 
Q 3291 684 3291 1106 
Q 3291 1444 3114 1625 
Q 2938 1806 2369 1978 
L 1753 2163 
Q 1084 2366 811 2669 
Q 538 2972 538 3500 
Q 538 4094 959 4422 
Q 1381 4750 2144 4750 
Q 2469 4750 2856 4679 
Q 3244 4609 3681 4475 
L 3681 3481 
L 3328 3481 
Q 3275 3975 2998 4195 
Q 2722 4416 2156 4416 
Q 1663 4416 1405 4214 
Q 1147 4013 1147 3628 
Q 1147 3294 1340 3103 
Q 1534 2913 2163 2725 
L 2741 2553 
Q 3375 2363 3645 2067 
Q 3916 1772 3916 1275 
Q 3916 597 3481 253 
Q 3047 -91 2188 -91 
Q 1803 -91 1404 -12 
Q 1006 66 594 225 
z
" transform="scale(0.015625)"/>
     </defs>
     <use xlink:href="#DejaVuSerif-28"/>
     <use xlink:href="#DejaVuSerif-51" transform="translate(73 0)"/>
     <use xlink:href="#DejaVuSerif-48" transform="translate(137.40625 0)"/>
     <use xlink:href="#DejaVuSerif-55" transform="translate(196.59375 0)"/>
     <use xlink:href="#DejaVuSerif-4a" transform="translate(244.390625 0)"/>
     <use xlink:href="#DejaVuSerif-5c" transform="translate(308.40625 0)"/>
     <use xlink:href="#DejaVuSerif-3" transform="translate(364.90625 0)"/>
     <use xlink:href="#DejaVuSerif-26" transform="translate(396.6875 0)"/>
     <use xlink:href="#DejaVuSerif-52" transform="translate(473.203125 0)"/>
     <use xlink:href="#DejaVuSerif-51" transform="translate(533.40625 0)"/>
     <use xlink:href="#DejaVuSerif-56" transform="translate(597.8125 0)"/>
     <use xlink:href="#DejaVuSerif-58" transform="translate(649.125 0)"/>
     <use xlink:href="#DejaVuSerif-50" transform="translate(713.53125 0)"/>
     <use xlink:href="#DejaVuSerif-53" transform="translate(808.359375 0)"/>
     <use xlink:href="#DejaVuSerif-57" transform="translate(872.375 0)"/>
     <use xlink:href="#DejaVuSerif-4c" transform="translate(912.5625 0)"/>
     <use xlink:href="#DejaVuSerif-52" transform="translate(944.546875 0)"/>
     <use xlink:href="#DejaVuSerif-51" transform="translate(1004.75 0)"/>
     <use xlink:href="#DejaVuSerif-3" transform="translate(1069.15625 0)"/>
     <use xlink:href="#DejaVuSerif-33" transform="translate(1100.9375 0)"/>
     <use xlink:href="#DejaVuSerif-55" transform="translate(1168.21875 0)"/>
     <use xlink:href="#DejaVuSerif-52" transform="translate(1216.015625 0)"/>
     <use xlink:href="#DejaVuSerif-cf0" transform="translate(1276.21875 0)"/>
     <use xlink:href="#DejaVuSerif-4f" transform="translate(1342.921875 0)"/>
     <use xlink:href="#DejaVuSerif-48" transform="translate(1374.90625 0)"/>
     <use xlink:href="#DejaVuSerif-3" transform="translate(1434.09375 0)"/>
     <use xlink:href="#DejaVuSerif-24" transform="translate(1465.875 0)"/>
     <use xlink:href="#DejaVuSerif-46" transform="translate(1538.09375 0)"/>
     <use xlink:href="#DejaVuSerif-55" transform="translate(1594.09375 0)"/>
     <use xlink:href="#DejaVuSerif-52" transform="translate(1641.890625 0)"/>
     <use xlink:href="#DejaVuSerif-56" transform="translate(1702.09375 0)"/>
     <use xlink:href="#DejaVuSerif-56" transform="translate(1753.40625 0)"/>
     <use xlink:href="#DejaVuSerif-3" transform="translate(1804.71875 0)"/>
     <use xlink:href="#DejaVuSerif-36" transform="translate(1836.5 0)"/>
     <use xlink:href="#DejaVuSerif-46" transform="translate(1905 0)"/>
     <use xlink:href="#DejaVuSerif-48" transform="translate(1961 0)"/>
     <use xlink:href="#DejaVuSerif-51" transform="translate(2020.1875 0)"/>
     <use xlink:href="#DejaVuSerif-44" transform="translate(2084.59375 0)"/>
     <use xlink:href="#DejaVuSerif-55" transform="translate(2144.21875 0)"/>
     <use xlink:href="#DejaVuSerif-4c" transform="translate(2192.015625 0)"/>
     <use xlink:href="#DejaVuSerif-52" transform="translate(2224 0)"/>
     <use xlink:href="#DejaVuSerif-56" transform="translate(2284.203125 0)"/>
    </g>
   </g>
   <g id="legend_1">
    <g id="patch_43">
     <path d="M 342.332188 121.082656 
L 426.525938 121.082656 
Q 428.525938 121.082656 428.525938 119.082656 
L 428.525938 30.077969 
Q 428.525938 28.077969 426.525938 28.077969 
L 342.332188 28.077969 
Q 340.332188 28.077969 340.332188 30.077969 
L 340.332188 119.082656 
Q 340.332188 121.082656 342.332188 121.082656 
z
" style="fill: #ffffff; opacity: 0.8; stroke: #cccccc; stroke-linejoin: miter"/>
    </g>
    <g id="patch_44">
     <path d="M 344.332188 39.676406 
L 364.332188 39.676406 
L 364.332188 32.676406 
L 344.332188 32.676406 
z
" style="fill: #1f77b4; opacity: 0.8"/>
    </g>
    <g id="text_16">
     <!-- Dijkstra -->
     <g transform="translate(372.332188 39.676406) scale(0.1 -0.1)">
      <defs>
       <path id="DejaVuSerif-27" d="M 1581 331 
L 2163 331 
Q 3072 331 3558 850 
Q 4044 1369 4044 2338 
Q 4044 3306 3559 3818 
Q 3075 4331 2163 4331 
L 1581 4331 
L 1581 331 
z
M 353 0 
L 353 331 
L 947 331 
L 947 4331 
L 353 4331 
L 353 4666 
L 2209 4666 
Q 3416 4666 4089 4050 
Q 4763 3434 4763 2338 
Q 4763 1238 4088 619 
Q 3413 0 2209 0 
L 353 0 
z
" transform="scale(0.015625)"/>
       <path id="DejaVuSerif-4d" d="M 641 4353 
Q 641 4497 745 4603 
Q 850 4709 997 4709 
Q 1141 4709 1245 4603 
Q 1350 4497 1350 4353 
Q 1350 4206 1248 4103 
Q 1147 4000 997 4000 
Q 850 4000 745 4103 
Q 641 4206 641 4353 
z
M 781 2988 
L 238 2988 
L 238 3322 
L 1356 3322 
L 1356 -325 
Q 1356 -838 1051 -1130 
Q 747 -1422 213 -1422 
Q -13 -1422 -217 -1370 
Q -422 -1319 -616 -1216 
L -616 -531 
L -319 -531 
Q -297 -831 -164 -972 
Q -31 -1113 225 -1113 
Q 509 -1113 645 -920 
Q 781 -728 781 -325 
L 781 2988 
z
" transform="scale(0.015625)"/>
      </defs>
      <use xlink:href="#DejaVuSerif-27"/>
      <use xlink:href="#DejaVuSerif-4c" transform="translate(80.171875 0)"/>
      <use xlink:href="#DejaVuSerif-4d" transform="translate(112.15625 0)"/>
      <use xlink:href="#DejaVuSerif-4e" transform="translate(143.15625 0)"/>
      <use xlink:href="#DejaVuSerif-56" transform="translate(203.75 0)"/>
      <use xlink:href="#DejaVuSerif-57" transform="translate(255.0625 0)"/>
      <use xlink:href="#DejaVuSerif-55" transform="translate(295.25 0)"/>
      <use xlink:href="#DejaVuSerif-44" transform="translate(343.046875 0)"/>
     </g>
    </g>
    <g id="patch_45">
     <path d="M 344.332188 54.677187 
L 364.332188 54.677187 
L 364.332188 47.677187 
L 344.332188 47.677187 
z
" style="fill: #ff7f0e; opacity: 0.8"/>
    </g>
    <g id="text_17">
     <!-- AStar -->
     <g transform="translate(372.332188 54.677187) scale(0.1 -0.1)">
      <use xlink:href="#DejaVuSerif-24"/>
      <use xlink:href="#DejaVuSerif-36" transform="translate(72.21875 0)"/>
      <use xlink:href="#DejaVuSerif-57" transform="translate(140.71875 0)"/>
      <use xlink:href="#DejaVuSerif-44" transform="translate(180.90625 0)"/>
      <use xlink:href="#DejaVuSerif-55" transform="translate(240.53125 0)"/>
     </g>
    </g>
    <g id="patch_46">
     <path d="M 344.332188 69.677969 
L 364.332188 69.677969 
L 364.332188 62.677969 
L 344.332188 62.677969 
z
" style="fill: #2ca02c; opacity: 0.8"/>
    </g>
    <g id="text_18">
     <!-- ACO -->
     <g transform="translate(372.332188 69.677969) scale(0.1 -0.1)">
      <defs>
       <path id="DejaVuSerif-32" d="M 2625 244 
Q 3391 244 3781 770 
Q 4172 1297 4172 2328 
Q 4172 3363 3781 3889 
Q 3391 4416 2625 4416 
Q 1856 4416 1465 3889 
Q 1075 3363 1075 2328 
Q 1075 1297 1465 770 
Q 1856 244 2625 244 
z
M 2625 -91 
Q 2150 -91 1751 65 
Q 1353 222 1050 525 
Q 700 875 529 1319 
Q 359 1763 359 2328 
Q 359 2894 529 3339 
Q 700 3784 1050 4134 
Q 1356 4441 1750 4595 
Q 2144 4750 2625 4750 
Q 3641 4750 4266 4084 
Q 4891 3419 4891 2328 
Q 4891 1769 4719 1320 
Q 4547 872 4197 525 
Q 3891 219 3497 64 
Q 3103 -91 2625 -91 
z
" transform="scale(0.015625)"/>
      </defs>
      <use xlink:href="#DejaVuSerif-24"/>
      <use xlink:href="#DejaVuSerif-26" transform="translate(72.21875 0)"/>
      <use xlink:href="#DejaVuSerif-32" transform="translate(148.734375 0)"/>
     </g>
    </g>
    <g id="patch_47">
     <path d="M 344.332188 84.67875 
L 364.332188 84.67875 
L 364.332188 77.67875 
L 344.332188 77.67875 
z
" style="fill: #d62728; opacity: 0.8"/>
    </g>
    <g id="text_19">
     <!-- BCO -->
     <g transform="translate(372.332188 84.67875) scale(0.1 -0.1)">
      <use xlink:href="#DejaVuSerif-25"/>
      <use xlink:href="#DejaVuSerif-26" transform="translate(75.34375 0)"/>
      <use xlink:href="#DejaVuSerif-32" transform="translate(151.859375 0)"/>
     </g>
    </g>
    <g id="patch_48">
     <path d="M 344.332188 99.679531 
L 364.332188 99.679531 
L 364.332188 92.679531 
L 344.332188 92.679531 
z
" style="fill: #9467bd; opacity: 0.8"/>
    </g>
    <g id="text_20">
     <!-- PSO -->
     <g transform="translate(372.332188 99.679531) scale(0.1 -0.1)">
      <use xlink:href="#DejaVuSerif-33"/>
      <use xlink:href="#DejaVuSerif-36" transform="translate(67.28125 0)"/>
      <use xlink:href="#DejaVuSerif-32" transform="translate(135.78125 0)"/>
     </g>
    </g>
    <g id="patch_49">
     <path d="M 344.332188 114.680312 
L 364.332188 114.680312 
L 364.332188 107.680312 
L 344.332188 107.680312 
z
" style="fill: #8c564b; opacity: 0.8"/>
    </g>
    <g id="text_21">
     <!-- E3-Hybrid -->
     <g transform="translate(372.332188 114.680312) scale(0.1 -0.1)">
      <defs>
       <path id="DejaVuSerif-10" d="M 281 1959 
L 1881 1959 
L 1881 1472 
L 281 1472 
L 281 1959 
z
" transform="scale(0.015625)"/>
       <path id="DejaVuSerif-2b" d="M 353 0 
L 353 331 
L 947 331 
L 947 4331 
L 353 4331 
L 353 4666 
L 2175 4666 
L 2175 4331 
L 1581 4331 
L 1581 2719 
L 4000 2719 
L 4000 4331 
L 3406 4331 
L 3406 4666 
L 5228 4666 
L 5228 4331 
L 4634 4331 
L 4634 331 
L 5228 331 
L 5228 0 
L 3406 0 
L 3406 331 
L 4000 331 
L 4000 2338 
L 1581 2338 
L 1581 331 
L 2175 331 
L 2175 0 
L 353 0 
z
" transform="scale(0.015625)"/>
       <path id="DejaVuSerif-45" d="M 738 331 
L 738 4531 
L 184 4531 
L 184 4863 
L 1313 4863 
L 1313 2803 
Q 1481 3116 1742 3264 
Q 2003 3413 2388 3413 
Q 3000 3413 3387 2928 
Q 3775 2444 3775 1663 
Q 3775 881 3387 395 
Q 3000 -91 2388 -91 
Q 2003 -91 1742 57 
Q 1481 206 1313 519 
L 1313 0 
L 184 0 
L 184 331 
L 738 331 
z
M 1313 1497 
Q 1313 897 1542 583 
Q 1772 269 2209 269 
Q 2650 269 2876 622 
Q 3103 975 3103 1663 
Q 3103 2353 2876 2703 
Q 2650 3053 2209 3053 
Q 1772 3053 1542 2737 
Q 1313 2422 1313 1825 
L 1313 1497 
z
" transform="scale(0.015625)"/>
      </defs>
      <use xlink:href="#DejaVuSerif-28"/>
      <use xlink:href="#DejaVuSerif-16" transform="translate(73 0)"/>
      <use xlink:href="#DejaVuSerif-10" transform="translate(136.625 0)"/>
      <use xlink:href="#DejaVuSerif-2b" transform="translate(170.421875 0)"/>
      <use xlink:href="#DejaVuSerif-5c" transform="translate(257.625 0)"/>
      <use xlink:href="#DejaVuSerif-45" transform="translate(314.125 0)"/>
      <use xlink:href="#DejaVuSerif-55" transform="translate(378.140625 0)"/>
      <use xlink:href="#DejaVuSerif-4c" transform="translate(425.9375 0)"/>
      <use xlink:href="#DejaVuSerif-47" transform="translate(457.921875 0)"/>
     </g>
    </g>
   </g>
  </g>
 </g>
 <defs>
  <clipPath id="p05124ffb50">
   <rect x="42.925938" y="23.077969" width="390.6" height="249.48"/>
  </clipPath>
 </defs>
</svg>
